M48
;GenerationSoftware,Autodesk,EAGLE,9.6.2*%
;CreationDate,2021-12-12T10:09:22Z*%
FMAT,2
ICI,OFF
METRIC,TZ,000.000
T8C0.350
T7C0.600
T6C0.800
T5C1.016
T4C1.100
T3C1.500
T2C3.581
T1C5.000
%
G90
M71
T1
X9400Y11650
X41400Y11650
X33400Y11650
X25400Y11650
X17400Y11650
X41400Y27650
X41400Y19650
X33400Y27650
X25400Y27650
X17400Y27650
X33400Y19650
X25400Y19650
X17400Y19650
X9400Y27650
X9400Y19650
T2
X3175Y3175
X3175Y40259
X164465Y40259
X164465Y3175
T3
X161290Y10290
X161290Y32890
T4
X153670Y31750
X153670Y17650
T5
X50546Y2540
X96870Y4880
X72250Y19050
X53086Y2540
X65786Y2540
X63246Y2540
X60706Y2540
X72250Y16510
X58166Y2540
X55626Y2540
X148590Y25400
X148590Y27940
X96870Y20120
X96870Y17580
X157480Y5842
X157480Y3302
X72250Y13970
X72250Y11430
X72250Y8890
X148590Y22860
X156530Y36576
X159070Y36576
X156530Y40640
X159070Y40640
X96870Y15040
X96870Y12500
X96870Y9960
X96870Y7420
X68326Y2540
T6
X111410Y20320
X134270Y20320
X124110Y20320
X126650Y20320
X129190Y20320
X131730Y20320
X149100Y38100
X151850Y38100
X106330Y20320
X141890Y35560
X139350Y35560
X136810Y35560
X134270Y35560
X131730Y35560
X129190Y35560
X126650Y35560
X124110Y35560
X121570Y35560
X119030Y35560
X116490Y35560
X113950Y35560
X141890Y20320
X139350Y20320
X136810Y20320
X121570Y20320
X119030Y20320
X116490Y20320
X113950Y20320
X106330Y35560
X108870Y35560
X111410Y35560
X108870Y20320
T7
X48260Y19650
X48260Y22190
X2540Y18380
X24130Y41734
X38100Y41734
X33020Y41734
X29210Y41734
X88900Y35950
X20320Y41734
X15240Y41734
X64770Y35950
X67310Y35950
X69850Y35950
X59690Y35950
X93980Y35950
X96520Y35950
X99060Y35950
X48260Y17110
X2540Y20920
T8
X67310Y29210
X69850Y29210
X88900Y29210
X96520Y29210
X59436Y11303
X59690Y29210
X40386Y37846
X106299Y30226
X48260Y41910
X29210Y38608
X20320Y39370
X51943Y40386
X129159Y28448
X126619Y27790
X124079Y27133
X121539Y26475
X118999Y25818
X99060Y29210
M30