M48
;GenerationSoftware,Autodesk,EAGLE,9.6.2*%
;CreationDate,2021-09-10T10:34:23Z*%
FMAT,2
ICI,OFF
METRIC,TZ,000.000
T5C0.350
T4C0.813
T3C0.840
T2C1.016
T1C3.581
%
G90
M71
T1
X3175Y3175
X3175Y40259
X164465Y40259
X164465Y3175
X20955Y33274
X41783Y33147
X104521Y33147
X83566Y33147
X125603Y33147
X146939Y33020
T2
X68326Y2540
X65786Y2540
X63246Y2540
X60706Y2540
X58166Y2540
X55626Y2540
X53086Y2540
X50546Y2540
T3
X130534Y20182
X130177Y23123
X131228Y25894
X133445Y27858
X136322Y28567
X117659Y27858
X119877Y25894
X120927Y23123
X120570Y20182
X118887Y17744
X116264Y16367
X113301Y16367
X110678Y17744
X108995Y20182
X109688Y25894
X111906Y27858
X114783Y28567
X97161Y27858
X99379Y25894
X100430Y23123
X100072Y20182
X98389Y17744
X95766Y16367
X92803Y16367
X69174Y17744
X90180Y17744
X88497Y20182
X88140Y23123
X89191Y25894
X91408Y27858
X94285Y28567
X76156Y27858
X78373Y25894
X79424Y23123
X79067Y20182
X77384Y17744
X74760Y16367
X73279Y28567
X70402Y27858
X68185Y25894
X71798Y16367
X67134Y23123
X67491Y20182
X108638Y23123
X55150Y27858
X10262Y28567
X7385Y27858
X5167Y25894
X4117Y23123
X4474Y20182
X6157Y17744
X8780Y16367
X11743Y16367
X14366Y17744
X16049Y20182
X16406Y23123
X15356Y25894
X13138Y27858
X31267Y28567
X28391Y27858
X26173Y25894
X25123Y23123
X25480Y20182
X27163Y17744
X29786Y16367
X32749Y16367
X35372Y17744
X37055Y20182
X37412Y23123
X36362Y25894
X34144Y27858
X52273Y28567
X49397Y27858
X47179Y25894
X46128Y23123
X46485Y20182
X48168Y17744
X50792Y16367
X53754Y16367
X56378Y17744
X58061Y20182
X58418Y23123
X57367Y25894
X132217Y17744
X134841Y16367
X137803Y16367
X140427Y17744
X142110Y20182
X142467Y23123
X141416Y25894
X139198Y27858
X157353Y28567
X154476Y27858
X152259Y25894
X151208Y23123
X151565Y20182
X153248Y17744
X155872Y16367
X158834Y16367
X161458Y17744
X163141Y20182
X163498Y23123
X162447Y25894
X160230Y27858
T4
X96139Y2032
X34290Y1905
X36830Y1905
X93599Y2032
X152527Y2032
X155067Y2032
X111887Y40005
X10287Y33020
X10287Y40640
X13081Y32385
X13081Y40005
X28321Y32385
X28321Y40005
X34163Y32385
X34163Y40005
X49403Y32385
X49403Y40005
X55118Y32385
X55118Y40005
X70485Y32385
X70485Y40005
X76200Y32385
X76200Y40005
X91440Y32385
X91440Y40005
X97155Y32385
X97155Y40005
X111887Y32385
X31242Y33020
X31242Y40640
X117602Y32385
X117602Y40005
X133477Y32385
X133477Y40005
X139192Y32385
X139192Y40005
X154432Y32385
X154432Y40005
X160147Y32385
X160147Y40005
X52324Y33020
X52324Y40640
X73279Y33020
X73279Y40640
X94361Y33020
X94361Y40640
X114808Y33147
X114808Y40767
X136271Y33020
X136271Y40640
X157353Y33020
X157353Y40640
X7366Y32385
X7366Y40005
T5
X85471Y6604
X144780Y6604
X26162Y6604
X144780Y4064
X85471Y4064
X26162Y4064
X84582Y5334
X143891Y5334
X55626Y9906
X140716Y13462
X139954Y12700
X27686Y13208
X25273Y5334
X26924Y12319
X28575Y18034
X24511Y16637
X146304Y10668
X79883Y10795
X86995Y11557
X21082Y11557
X45720Y2540
X54356Y13208
X83820Y9906
X143129Y9906
X24511Y9906
X58166Y8890
X87630Y8890
X147066Y8890
X28448Y8890
X60706Y10795
X27686Y10795
X63246Y7747
X85979Y7747
X145161Y7747
X26924Y7747
X142240Y6604
X82931Y6604
X65786Y6604
X23749Y6604
M30