G04 EAGLE Gerber RS-274X export*
G75*
%MOMM*%
%FSLAX34Y34*%
%LPD*%
%IN*%
%IPPOS*%
%AMOC8*
5,1,8,0,0,1.08239X$1,22.5*%
G01*
%ADD10C,0.254000*%


D10*
X0Y0D02*
X1676400Y0D01*
X1676400Y434340D01*
X0Y434340D01*
X0Y0D01*
X49657Y31164D02*
X49580Y29994D01*
X49427Y28831D01*
X49199Y27682D01*
X48895Y26549D01*
X48518Y25439D01*
X48070Y24356D01*
X47551Y23304D01*
X46965Y22289D01*
X46313Y21314D01*
X45600Y20384D01*
X44827Y19502D01*
X43998Y18673D01*
X43116Y17900D01*
X42186Y17187D01*
X41211Y16535D01*
X40196Y15949D01*
X39144Y15430D01*
X38061Y14982D01*
X36951Y14605D01*
X35818Y14301D01*
X34669Y14073D01*
X33506Y13920D01*
X32336Y13843D01*
X31164Y13843D01*
X29994Y13920D01*
X28831Y14073D01*
X27682Y14301D01*
X26549Y14605D01*
X25439Y14982D01*
X24356Y15430D01*
X23304Y15949D01*
X22289Y16535D01*
X21314Y17187D01*
X20384Y17900D01*
X19502Y18673D01*
X18673Y19502D01*
X17900Y20384D01*
X17187Y21314D01*
X16535Y22289D01*
X15949Y23304D01*
X15430Y24356D01*
X14982Y25439D01*
X14605Y26549D01*
X14301Y27682D01*
X14073Y28831D01*
X13920Y29994D01*
X13843Y31164D01*
X13843Y32336D01*
X13920Y33506D01*
X14073Y34669D01*
X14301Y35818D01*
X14605Y36951D01*
X14982Y38061D01*
X15430Y39144D01*
X15949Y40196D01*
X16535Y41211D01*
X17187Y42186D01*
X17900Y43116D01*
X18673Y43998D01*
X19502Y44827D01*
X20384Y45600D01*
X21314Y46313D01*
X22289Y46965D01*
X23304Y47551D01*
X24356Y48070D01*
X25439Y48518D01*
X26549Y48895D01*
X27682Y49199D01*
X28831Y49427D01*
X29994Y49580D01*
X31164Y49657D01*
X32336Y49657D01*
X33506Y49580D01*
X34669Y49427D01*
X35818Y49199D01*
X36951Y48895D01*
X38061Y48518D01*
X39144Y48070D01*
X40196Y47551D01*
X41211Y46965D01*
X42186Y46313D01*
X43116Y45600D01*
X43998Y44827D01*
X44827Y43998D01*
X45600Y43116D01*
X46313Y42186D01*
X46965Y41211D01*
X47551Y40196D01*
X48070Y39144D01*
X48518Y38061D01*
X48895Y36951D01*
X49199Y35818D01*
X49427Y34669D01*
X49580Y33506D01*
X49657Y32336D01*
X49657Y31164D01*
X49657Y402004D02*
X49580Y400834D01*
X49427Y399671D01*
X49199Y398522D01*
X48895Y397389D01*
X48518Y396279D01*
X48070Y395196D01*
X47551Y394144D01*
X46965Y393129D01*
X46313Y392154D01*
X45600Y391224D01*
X44827Y390342D01*
X43998Y389513D01*
X43116Y388740D01*
X42186Y388027D01*
X41211Y387375D01*
X40196Y386789D01*
X39144Y386270D01*
X38061Y385822D01*
X36951Y385445D01*
X35818Y385141D01*
X34669Y384913D01*
X33506Y384760D01*
X32336Y384683D01*
X31164Y384683D01*
X29994Y384760D01*
X28831Y384913D01*
X27682Y385141D01*
X26549Y385445D01*
X25439Y385822D01*
X24356Y386270D01*
X23304Y386789D01*
X22289Y387375D01*
X21314Y388027D01*
X20384Y388740D01*
X19502Y389513D01*
X18673Y390342D01*
X17900Y391224D01*
X17187Y392154D01*
X16535Y393129D01*
X15949Y394144D01*
X15430Y395196D01*
X14982Y396279D01*
X14605Y397389D01*
X14301Y398522D01*
X14073Y399671D01*
X13920Y400834D01*
X13843Y402004D01*
X13843Y403176D01*
X13920Y404346D01*
X14073Y405509D01*
X14301Y406658D01*
X14605Y407791D01*
X14982Y408901D01*
X15430Y409984D01*
X15949Y411036D01*
X16535Y412051D01*
X17187Y413026D01*
X17900Y413956D01*
X18673Y414838D01*
X19502Y415667D01*
X20384Y416440D01*
X21314Y417153D01*
X22289Y417805D01*
X23304Y418391D01*
X24356Y418910D01*
X25439Y419358D01*
X26549Y419735D01*
X27682Y420039D01*
X28831Y420267D01*
X29994Y420420D01*
X31164Y420497D01*
X32336Y420497D01*
X33506Y420420D01*
X34669Y420267D01*
X35818Y420039D01*
X36951Y419735D01*
X38061Y419358D01*
X39144Y418910D01*
X40196Y418391D01*
X41211Y417805D01*
X42186Y417153D01*
X43116Y416440D01*
X43998Y415667D01*
X44827Y414838D01*
X45600Y413956D01*
X46313Y413026D01*
X46965Y412051D01*
X47551Y411036D01*
X48070Y409984D01*
X48518Y408901D01*
X48895Y407791D01*
X49199Y406658D01*
X49427Y405509D01*
X49580Y404346D01*
X49657Y403176D01*
X49657Y402004D01*
X1662557Y402004D02*
X1662480Y400834D01*
X1662327Y399671D01*
X1662099Y398522D01*
X1661795Y397389D01*
X1661418Y396279D01*
X1660970Y395196D01*
X1660451Y394144D01*
X1659865Y393129D01*
X1659213Y392154D01*
X1658500Y391224D01*
X1657727Y390342D01*
X1656898Y389513D01*
X1656016Y388740D01*
X1655086Y388027D01*
X1654111Y387375D01*
X1653096Y386789D01*
X1652044Y386270D01*
X1650961Y385822D01*
X1649851Y385445D01*
X1648718Y385141D01*
X1647569Y384913D01*
X1646406Y384760D01*
X1645236Y384683D01*
X1644064Y384683D01*
X1642894Y384760D01*
X1641731Y384913D01*
X1640582Y385141D01*
X1639449Y385445D01*
X1638339Y385822D01*
X1637256Y386270D01*
X1636204Y386789D01*
X1635189Y387375D01*
X1634214Y388027D01*
X1633284Y388740D01*
X1632402Y389513D01*
X1631573Y390342D01*
X1630800Y391224D01*
X1630087Y392154D01*
X1629435Y393129D01*
X1628849Y394144D01*
X1628330Y395196D01*
X1627882Y396279D01*
X1627505Y397389D01*
X1627201Y398522D01*
X1626973Y399671D01*
X1626820Y400834D01*
X1626743Y402004D01*
X1626743Y403176D01*
X1626820Y404346D01*
X1626973Y405509D01*
X1627201Y406658D01*
X1627505Y407791D01*
X1627882Y408901D01*
X1628330Y409984D01*
X1628849Y411036D01*
X1629435Y412051D01*
X1630087Y413026D01*
X1630800Y413956D01*
X1631573Y414838D01*
X1632402Y415667D01*
X1633284Y416440D01*
X1634214Y417153D01*
X1635189Y417805D01*
X1636204Y418391D01*
X1637256Y418910D01*
X1638339Y419358D01*
X1639449Y419735D01*
X1640582Y420039D01*
X1641731Y420267D01*
X1642894Y420420D01*
X1644064Y420497D01*
X1645236Y420497D01*
X1646406Y420420D01*
X1647569Y420267D01*
X1648718Y420039D01*
X1649851Y419735D01*
X1650961Y419358D01*
X1652044Y418910D01*
X1653096Y418391D01*
X1654111Y417805D01*
X1655086Y417153D01*
X1656016Y416440D01*
X1656898Y415667D01*
X1657727Y414838D01*
X1658500Y413956D01*
X1659213Y413026D01*
X1659865Y412051D01*
X1660451Y411036D01*
X1660970Y409984D01*
X1661418Y408901D01*
X1661795Y407791D01*
X1662099Y406658D01*
X1662327Y405509D01*
X1662480Y404346D01*
X1662557Y403176D01*
X1662557Y402004D01*
X1662557Y31164D02*
X1662480Y29994D01*
X1662327Y28831D01*
X1662099Y27682D01*
X1661795Y26549D01*
X1661418Y25439D01*
X1660970Y24356D01*
X1660451Y23304D01*
X1659865Y22289D01*
X1659213Y21314D01*
X1658500Y20384D01*
X1657727Y19502D01*
X1656898Y18673D01*
X1656016Y17900D01*
X1655086Y17187D01*
X1654111Y16535D01*
X1653096Y15949D01*
X1652044Y15430D01*
X1650961Y14982D01*
X1649851Y14605D01*
X1648718Y14301D01*
X1647569Y14073D01*
X1646406Y13920D01*
X1645236Y13843D01*
X1644064Y13843D01*
X1642894Y13920D01*
X1641731Y14073D01*
X1640582Y14301D01*
X1639449Y14605D01*
X1638339Y14982D01*
X1637256Y15430D01*
X1636204Y15949D01*
X1635189Y16535D01*
X1634214Y17187D01*
X1633284Y17900D01*
X1632402Y18673D01*
X1631573Y19502D01*
X1630800Y20384D01*
X1630087Y21314D01*
X1629435Y22289D01*
X1628849Y23304D01*
X1628330Y24356D01*
X1627882Y25439D01*
X1627505Y26549D01*
X1627201Y27682D01*
X1626973Y28831D01*
X1626820Y29994D01*
X1626743Y31164D01*
X1626743Y32336D01*
X1626820Y33506D01*
X1626973Y34669D01*
X1627201Y35818D01*
X1627505Y36951D01*
X1627882Y38061D01*
X1628330Y39144D01*
X1628849Y40196D01*
X1629435Y41211D01*
X1630087Y42186D01*
X1630800Y43116D01*
X1631573Y43998D01*
X1632402Y44827D01*
X1633284Y45600D01*
X1634214Y46313D01*
X1635189Y46965D01*
X1636204Y47551D01*
X1637256Y48070D01*
X1638339Y48518D01*
X1639449Y48895D01*
X1640582Y49199D01*
X1641731Y49427D01*
X1642894Y49580D01*
X1644064Y49657D01*
X1645236Y49657D01*
X1646406Y49580D01*
X1647569Y49427D01*
X1648718Y49199D01*
X1649851Y48895D01*
X1650961Y48518D01*
X1652044Y48070D01*
X1653096Y47551D01*
X1654111Y46965D01*
X1655086Y46313D01*
X1656016Y45600D01*
X1656898Y44827D01*
X1657727Y43998D01*
X1658500Y43116D01*
X1659213Y42186D01*
X1659865Y41211D01*
X1660451Y40196D01*
X1660970Y39144D01*
X1661418Y38061D01*
X1661795Y36951D01*
X1662099Y35818D01*
X1662327Y34669D01*
X1662480Y33506D01*
X1662557Y32336D01*
X1662557Y31164D01*
X227457Y332154D02*
X227380Y330984D01*
X227227Y329821D01*
X226999Y328672D01*
X226695Y327539D01*
X226318Y326429D01*
X225870Y325346D01*
X225351Y324294D01*
X224765Y323279D01*
X224113Y322304D01*
X223400Y321374D01*
X222627Y320492D01*
X221798Y319663D01*
X220916Y318890D01*
X219986Y318177D01*
X219011Y317525D01*
X217996Y316939D01*
X216944Y316420D01*
X215861Y315972D01*
X214751Y315595D01*
X213618Y315291D01*
X212469Y315063D01*
X211306Y314910D01*
X210136Y314833D01*
X208964Y314833D01*
X207794Y314910D01*
X206631Y315063D01*
X205482Y315291D01*
X204349Y315595D01*
X203239Y315972D01*
X202156Y316420D01*
X201104Y316939D01*
X200089Y317525D01*
X199114Y318177D01*
X198184Y318890D01*
X197302Y319663D01*
X196473Y320492D01*
X195700Y321374D01*
X194987Y322304D01*
X194335Y323279D01*
X193749Y324294D01*
X193230Y325346D01*
X192782Y326429D01*
X192405Y327539D01*
X192101Y328672D01*
X191873Y329821D01*
X191720Y330984D01*
X191643Y332154D01*
X191643Y333326D01*
X191720Y334496D01*
X191873Y335659D01*
X192101Y336808D01*
X192405Y337941D01*
X192782Y339051D01*
X193230Y340134D01*
X193749Y341186D01*
X194335Y342201D01*
X194987Y343176D01*
X195700Y344106D01*
X196473Y344988D01*
X197302Y345817D01*
X198184Y346590D01*
X199114Y347303D01*
X200089Y347955D01*
X201104Y348541D01*
X202156Y349060D01*
X203239Y349508D01*
X204349Y349885D01*
X205482Y350189D01*
X206631Y350417D01*
X207794Y350570D01*
X208964Y350647D01*
X210136Y350647D01*
X211306Y350570D01*
X212469Y350417D01*
X213618Y350189D01*
X214751Y349885D01*
X215861Y349508D01*
X216944Y349060D01*
X217996Y348541D01*
X219011Y347955D01*
X219986Y347303D01*
X220916Y346590D01*
X221798Y345817D01*
X222627Y344988D01*
X223400Y344106D01*
X224113Y343176D01*
X224765Y342201D01*
X225351Y341186D01*
X225870Y340134D01*
X226318Y339051D01*
X226695Y337941D01*
X226999Y336808D01*
X227227Y335659D01*
X227380Y334496D01*
X227457Y333326D01*
X227457Y332154D01*
X435737Y330884D02*
X435660Y329714D01*
X435507Y328551D01*
X435279Y327402D01*
X434975Y326269D01*
X434598Y325159D01*
X434150Y324076D01*
X433631Y323024D01*
X433045Y322009D01*
X432393Y321034D01*
X431680Y320104D01*
X430907Y319222D01*
X430078Y318393D01*
X429196Y317620D01*
X428266Y316907D01*
X427291Y316255D01*
X426276Y315669D01*
X425224Y315150D01*
X424141Y314702D01*
X423031Y314325D01*
X421898Y314021D01*
X420749Y313793D01*
X419586Y313640D01*
X418416Y313563D01*
X417244Y313563D01*
X416074Y313640D01*
X414911Y313793D01*
X413762Y314021D01*
X412629Y314325D01*
X411519Y314702D01*
X410436Y315150D01*
X409384Y315669D01*
X408369Y316255D01*
X407394Y316907D01*
X406464Y317620D01*
X405582Y318393D01*
X404753Y319222D01*
X403980Y320104D01*
X403267Y321034D01*
X402615Y322009D01*
X402029Y323024D01*
X401510Y324076D01*
X401062Y325159D01*
X400685Y326269D01*
X400381Y327402D01*
X400153Y328551D01*
X400000Y329714D01*
X399923Y330884D01*
X399923Y332056D01*
X400000Y333226D01*
X400153Y334389D01*
X400381Y335538D01*
X400685Y336671D01*
X401062Y337781D01*
X401510Y338864D01*
X402029Y339916D01*
X402615Y340931D01*
X403267Y341906D01*
X403980Y342836D01*
X404753Y343718D01*
X405582Y344547D01*
X406464Y345320D01*
X407394Y346033D01*
X408369Y346685D01*
X409384Y347271D01*
X410436Y347790D01*
X411519Y348238D01*
X412629Y348615D01*
X413762Y348919D01*
X414911Y349147D01*
X416074Y349300D01*
X417244Y349377D01*
X418416Y349377D01*
X419586Y349300D01*
X420749Y349147D01*
X421898Y348919D01*
X423031Y348615D01*
X424141Y348238D01*
X425224Y347790D01*
X426276Y347271D01*
X427291Y346685D01*
X428266Y346033D01*
X429196Y345320D01*
X430078Y344547D01*
X430907Y343718D01*
X431680Y342836D01*
X432393Y341906D01*
X433045Y340931D01*
X433631Y339916D01*
X434150Y338864D01*
X434598Y337781D01*
X434975Y336671D01*
X435279Y335538D01*
X435507Y334389D01*
X435660Y333226D01*
X435737Y332056D01*
X435737Y330884D01*
X1063117Y330884D02*
X1063040Y329714D01*
X1062887Y328551D01*
X1062659Y327402D01*
X1062355Y326269D01*
X1061978Y325159D01*
X1061530Y324076D01*
X1061011Y323024D01*
X1060425Y322009D01*
X1059773Y321034D01*
X1059060Y320104D01*
X1058287Y319222D01*
X1057458Y318393D01*
X1056576Y317620D01*
X1055646Y316907D01*
X1054671Y316255D01*
X1053656Y315669D01*
X1052604Y315150D01*
X1051521Y314702D01*
X1050411Y314325D01*
X1049278Y314021D01*
X1048129Y313793D01*
X1046966Y313640D01*
X1045796Y313563D01*
X1044624Y313563D01*
X1043454Y313640D01*
X1042291Y313793D01*
X1041142Y314021D01*
X1040009Y314325D01*
X1038899Y314702D01*
X1037816Y315150D01*
X1036764Y315669D01*
X1035749Y316255D01*
X1034774Y316907D01*
X1033844Y317620D01*
X1032962Y318393D01*
X1032133Y319222D01*
X1031360Y320104D01*
X1030647Y321034D01*
X1029995Y322009D01*
X1029409Y323024D01*
X1028890Y324076D01*
X1028442Y325159D01*
X1028065Y326269D01*
X1027761Y327402D01*
X1027533Y328551D01*
X1027380Y329714D01*
X1027303Y330884D01*
X1027303Y332056D01*
X1027380Y333226D01*
X1027533Y334389D01*
X1027761Y335538D01*
X1028065Y336671D01*
X1028442Y337781D01*
X1028890Y338864D01*
X1029409Y339916D01*
X1029995Y340931D01*
X1030647Y341906D01*
X1031360Y342836D01*
X1032133Y343718D01*
X1032962Y344547D01*
X1033844Y345320D01*
X1034774Y346033D01*
X1035749Y346685D01*
X1036764Y347271D01*
X1037816Y347790D01*
X1038899Y348238D01*
X1040009Y348615D01*
X1041142Y348919D01*
X1042291Y349147D01*
X1043454Y349300D01*
X1044624Y349377D01*
X1045796Y349377D01*
X1046966Y349300D01*
X1048129Y349147D01*
X1049278Y348919D01*
X1050411Y348615D01*
X1051521Y348238D01*
X1052604Y347790D01*
X1053656Y347271D01*
X1054671Y346685D01*
X1055646Y346033D01*
X1056576Y345320D01*
X1057458Y344547D01*
X1058287Y343718D01*
X1059060Y342836D01*
X1059773Y341906D01*
X1060425Y340931D01*
X1061011Y339916D01*
X1061530Y338864D01*
X1061978Y337781D01*
X1062355Y336671D01*
X1062659Y335538D01*
X1062887Y334389D01*
X1063040Y333226D01*
X1063117Y332056D01*
X1063117Y330884D01*
X853567Y330884D02*
X853490Y329714D01*
X853337Y328551D01*
X853109Y327402D01*
X852805Y326269D01*
X852428Y325159D01*
X851980Y324076D01*
X851461Y323024D01*
X850875Y322009D01*
X850223Y321034D01*
X849510Y320104D01*
X848737Y319222D01*
X847908Y318393D01*
X847026Y317620D01*
X846096Y316907D01*
X845121Y316255D01*
X844106Y315669D01*
X843054Y315150D01*
X841971Y314702D01*
X840861Y314325D01*
X839728Y314021D01*
X838579Y313793D01*
X837416Y313640D01*
X836246Y313563D01*
X835074Y313563D01*
X833904Y313640D01*
X832741Y313793D01*
X831592Y314021D01*
X830459Y314325D01*
X829349Y314702D01*
X828266Y315150D01*
X827214Y315669D01*
X826199Y316255D01*
X825224Y316907D01*
X824294Y317620D01*
X823412Y318393D01*
X822583Y319222D01*
X821810Y320104D01*
X821097Y321034D01*
X820445Y322009D01*
X819859Y323024D01*
X819340Y324076D01*
X818892Y325159D01*
X818515Y326269D01*
X818211Y327402D01*
X817983Y328551D01*
X817830Y329714D01*
X817753Y330884D01*
X817753Y332056D01*
X817830Y333226D01*
X817983Y334389D01*
X818211Y335538D01*
X818515Y336671D01*
X818892Y337781D01*
X819340Y338864D01*
X819859Y339916D01*
X820445Y340931D01*
X821097Y341906D01*
X821810Y342836D01*
X822583Y343718D01*
X823412Y344547D01*
X824294Y345320D01*
X825224Y346033D01*
X826199Y346685D01*
X827214Y347271D01*
X828266Y347790D01*
X829349Y348238D01*
X830459Y348615D01*
X831592Y348919D01*
X832741Y349147D01*
X833904Y349300D01*
X835074Y349377D01*
X836246Y349377D01*
X837416Y349300D01*
X838579Y349147D01*
X839728Y348919D01*
X840861Y348615D01*
X841971Y348238D01*
X843054Y347790D01*
X844106Y347271D01*
X845121Y346685D01*
X846096Y346033D01*
X847026Y345320D01*
X847908Y344547D01*
X848737Y343718D01*
X849510Y342836D01*
X850223Y341906D01*
X850875Y340931D01*
X851461Y339916D01*
X851980Y338864D01*
X852428Y337781D01*
X852805Y336671D01*
X853109Y335538D01*
X853337Y334389D01*
X853490Y333226D01*
X853567Y332056D01*
X853567Y330884D01*
X1273937Y330884D02*
X1273860Y329714D01*
X1273707Y328551D01*
X1273479Y327402D01*
X1273175Y326269D01*
X1272798Y325159D01*
X1272350Y324076D01*
X1271831Y323024D01*
X1271245Y322009D01*
X1270593Y321034D01*
X1269880Y320104D01*
X1269107Y319222D01*
X1268278Y318393D01*
X1267396Y317620D01*
X1266466Y316907D01*
X1265491Y316255D01*
X1264476Y315669D01*
X1263424Y315150D01*
X1262341Y314702D01*
X1261231Y314325D01*
X1260098Y314021D01*
X1258949Y313793D01*
X1257786Y313640D01*
X1256616Y313563D01*
X1255444Y313563D01*
X1254274Y313640D01*
X1253111Y313793D01*
X1251962Y314021D01*
X1250829Y314325D01*
X1249719Y314702D01*
X1248636Y315150D01*
X1247584Y315669D01*
X1246569Y316255D01*
X1245594Y316907D01*
X1244664Y317620D01*
X1243782Y318393D01*
X1242953Y319222D01*
X1242180Y320104D01*
X1241467Y321034D01*
X1240815Y322009D01*
X1240229Y323024D01*
X1239710Y324076D01*
X1239262Y325159D01*
X1238885Y326269D01*
X1238581Y327402D01*
X1238353Y328551D01*
X1238200Y329714D01*
X1238123Y330884D01*
X1238123Y332056D01*
X1238200Y333226D01*
X1238353Y334389D01*
X1238581Y335538D01*
X1238885Y336671D01*
X1239262Y337781D01*
X1239710Y338864D01*
X1240229Y339916D01*
X1240815Y340931D01*
X1241467Y341906D01*
X1242180Y342836D01*
X1242953Y343718D01*
X1243782Y344547D01*
X1244664Y345320D01*
X1245594Y346033D01*
X1246569Y346685D01*
X1247584Y347271D01*
X1248636Y347790D01*
X1249719Y348238D01*
X1250829Y348615D01*
X1251962Y348919D01*
X1253111Y349147D01*
X1254274Y349300D01*
X1255444Y349377D01*
X1256616Y349377D01*
X1257786Y349300D01*
X1258949Y349147D01*
X1260098Y348919D01*
X1261231Y348615D01*
X1262341Y348238D01*
X1263424Y347790D01*
X1264476Y347271D01*
X1265491Y346685D01*
X1266466Y346033D01*
X1267396Y345320D01*
X1268278Y344547D01*
X1269107Y343718D01*
X1269880Y342836D01*
X1270593Y341906D01*
X1271245Y340931D01*
X1271831Y339916D01*
X1272350Y338864D01*
X1272798Y337781D01*
X1273175Y336671D01*
X1273479Y335538D01*
X1273707Y334389D01*
X1273860Y333226D01*
X1273937Y332056D01*
X1273937Y330884D01*
X1487297Y329614D02*
X1487220Y328444D01*
X1487067Y327281D01*
X1486839Y326132D01*
X1486535Y324999D01*
X1486158Y323889D01*
X1485710Y322806D01*
X1485191Y321754D01*
X1484605Y320739D01*
X1483953Y319764D01*
X1483240Y318834D01*
X1482467Y317952D01*
X1481638Y317123D01*
X1480756Y316350D01*
X1479826Y315637D01*
X1478851Y314985D01*
X1477836Y314399D01*
X1476784Y313880D01*
X1475701Y313432D01*
X1474591Y313055D01*
X1473458Y312751D01*
X1472309Y312523D01*
X1471146Y312370D01*
X1469976Y312293D01*
X1468804Y312293D01*
X1467634Y312370D01*
X1466471Y312523D01*
X1465322Y312751D01*
X1464189Y313055D01*
X1463079Y313432D01*
X1461996Y313880D01*
X1460944Y314399D01*
X1459929Y314985D01*
X1458954Y315637D01*
X1458024Y316350D01*
X1457142Y317123D01*
X1456313Y317952D01*
X1455540Y318834D01*
X1454827Y319764D01*
X1454175Y320739D01*
X1453589Y321754D01*
X1453070Y322806D01*
X1452622Y323889D01*
X1452245Y324999D01*
X1451941Y326132D01*
X1451713Y327281D01*
X1451560Y328444D01*
X1451483Y329614D01*
X1451483Y330786D01*
X1451560Y331956D01*
X1451713Y333119D01*
X1451941Y334268D01*
X1452245Y335401D01*
X1452622Y336511D01*
X1453070Y337594D01*
X1453589Y338646D01*
X1454175Y339661D01*
X1454827Y340636D01*
X1455540Y341566D01*
X1456313Y342448D01*
X1457142Y343277D01*
X1458024Y344050D01*
X1458954Y344763D01*
X1459929Y345415D01*
X1460944Y346001D01*
X1461996Y346520D01*
X1463079Y346968D01*
X1464189Y347345D01*
X1465322Y347649D01*
X1466471Y347877D01*
X1467634Y348030D01*
X1468804Y348107D01*
X1469976Y348107D01*
X1471146Y348030D01*
X1472309Y347877D01*
X1473458Y347649D01*
X1474591Y347345D01*
X1475701Y346968D01*
X1476784Y346520D01*
X1477836Y346001D01*
X1478851Y345415D01*
X1479826Y344763D01*
X1480756Y344050D01*
X1481638Y343277D01*
X1482467Y342448D01*
X1483240Y341566D01*
X1483953Y340636D01*
X1484605Y339661D01*
X1485191Y338646D01*
X1485710Y337594D01*
X1486158Y336511D01*
X1486535Y335401D01*
X1486839Y334268D01*
X1487067Y333119D01*
X1487220Y331956D01*
X1487297Y330786D01*
X1487297Y329614D01*
M02*
