G04 EAGLE Gerber RS-274X export*
G75*
%MOMM*%
%FSLAX34Y34*%
%LPD*%
%INSolderpaste Top*%
%IPPOS*%
%AMOC8*
5,1,8,0,0,1.08239X$1,22.5*%
G01*
%ADD10R,0.600000X1.900000*%
%ADD11R,1.900000X0.600000*%


D10*
X285110Y150090D03*
X277110Y150090D03*
X269110Y150090D03*
X261110Y150090D03*
X253110Y150090D03*
X245110Y150090D03*
X237110Y150090D03*
X229110Y150090D03*
X221110Y150090D03*
X213110Y150090D03*
X205110Y150090D03*
D11*
X180110Y125090D03*
X180110Y117090D03*
X180110Y109090D03*
X180110Y101090D03*
X180110Y93090D03*
X180110Y85090D03*
X180110Y77090D03*
X180110Y69090D03*
X180110Y61090D03*
X180110Y53090D03*
X180110Y45090D03*
D10*
X205110Y20090D03*
X213110Y20090D03*
X221110Y20090D03*
X229110Y20090D03*
X237110Y20090D03*
X245110Y20090D03*
X253110Y20090D03*
X261110Y20090D03*
X269110Y20090D03*
X277110Y20090D03*
X285110Y20090D03*
D11*
X310110Y45090D03*
X310110Y53090D03*
X310110Y61090D03*
X310110Y69090D03*
X310110Y77090D03*
X310110Y85090D03*
X310110Y93090D03*
X310110Y101090D03*
X310110Y109090D03*
X310110Y117090D03*
X310110Y125090D03*
D10*
X878200Y150090D03*
X870200Y150090D03*
X862200Y150090D03*
X854200Y150090D03*
X846200Y150090D03*
X838200Y150090D03*
X830200Y150090D03*
X822200Y150090D03*
X814200Y150090D03*
X806200Y150090D03*
X798200Y150090D03*
D11*
X773200Y125090D03*
X773200Y117090D03*
X773200Y109090D03*
X773200Y101090D03*
X773200Y93090D03*
X773200Y85090D03*
X773200Y77090D03*
X773200Y69090D03*
X773200Y61090D03*
X773200Y53090D03*
X773200Y45090D03*
D10*
X798200Y20090D03*
X806200Y20090D03*
X814200Y20090D03*
X822200Y20090D03*
X830200Y20090D03*
X838200Y20090D03*
X846200Y20090D03*
X854200Y20090D03*
X862200Y20090D03*
X870200Y20090D03*
X878200Y20090D03*
D11*
X903200Y45090D03*
X903200Y53090D03*
X903200Y61090D03*
X903200Y69090D03*
X903200Y77090D03*
X903200Y85090D03*
X903200Y93090D03*
X903200Y101090D03*
X903200Y109090D03*
X903200Y117090D03*
X903200Y125090D03*
D10*
X1471290Y150090D03*
X1463290Y150090D03*
X1455290Y150090D03*
X1447290Y150090D03*
X1439290Y150090D03*
X1431290Y150090D03*
X1423290Y150090D03*
X1415290Y150090D03*
X1407290Y150090D03*
X1399290Y150090D03*
X1391290Y150090D03*
D11*
X1366290Y125090D03*
X1366290Y117090D03*
X1366290Y109090D03*
X1366290Y101090D03*
X1366290Y93090D03*
X1366290Y85090D03*
X1366290Y77090D03*
X1366290Y69090D03*
X1366290Y61090D03*
X1366290Y53090D03*
X1366290Y45090D03*
D10*
X1391290Y20090D03*
X1399290Y20090D03*
X1407290Y20090D03*
X1415290Y20090D03*
X1423290Y20090D03*
X1431290Y20090D03*
X1439290Y20090D03*
X1447290Y20090D03*
X1455290Y20090D03*
X1463290Y20090D03*
X1471290Y20090D03*
D11*
X1496290Y45090D03*
X1496290Y53090D03*
X1496290Y61090D03*
X1496290Y69090D03*
X1496290Y77090D03*
X1496290Y85090D03*
X1496290Y93090D03*
X1496290Y101090D03*
X1496290Y109090D03*
X1496290Y117090D03*
X1496290Y125090D03*
M02*
