G04 EAGLE Gerber RS-274X export*
G75*
%MOMM*%
%FSLAX34Y34*%
%LPD*%
%INTop Copper*%
%IPPOS*%
%AMOC8*
5,1,8,0,0,1.08239X$1,22.5*%
G01*
%ADD10C,1.524000*%
%ADD11C,1.108000*%
%ADD12R,1.308000X1.308000*%
%ADD13C,1.308000*%
%ADD14R,1.650000X1.650000*%
%ADD15C,1.650000*%
%ADD16C,2.250000*%
%ADD17R,1.400000X1.000000*%
%ADD18R,1.000000X1.400000*%
%ADD19C,1.108000*%
%ADD20C,1.308000*%
%ADD21C,1.016000*%
%ADD22C,0.254000*%
%ADD23C,0.756400*%
%ADD24C,0.812800*%


D10*
X1567180Y58420D02*
X1582420Y58420D01*
X1582420Y33020D02*
X1567180Y33020D01*
D11*
X330200Y417340D03*
X381000Y417340D03*
X241300Y417340D03*
X292100Y417340D03*
X152400Y417340D03*
X203200Y417340D03*
D12*
X1491000Y381000D03*
D13*
X1518500Y381000D03*
D14*
X1536700Y317500D03*
D15*
X1536700Y176500D03*
D16*
X1612900Y102900D03*
X1612900Y328900D03*
D10*
X683260Y33020D02*
X683260Y17780D01*
X657860Y17780D02*
X657860Y33020D01*
X632460Y33020D02*
X632460Y17780D01*
X607060Y17780D02*
X607060Y33020D01*
X581660Y33020D02*
X581660Y17780D01*
X556260Y17780D02*
X556260Y33020D01*
X530860Y33020D02*
X530860Y17780D01*
X505460Y17780D02*
X505460Y33020D01*
X1590700Y398780D02*
X1590700Y414020D01*
X1565300Y414020D02*
X1565300Y398780D01*
X1590700Y373380D02*
X1590700Y358140D01*
X1565300Y358140D02*
X1565300Y373380D01*
D17*
X519430Y216560D03*
X519430Y235560D03*
X990600Y324460D03*
X990600Y305460D03*
D18*
X892200Y127000D03*
X911200Y127000D03*
X892200Y101600D03*
X911200Y101600D03*
D17*
X381000Y365100D03*
X381000Y346100D03*
X292100Y365100D03*
X292100Y346100D03*
X203200Y365100D03*
X203200Y346100D03*
X596900Y324460D03*
X596900Y305460D03*
X673100Y324460D03*
X673100Y305460D03*
X698500Y324460D03*
X698500Y305460D03*
X889000Y324460D03*
X889000Y305460D03*
X965200Y324460D03*
X965200Y305460D03*
D19*
X647700Y353960D02*
X647700Y365040D01*
X673100Y365040D02*
X673100Y353960D01*
X698500Y353960D02*
X698500Y365040D01*
X596900Y365040D02*
X596900Y353960D01*
X939800Y353960D02*
X939800Y365040D01*
X965200Y365040D02*
X965200Y353960D01*
X990600Y353960D02*
X990600Y365040D01*
X889000Y365040D02*
X889000Y353960D01*
D20*
X1418900Y349060D02*
X1418900Y362140D01*
X1393500Y362140D02*
X1393500Y349060D01*
X1368100Y349060D02*
X1368100Y362140D01*
X1342700Y362140D02*
X1342700Y349060D01*
X1317300Y349060D02*
X1317300Y362140D01*
X1291900Y362140D02*
X1291900Y349060D01*
X1266500Y349060D02*
X1266500Y362140D01*
X1241100Y362140D02*
X1241100Y349060D01*
X1215700Y349060D02*
X1215700Y362140D01*
X1190300Y362140D02*
X1190300Y349060D01*
X1164900Y349060D02*
X1164900Y362140D01*
X1139500Y362140D02*
X1139500Y349060D01*
X1418900Y209740D02*
X1418900Y196660D01*
X1393500Y196660D02*
X1393500Y209740D01*
X1368100Y209740D02*
X1368100Y196660D01*
X1215700Y196660D02*
X1215700Y209740D01*
X1190300Y209740D02*
X1190300Y196660D01*
X1164900Y196660D02*
X1164900Y209740D01*
X1139500Y209740D02*
X1139500Y196660D01*
X1063300Y196660D02*
X1063300Y209740D01*
X1063300Y349060D02*
X1063300Y362140D01*
X1088700Y362140D02*
X1088700Y349060D01*
X1114100Y349060D02*
X1114100Y362140D01*
X1088700Y209740D02*
X1088700Y196660D01*
X1114100Y196660D02*
X1114100Y209740D01*
X1342700Y209740D02*
X1342700Y196660D01*
X1241100Y196660D02*
X1241100Y209740D01*
X1266500Y209740D02*
X1266500Y196660D01*
X1291900Y196660D02*
X1291900Y209740D01*
X1317300Y209740D02*
X1317300Y196660D01*
D11*
X482600Y171100D03*
X482600Y196500D03*
X482600Y221900D03*
X25400Y183800D03*
X25400Y209200D03*
D10*
X714880Y88900D02*
X730120Y88900D01*
X730120Y114300D02*
X714880Y114300D01*
X714880Y139700D02*
X730120Y139700D01*
X730120Y165100D02*
X714880Y165100D01*
X714880Y190500D02*
X730120Y190500D01*
X961080Y48800D02*
X976320Y48800D01*
X976320Y74200D02*
X961080Y74200D01*
X961080Y99600D02*
X976320Y99600D01*
X976320Y125000D02*
X961080Y125000D01*
X961080Y150400D02*
X976320Y150400D01*
X976320Y175800D02*
X961080Y175800D01*
X961080Y201200D02*
X976320Y201200D01*
X1478280Y279400D02*
X1493520Y279400D01*
X1493520Y254000D02*
X1478280Y254000D01*
X1478280Y228600D02*
X1493520Y228600D01*
D21*
X1541780Y33020D02*
X1574800Y33020D01*
X1541780Y33020D02*
X1536700Y38100D01*
X1536700Y176500D01*
X1524000Y254000D02*
X1485900Y254000D01*
X1524000Y254000D02*
X1536700Y241300D01*
X1536700Y176500D01*
X1536700Y406400D02*
X1565300Y406400D01*
X1536700Y406400D02*
X1518500Y388200D01*
X1518500Y381000D01*
X1518500Y259500D01*
X1524000Y254000D01*
D22*
X596900Y292100D02*
X596900Y305460D01*
D23*
X596900Y292100D03*
D22*
X990600Y292100D02*
X990600Y305460D01*
D23*
X990600Y292100D03*
D22*
X673100Y292100D02*
X673100Y305460D01*
D23*
X673100Y292100D03*
D22*
X698500Y292100D02*
X698500Y305460D01*
D23*
X698500Y292100D03*
D22*
X889000Y292100D02*
X889000Y305460D01*
D23*
X889000Y292100D03*
D22*
X965200Y292100D02*
X965200Y305460D01*
D23*
X965200Y292100D03*
D24*
X1534160Y25400D02*
X1541780Y33020D01*
X1534160Y25400D02*
X891540Y25400D01*
X683260Y25400D01*
X907320Y175800D02*
X968700Y175800D01*
X892200Y160680D02*
X892200Y127000D01*
X892200Y160680D02*
X907320Y175800D01*
X892200Y127000D02*
X892200Y101600D01*
X892200Y26060D01*
X891540Y25400D01*
X292100Y346100D02*
X203200Y346100D01*
X292100Y346100D02*
X381000Y346100D01*
X455270Y346100D01*
X467360Y334010D01*
X683260Y101600D02*
X683260Y25400D01*
X671830Y113030D02*
X594360Y113030D01*
D23*
X594360Y113030D03*
D24*
X671830Y113030D02*
X683260Y101600D01*
X467360Y201930D02*
X467360Y334010D01*
X472790Y196500D02*
X482600Y196500D01*
X472790Y196500D02*
X467360Y201930D01*
D22*
X596900Y324460D02*
X596900Y359500D01*
D23*
X1189990Y258176D03*
D22*
X677814Y258176D01*
X611530Y324460D02*
X596900Y324460D01*
X611530Y324460D02*
X677814Y258176D01*
X673100Y324460D02*
X673100Y359500D01*
X673100Y324460D02*
X655930Y324460D01*
X648970Y317500D01*
X648970Y295910D01*
D23*
X1215390Y264752D03*
D22*
X680128Y264752D01*
X648970Y295910D01*
X698500Y324460D02*
X698500Y359500D01*
D23*
X1240790Y271328D03*
D22*
X764992Y271328D01*
X711860Y324460D02*
X698500Y324460D01*
X711860Y324460D02*
X764992Y271328D01*
X889000Y324460D02*
X889000Y359500D01*
X889000Y324460D02*
X903630Y324460D01*
X950186Y277904D02*
X1266190Y277904D01*
D23*
X1266190Y277904D03*
D22*
X950186Y277904D02*
X903630Y324460D01*
X965200Y324460D02*
X965200Y359500D01*
X965200Y324460D02*
X946760Y324460D01*
X939800Y317500D01*
X939800Y297180D01*
X952500Y284480D01*
X1291590Y284480D01*
D23*
X1291590Y284480D03*
D22*
X990600Y324460D02*
X990600Y359500D01*
X1037590Y291440D02*
X1317300Y291440D01*
X1037590Y291440D02*
X1004570Y324460D01*
X990600Y324460D01*
X1317300Y355600D02*
X1317300Y291440D01*
X519430Y235560D02*
X519430Y403860D01*
D23*
X519430Y403860D03*
D22*
X203200Y393700D02*
X203200Y417340D01*
X203200Y393700D02*
X203200Y365100D01*
D23*
X203200Y393700D03*
D22*
X292100Y386080D02*
X292100Y417340D01*
X292100Y386080D02*
X292100Y365100D01*
D23*
X292100Y386080D03*
D22*
X381000Y381000D02*
X381000Y417340D01*
X381000Y381000D02*
X381000Y365100D01*
X381000Y381000D02*
X392430Y381000D01*
X394970Y378460D01*
X403860Y378460D01*
D23*
X403860Y378460D03*
X482600Y419100D03*
D21*
X482600Y221900D01*
X1590700Y365760D02*
X1590700Y406400D01*
X1590700Y365760D02*
X1615440Y365760D01*
X1651000Y330200D01*
X1651000Y101600D01*
X1607820Y58420D01*
X1574800Y58420D01*
D22*
X519430Y216560D02*
X519170Y216250D01*
X519430Y216560D02*
X561953Y216513D01*
X1164900Y225750D02*
X1164900Y203200D01*
X575310Y229870D02*
X561953Y216513D01*
X575310Y229870D02*
X1160780Y229870D01*
X1164900Y225750D01*
X519430Y216560D02*
X519430Y179070D01*
X511460Y171100D01*
X482600Y171100D01*
X1063300Y302570D02*
X1063300Y355600D01*
X1063300Y302570D02*
X1062990Y302260D01*
D23*
X1062990Y302260D03*
D22*
X581660Y189230D02*
X581660Y25400D01*
X609600Y217170D02*
X1019810Y217170D01*
X1056640Y180340D01*
X1134110Y180340D01*
X1139500Y185730D01*
X1139500Y203200D01*
X609600Y217170D02*
X581660Y189230D01*
X556260Y186690D02*
X556260Y25400D01*
X556260Y186690D02*
X593090Y223520D01*
X1059180Y223520D01*
X1063300Y219400D02*
X1063300Y203200D01*
X1063300Y219400D02*
X1059180Y223520D01*
D21*
X508000Y63500D02*
X58420Y63500D01*
X508000Y63500D02*
X530860Y40640D01*
X530860Y25400D01*
X40640Y193960D02*
X25400Y209200D01*
X40640Y81280D02*
X58420Y63500D01*
X40640Y81280D02*
X40640Y193960D01*
D22*
X911200Y127000D02*
X941300Y127000D01*
X943300Y125000D02*
X968700Y125000D01*
X943300Y125000D02*
X941300Y127000D01*
X968700Y125000D02*
X1229900Y125000D01*
X1241100Y136200D02*
X1241100Y203200D01*
X1241100Y136200D02*
X1229900Y125000D01*
X941300Y101600D02*
X911200Y101600D01*
X941300Y101600D02*
X943300Y99600D01*
X968700Y99600D01*
X1242600Y99600D01*
X1266500Y123500D02*
X1266500Y203200D01*
X1266500Y123500D02*
X1242600Y99600D01*
D21*
X1565300Y327000D02*
X1565300Y365760D01*
X1612900Y279400D02*
X1612900Y102900D01*
X1612900Y279400D02*
X1565300Y327000D01*
M02*
