G04 EAGLE Gerber RS-274X export*
G75*
%MOMM*%
%FSLAX34Y34*%
%LPD*%
%INSilkscreen Bottom*%
%IPPOS*%
%AMOC8*
5,1,8,0,0,1.08239X$1,22.5*%
G01*
%ADD10C,0.152400*%
%ADD11C,0.127000*%
%ADD12C,0.101600*%


D10*
X504000Y66500D02*
X4000Y66500D01*
X4000Y326500D01*
X504000Y326500D01*
X504000Y66500D01*
X325921Y318906D02*
X321405Y322518D01*
X321405Y306262D01*
X316890Y306262D02*
X325921Y306262D01*
X305323Y322518D02*
X305198Y322516D01*
X305073Y322510D01*
X304948Y322501D01*
X304824Y322487D01*
X304700Y322470D01*
X304576Y322449D01*
X304454Y322424D01*
X304332Y322395D01*
X304211Y322363D01*
X304091Y322327D01*
X303972Y322287D01*
X303855Y322244D01*
X303739Y322197D01*
X303624Y322146D01*
X303512Y322092D01*
X303400Y322034D01*
X303291Y321974D01*
X303184Y321909D01*
X303078Y321842D01*
X302975Y321771D01*
X302874Y321697D01*
X302775Y321620D01*
X302679Y321540D01*
X302585Y321457D01*
X302494Y321372D01*
X302405Y321283D01*
X302320Y321192D01*
X302237Y321098D01*
X302157Y321002D01*
X302080Y320903D01*
X302006Y320802D01*
X301935Y320699D01*
X301868Y320593D01*
X301803Y320486D01*
X301743Y320377D01*
X301685Y320265D01*
X301631Y320153D01*
X301580Y320038D01*
X301533Y319922D01*
X301490Y319805D01*
X301450Y319686D01*
X301414Y319566D01*
X301382Y319445D01*
X301353Y319323D01*
X301328Y319201D01*
X301307Y319077D01*
X301290Y318953D01*
X301276Y318829D01*
X301267Y318704D01*
X301261Y318579D01*
X301259Y318454D01*
X305323Y322518D02*
X305466Y322516D01*
X305608Y322510D01*
X305751Y322500D01*
X305893Y322487D01*
X306034Y322469D01*
X306176Y322448D01*
X306316Y322423D01*
X306456Y322394D01*
X306595Y322361D01*
X306733Y322324D01*
X306870Y322284D01*
X307005Y322240D01*
X307140Y322192D01*
X307273Y322140D01*
X307405Y322085D01*
X307535Y322026D01*
X307663Y321964D01*
X307790Y321898D01*
X307915Y321829D01*
X308038Y321757D01*
X308159Y321681D01*
X308277Y321602D01*
X308394Y321519D01*
X308508Y321434D01*
X308620Y321345D01*
X308729Y321254D01*
X308836Y321159D01*
X308941Y321062D01*
X309042Y320961D01*
X309141Y320858D01*
X309237Y320753D01*
X309330Y320644D01*
X309420Y320533D01*
X309507Y320420D01*
X309591Y320305D01*
X309671Y320187D01*
X309749Y320067D01*
X309823Y319945D01*
X309893Y319821D01*
X309961Y319695D01*
X310024Y319567D01*
X310085Y319438D01*
X310142Y319307D01*
X310195Y319175D01*
X310244Y319041D01*
X310290Y318906D01*
X302614Y315293D02*
X302520Y315385D01*
X302430Y315479D01*
X302342Y315576D01*
X302257Y315676D01*
X302175Y315778D01*
X302096Y315883D01*
X302021Y315990D01*
X301949Y316099D01*
X301880Y316210D01*
X301814Y316324D01*
X301752Y316439D01*
X301693Y316556D01*
X301638Y316675D01*
X301587Y316795D01*
X301539Y316917D01*
X301494Y317040D01*
X301454Y317164D01*
X301417Y317290D01*
X301384Y317417D01*
X301355Y317544D01*
X301329Y317673D01*
X301308Y317802D01*
X301290Y317932D01*
X301277Y318062D01*
X301267Y318192D01*
X301261Y318323D01*
X301259Y318454D01*
X302613Y315293D02*
X310290Y306262D01*
X301259Y306262D01*
X290143Y306262D02*
X295561Y322518D01*
X284724Y322518D02*
X290143Y306262D01*
X272127Y317099D02*
X266708Y317099D01*
X270321Y322518D02*
X270321Y308971D01*
X270320Y308971D02*
X270318Y308870D01*
X270312Y308769D01*
X270303Y308668D01*
X270290Y308567D01*
X270273Y308467D01*
X270252Y308368D01*
X270228Y308270D01*
X270200Y308173D01*
X270168Y308076D01*
X270133Y307981D01*
X270094Y307888D01*
X270052Y307796D01*
X270006Y307705D01*
X269957Y307617D01*
X269905Y307530D01*
X269849Y307445D01*
X269791Y307362D01*
X269729Y307282D01*
X269664Y307204D01*
X269597Y307128D01*
X269527Y307055D01*
X269454Y306985D01*
X269378Y306918D01*
X269300Y306853D01*
X269220Y306791D01*
X269137Y306733D01*
X269052Y306677D01*
X268966Y306625D01*
X268877Y306576D01*
X268786Y306530D01*
X268694Y306488D01*
X268601Y306449D01*
X268506Y306414D01*
X268409Y306382D01*
X268312Y306354D01*
X268214Y306330D01*
X268115Y306309D01*
X268015Y306292D01*
X267914Y306279D01*
X267813Y306270D01*
X267712Y306264D01*
X267611Y306262D01*
X266708Y306262D01*
X260930Y309874D02*
X260930Y313487D01*
X260929Y313487D02*
X260927Y313606D01*
X260921Y313726D01*
X260911Y313845D01*
X260897Y313963D01*
X260880Y314082D01*
X260858Y314199D01*
X260833Y314316D01*
X260803Y314431D01*
X260770Y314546D01*
X260733Y314660D01*
X260693Y314772D01*
X260648Y314883D01*
X260600Y314992D01*
X260549Y315100D01*
X260494Y315206D01*
X260435Y315310D01*
X260373Y315412D01*
X260308Y315512D01*
X260239Y315610D01*
X260167Y315706D01*
X260092Y315799D01*
X260015Y315889D01*
X259934Y315977D01*
X259850Y316062D01*
X259763Y316144D01*
X259674Y316224D01*
X259582Y316300D01*
X259488Y316374D01*
X259391Y316444D01*
X259293Y316511D01*
X259192Y316575D01*
X259088Y316635D01*
X258983Y316692D01*
X258876Y316745D01*
X258768Y316795D01*
X258658Y316841D01*
X258546Y316883D01*
X258433Y316922D01*
X258319Y316957D01*
X258204Y316988D01*
X258087Y317016D01*
X257970Y317039D01*
X257853Y317059D01*
X257734Y317075D01*
X257615Y317087D01*
X257496Y317095D01*
X257377Y317099D01*
X257257Y317099D01*
X257138Y317095D01*
X257019Y317087D01*
X256900Y317075D01*
X256781Y317059D01*
X256664Y317039D01*
X256547Y317016D01*
X256430Y316988D01*
X256315Y316957D01*
X256201Y316922D01*
X256088Y316883D01*
X255976Y316841D01*
X255866Y316795D01*
X255758Y316745D01*
X255651Y316692D01*
X255546Y316635D01*
X255442Y316575D01*
X255341Y316511D01*
X255243Y316444D01*
X255146Y316374D01*
X255052Y316300D01*
X254960Y316224D01*
X254871Y316144D01*
X254784Y316062D01*
X254700Y315977D01*
X254619Y315889D01*
X254542Y315799D01*
X254467Y315706D01*
X254395Y315610D01*
X254326Y315512D01*
X254261Y315412D01*
X254199Y315310D01*
X254140Y315206D01*
X254085Y315100D01*
X254034Y314992D01*
X253986Y314883D01*
X253941Y314772D01*
X253901Y314660D01*
X253864Y314546D01*
X253831Y314431D01*
X253801Y314316D01*
X253776Y314199D01*
X253754Y314082D01*
X253737Y313963D01*
X253723Y313845D01*
X253713Y313726D01*
X253707Y313606D01*
X253705Y313487D01*
X253705Y309874D01*
X253707Y309755D01*
X253713Y309635D01*
X253723Y309516D01*
X253737Y309398D01*
X253754Y309279D01*
X253776Y309162D01*
X253801Y309045D01*
X253831Y308930D01*
X253864Y308815D01*
X253901Y308701D01*
X253941Y308589D01*
X253986Y308478D01*
X254034Y308369D01*
X254085Y308261D01*
X254140Y308155D01*
X254199Y308051D01*
X254261Y307949D01*
X254326Y307849D01*
X254395Y307751D01*
X254467Y307655D01*
X254542Y307562D01*
X254619Y307472D01*
X254700Y307384D01*
X254784Y307299D01*
X254871Y307217D01*
X254960Y307137D01*
X255052Y307061D01*
X255146Y306987D01*
X255243Y306917D01*
X255341Y306850D01*
X255442Y306786D01*
X255546Y306726D01*
X255651Y306669D01*
X255758Y306616D01*
X255866Y306566D01*
X255976Y306520D01*
X256088Y306478D01*
X256201Y306439D01*
X256315Y306404D01*
X256430Y306373D01*
X256547Y306345D01*
X256664Y306322D01*
X256781Y306302D01*
X256900Y306286D01*
X257019Y306274D01*
X257138Y306266D01*
X257257Y306262D01*
X257377Y306262D01*
X257496Y306266D01*
X257615Y306274D01*
X257734Y306286D01*
X257853Y306302D01*
X257970Y306322D01*
X258087Y306345D01*
X258204Y306373D01*
X258319Y306404D01*
X258433Y306439D01*
X258546Y306478D01*
X258658Y306520D01*
X258768Y306566D01*
X258876Y306616D01*
X258983Y306669D01*
X259088Y306726D01*
X259192Y306786D01*
X259293Y306850D01*
X259391Y306917D01*
X259488Y306987D01*
X259582Y307061D01*
X259674Y307137D01*
X259763Y307217D01*
X259850Y307299D01*
X259934Y307384D01*
X260015Y307472D01*
X260092Y307562D01*
X260167Y307655D01*
X260239Y307751D01*
X260308Y307849D01*
X260373Y307949D01*
X260435Y308051D01*
X260494Y308155D01*
X260549Y308261D01*
X260600Y308369D01*
X260648Y308478D01*
X260693Y308589D01*
X260733Y308701D01*
X260770Y308815D01*
X260803Y308930D01*
X260833Y309045D01*
X260858Y309162D01*
X260880Y309279D01*
X260897Y309398D01*
X260911Y309516D01*
X260921Y309635D01*
X260927Y309755D01*
X260929Y309874D01*
X238907Y318906D02*
X234392Y322518D01*
X234392Y306262D01*
X238907Y306262D02*
X229876Y306262D01*
X223276Y320712D02*
X223276Y322518D01*
X214245Y322518D01*
X218760Y306262D01*
X207644Y314390D02*
X207640Y314710D01*
X207629Y315029D01*
X207610Y315349D01*
X207583Y315667D01*
X207549Y315985D01*
X207507Y316302D01*
X207457Y316618D01*
X207400Y316933D01*
X207336Y317246D01*
X207264Y317558D01*
X207185Y317868D01*
X207098Y318175D01*
X207004Y318481D01*
X206903Y318784D01*
X206794Y319085D01*
X206679Y319383D01*
X206556Y319679D01*
X206426Y319971D01*
X206289Y320260D01*
X206290Y320261D02*
X206251Y320369D01*
X206208Y320476D01*
X206162Y320581D01*
X206111Y320685D01*
X206058Y320787D01*
X206001Y320887D01*
X205940Y320985D01*
X205876Y321080D01*
X205809Y321174D01*
X205738Y321265D01*
X205665Y321354D01*
X205588Y321440D01*
X205509Y321523D01*
X205427Y321604D01*
X205342Y321682D01*
X205254Y321756D01*
X205164Y321828D01*
X205072Y321896D01*
X204977Y321962D01*
X204880Y322024D01*
X204781Y322082D01*
X204679Y322138D01*
X204577Y322189D01*
X204472Y322237D01*
X204366Y322282D01*
X204258Y322323D01*
X204149Y322360D01*
X204039Y322393D01*
X203927Y322422D01*
X203815Y322448D01*
X203702Y322470D01*
X203588Y322487D01*
X203474Y322501D01*
X203359Y322511D01*
X203244Y322517D01*
X203129Y322519D01*
X203129Y322518D02*
X203014Y322516D01*
X202899Y322510D01*
X202784Y322500D01*
X202670Y322486D01*
X202556Y322469D01*
X202443Y322447D01*
X202331Y322421D01*
X202219Y322392D01*
X202109Y322359D01*
X202000Y322322D01*
X201892Y322281D01*
X201786Y322236D01*
X201682Y322188D01*
X201579Y322137D01*
X201478Y322081D01*
X201378Y322023D01*
X201281Y321961D01*
X201187Y321896D01*
X201094Y321827D01*
X201004Y321755D01*
X200916Y321681D01*
X200831Y321603D01*
X200749Y321522D01*
X200670Y321439D01*
X200593Y321353D01*
X200520Y321264D01*
X200449Y321173D01*
X200382Y321079D01*
X200318Y320984D01*
X200257Y320886D01*
X200200Y320786D01*
X200147Y320684D01*
X200096Y320580D01*
X200050Y320475D01*
X200007Y320368D01*
X199968Y320260D01*
X199969Y320260D02*
X199832Y319971D01*
X199702Y319679D01*
X199579Y319383D01*
X199464Y319085D01*
X199355Y318784D01*
X199254Y318481D01*
X199160Y318175D01*
X199073Y317868D01*
X198994Y317558D01*
X198922Y317246D01*
X198858Y316933D01*
X198801Y316618D01*
X198751Y316302D01*
X198709Y315985D01*
X198675Y315667D01*
X198648Y315349D01*
X198629Y315029D01*
X198618Y314710D01*
X198614Y314390D01*
X207644Y314390D02*
X207640Y314070D01*
X207629Y313751D01*
X207610Y313431D01*
X207583Y313113D01*
X207549Y312795D01*
X207507Y312478D01*
X207457Y312162D01*
X207400Y311847D01*
X207336Y311534D01*
X207264Y311222D01*
X207185Y310912D01*
X207098Y310605D01*
X207004Y310299D01*
X206903Y309996D01*
X206794Y309695D01*
X206679Y309397D01*
X206556Y309101D01*
X206426Y308809D01*
X206289Y308520D01*
X206290Y308520D02*
X206251Y308412D01*
X206208Y308305D01*
X206162Y308200D01*
X206111Y308096D01*
X206058Y307994D01*
X206001Y307894D01*
X205940Y307796D01*
X205876Y307701D01*
X205809Y307607D01*
X205738Y307516D01*
X205665Y307427D01*
X205588Y307341D01*
X205509Y307258D01*
X205427Y307177D01*
X205342Y307099D01*
X205254Y307025D01*
X205164Y306953D01*
X205071Y306884D01*
X204977Y306819D01*
X204880Y306757D01*
X204780Y306699D01*
X204679Y306643D01*
X204577Y306592D01*
X204472Y306544D01*
X204366Y306499D01*
X204258Y306458D01*
X204149Y306421D01*
X204039Y306388D01*
X203927Y306359D01*
X203815Y306333D01*
X203702Y306311D01*
X203588Y306294D01*
X203474Y306280D01*
X203359Y306270D01*
X203244Y306264D01*
X203129Y306262D01*
X199969Y308520D02*
X199832Y308809D01*
X199702Y309101D01*
X199579Y309397D01*
X199464Y309695D01*
X199355Y309996D01*
X199254Y310299D01*
X199160Y310605D01*
X199073Y310912D01*
X198994Y311222D01*
X198922Y311534D01*
X198858Y311847D01*
X198801Y312162D01*
X198751Y312478D01*
X198709Y312795D01*
X198675Y313113D01*
X198648Y313431D01*
X198629Y313751D01*
X198618Y314070D01*
X198614Y314390D01*
X199968Y308520D02*
X200007Y308412D01*
X200050Y308305D01*
X200096Y308200D01*
X200147Y308096D01*
X200200Y307994D01*
X200258Y307894D01*
X200318Y307796D01*
X200382Y307701D01*
X200449Y307607D01*
X200520Y307516D01*
X200593Y307427D01*
X200670Y307341D01*
X200749Y307258D01*
X200831Y307177D01*
X200916Y307099D01*
X201004Y307025D01*
X201094Y306953D01*
X201187Y306884D01*
X201281Y306819D01*
X201378Y306757D01*
X201478Y306699D01*
X201579Y306643D01*
X201682Y306592D01*
X201786Y306544D01*
X201892Y306499D01*
X202000Y306458D01*
X202109Y306421D01*
X202219Y306388D01*
X202331Y306359D01*
X202443Y306333D01*
X202556Y306311D01*
X202670Y306294D01*
X202784Y306280D01*
X202899Y306270D01*
X203014Y306264D01*
X203129Y306262D01*
X206742Y309874D02*
X199517Y318906D01*
X192917Y322518D02*
X187498Y306262D01*
X182079Y322518D01*
X735200Y95250D02*
X735200Y82550D01*
X735200Y95250D02*
X728850Y101600D01*
X716150Y101600D02*
X709800Y95250D01*
X728850Y101600D02*
X735200Y107950D01*
X735200Y120650D01*
X728850Y127000D01*
X716150Y127000D02*
X709800Y120650D01*
X709800Y107950D01*
X716150Y101600D01*
X716150Y76200D02*
X728850Y76200D01*
X735200Y82550D01*
X716150Y76200D02*
X709800Y82550D01*
X709800Y95250D01*
X728850Y127000D02*
X735200Y133350D01*
X735200Y146050D01*
X728850Y152400D01*
X716150Y152400D02*
X709800Y146050D01*
X709800Y133350D01*
X716150Y127000D01*
X735200Y158750D02*
X735200Y171450D01*
X728850Y177800D01*
X716150Y177800D02*
X709800Y171450D01*
X728850Y177800D02*
X735200Y184150D01*
X735200Y196850D01*
X728850Y203200D01*
X716150Y203200D01*
X709800Y196850D01*
X709800Y184150D01*
X716150Y177800D01*
X735200Y158750D02*
X728850Y152400D01*
X716150Y152400D02*
X709800Y158750D01*
X709800Y171450D01*
X981400Y55150D02*
X981400Y42450D01*
X981400Y55150D02*
X975050Y61500D01*
X962350Y61500D02*
X956000Y55150D01*
X975050Y61500D02*
X981400Y67850D01*
X981400Y80550D01*
X975050Y86900D01*
X962350Y86900D02*
X956000Y80550D01*
X956000Y67850D01*
X962350Y61500D01*
X962350Y36100D02*
X975050Y36100D01*
X981400Y42450D01*
X962350Y36100D02*
X956000Y42450D01*
X956000Y55150D01*
X975050Y86900D02*
X981400Y93250D01*
X981400Y105950D01*
X975050Y112300D01*
X962350Y112300D02*
X956000Y105950D01*
X956000Y93250D01*
X962350Y86900D01*
X981400Y118650D02*
X981400Y131350D01*
X975050Y137700D01*
X962350Y137700D02*
X956000Y131350D01*
X975050Y137700D02*
X981400Y144050D01*
X981400Y156750D01*
X975050Y163100D01*
X962350Y163100D02*
X956000Y156750D01*
X956000Y144050D01*
X962350Y137700D01*
X981400Y118650D02*
X975050Y112300D01*
X962350Y112300D02*
X956000Y118650D01*
X956000Y131350D01*
X975050Y163100D02*
X981400Y169450D01*
X981400Y182150D01*
X975050Y188500D01*
X962350Y188500D02*
X956000Y182150D01*
X956000Y169450D01*
X962350Y163100D01*
X981400Y194850D02*
X981400Y207550D01*
X975050Y213900D01*
X962350Y213900D01*
X956000Y207550D01*
X975050Y188500D02*
X981400Y194850D01*
X962350Y188500D02*
X956000Y194850D01*
X956000Y207550D01*
D11*
X985200Y279400D02*
X706200Y279400D01*
X985200Y279400D02*
X985200Y4400D01*
X706200Y4400D01*
X706200Y279400D01*
D12*
X746954Y25892D02*
X746954Y14208D01*
X750199Y14208D02*
X743708Y14208D01*
X754193Y18103D02*
X754193Y25892D01*
X753868Y14857D02*
X753868Y14208D01*
X754517Y14208D01*
X754517Y14857D01*
X753868Y14857D01*
X759216Y18103D02*
X759216Y25892D01*
X759216Y18103D02*
X762462Y18103D01*
X762549Y18105D01*
X762637Y18111D01*
X762723Y18121D01*
X762810Y18134D01*
X762895Y18152D01*
X762980Y18173D01*
X763064Y18198D01*
X763146Y18227D01*
X763227Y18260D01*
X763307Y18296D01*
X763385Y18335D01*
X763461Y18379D01*
X763535Y18425D01*
X763606Y18475D01*
X763676Y18528D01*
X763743Y18584D01*
X763807Y18643D01*
X763869Y18704D01*
X763928Y18769D01*
X763984Y18836D01*
X764037Y18906D01*
X764087Y18977D01*
X764133Y19051D01*
X764177Y19127D01*
X764216Y19205D01*
X764252Y19285D01*
X764285Y19366D01*
X764314Y19448D01*
X764339Y19532D01*
X764360Y19617D01*
X764378Y19702D01*
X764391Y19789D01*
X764401Y19875D01*
X764407Y19963D01*
X764409Y20050D01*
X764409Y25892D01*
X769122Y29787D02*
X770420Y29787D01*
X774315Y18103D01*
X769122Y18103D02*
X771719Y25892D01*
X785311Y25892D02*
X785311Y14208D01*
X788556Y14208D01*
X788669Y14210D01*
X788782Y14216D01*
X788895Y14226D01*
X789008Y14240D01*
X789120Y14257D01*
X789231Y14279D01*
X789341Y14304D01*
X789451Y14334D01*
X789559Y14367D01*
X789666Y14404D01*
X789772Y14444D01*
X789876Y14489D01*
X789979Y14537D01*
X790080Y14588D01*
X790179Y14643D01*
X790276Y14701D01*
X790371Y14763D01*
X790464Y14828D01*
X790554Y14896D01*
X790642Y14967D01*
X790728Y15042D01*
X790811Y15119D01*
X790891Y15199D01*
X790968Y15282D01*
X791043Y15368D01*
X791114Y15456D01*
X791182Y15546D01*
X791247Y15639D01*
X791309Y15734D01*
X791367Y15831D01*
X791422Y15930D01*
X791473Y16031D01*
X791521Y16134D01*
X791566Y16238D01*
X791606Y16344D01*
X791643Y16451D01*
X791676Y16559D01*
X791706Y16669D01*
X791731Y16779D01*
X791753Y16890D01*
X791770Y17002D01*
X791784Y17115D01*
X791794Y17228D01*
X791800Y17341D01*
X791802Y17454D01*
X791800Y17567D01*
X791794Y17680D01*
X791784Y17793D01*
X791770Y17906D01*
X791753Y18018D01*
X791731Y18129D01*
X791706Y18239D01*
X791676Y18349D01*
X791643Y18457D01*
X791606Y18564D01*
X791566Y18670D01*
X791521Y18774D01*
X791473Y18877D01*
X791422Y18978D01*
X791367Y19077D01*
X791309Y19174D01*
X791247Y19269D01*
X791182Y19362D01*
X791114Y19452D01*
X791043Y19540D01*
X790968Y19626D01*
X790891Y19709D01*
X790811Y19789D01*
X790728Y19866D01*
X790642Y19941D01*
X790554Y20012D01*
X790464Y20080D01*
X790371Y20145D01*
X790276Y20207D01*
X790179Y20265D01*
X790080Y20320D01*
X789979Y20371D01*
X789876Y20419D01*
X789772Y20464D01*
X789666Y20504D01*
X789559Y20541D01*
X789451Y20574D01*
X789341Y20604D01*
X789231Y20629D01*
X789120Y20651D01*
X789008Y20668D01*
X788895Y20682D01*
X788782Y20692D01*
X788669Y20698D01*
X788556Y20700D01*
X788556Y20699D02*
X785311Y20699D01*
X789205Y20699D02*
X791802Y25892D01*
X799150Y25892D02*
X799150Y14208D01*
X795905Y14208D02*
X802396Y14208D01*
X809136Y25892D02*
X811733Y25892D01*
X809136Y25892D02*
X809037Y25890D01*
X808937Y25884D01*
X808838Y25875D01*
X808740Y25862D01*
X808642Y25845D01*
X808544Y25824D01*
X808448Y25799D01*
X808353Y25771D01*
X808259Y25739D01*
X808166Y25704D01*
X808074Y25665D01*
X807984Y25622D01*
X807896Y25577D01*
X807809Y25527D01*
X807725Y25475D01*
X807642Y25419D01*
X807562Y25361D01*
X807484Y25299D01*
X807409Y25234D01*
X807336Y25166D01*
X807266Y25096D01*
X807198Y25023D01*
X807133Y24948D01*
X807071Y24870D01*
X807013Y24790D01*
X806957Y24707D01*
X806905Y24623D01*
X806855Y24536D01*
X806810Y24448D01*
X806767Y24358D01*
X806728Y24266D01*
X806693Y24173D01*
X806661Y24079D01*
X806633Y23984D01*
X806608Y23888D01*
X806587Y23790D01*
X806570Y23692D01*
X806557Y23594D01*
X806548Y23495D01*
X806542Y23395D01*
X806540Y23296D01*
X806540Y16804D01*
X806539Y16804D02*
X806541Y16705D01*
X806547Y16605D01*
X806556Y16506D01*
X806569Y16408D01*
X806587Y16310D01*
X806607Y16212D01*
X806632Y16116D01*
X806660Y16020D01*
X806692Y15926D01*
X806727Y15833D01*
X806766Y15742D01*
X806809Y15652D01*
X806854Y15563D01*
X806904Y15477D01*
X806956Y15392D01*
X807012Y15310D01*
X807071Y15230D01*
X807132Y15152D01*
X807197Y15076D01*
X807265Y15003D01*
X807335Y14933D01*
X807408Y14865D01*
X807484Y14800D01*
X807562Y14739D01*
X807642Y14680D01*
X807724Y14624D01*
X807809Y14572D01*
X807895Y14523D01*
X807984Y14477D01*
X808074Y14434D01*
X808165Y14395D01*
X808258Y14360D01*
X808352Y14328D01*
X808448Y14300D01*
X808544Y14275D01*
X808642Y14255D01*
X808740Y14237D01*
X808838Y14224D01*
X808937Y14215D01*
X809036Y14209D01*
X809136Y14207D01*
X809136Y14208D02*
X811733Y14208D01*
X853633Y14208D02*
X853633Y25892D01*
X852335Y25892D02*
X854932Y25892D01*
X854932Y14208D02*
X852335Y14208D01*
X863102Y14208D02*
X863209Y14210D01*
X863315Y14216D01*
X863421Y14226D01*
X863527Y14239D01*
X863633Y14257D01*
X863737Y14278D01*
X863841Y14303D01*
X863944Y14332D01*
X864045Y14364D01*
X864145Y14401D01*
X864244Y14441D01*
X864342Y14484D01*
X864438Y14531D01*
X864532Y14582D01*
X864624Y14636D01*
X864714Y14693D01*
X864802Y14753D01*
X864887Y14817D01*
X864970Y14884D01*
X865051Y14954D01*
X865129Y15026D01*
X865205Y15102D01*
X865277Y15180D01*
X865347Y15261D01*
X865414Y15344D01*
X865478Y15429D01*
X865538Y15517D01*
X865595Y15607D01*
X865649Y15699D01*
X865700Y15793D01*
X865747Y15889D01*
X865790Y15987D01*
X865830Y16086D01*
X865867Y16186D01*
X865899Y16287D01*
X865928Y16390D01*
X865953Y16494D01*
X865974Y16598D01*
X865992Y16704D01*
X866005Y16810D01*
X866015Y16916D01*
X866021Y17022D01*
X866023Y17129D01*
X863102Y14208D02*
X862981Y14210D01*
X862860Y14216D01*
X862740Y14226D01*
X862619Y14239D01*
X862500Y14257D01*
X862380Y14278D01*
X862262Y14303D01*
X862145Y14332D01*
X862028Y14365D01*
X861913Y14401D01*
X861799Y14442D01*
X861686Y14485D01*
X861574Y14533D01*
X861465Y14584D01*
X861357Y14639D01*
X861250Y14697D01*
X861146Y14758D01*
X861044Y14823D01*
X860944Y14891D01*
X860846Y14962D01*
X860750Y15036D01*
X860657Y15113D01*
X860567Y15194D01*
X860479Y15277D01*
X860394Y15363D01*
X860311Y15452D01*
X860232Y15543D01*
X860155Y15637D01*
X860082Y15733D01*
X860012Y15831D01*
X859945Y15932D01*
X859881Y16035D01*
X859821Y16140D01*
X859763Y16247D01*
X859710Y16355D01*
X859660Y16465D01*
X859614Y16577D01*
X859571Y16690D01*
X859532Y16805D01*
X865049Y19401D02*
X865128Y19323D01*
X865204Y19243D01*
X865277Y19160D01*
X865347Y19074D01*
X865414Y18987D01*
X865478Y18896D01*
X865538Y18804D01*
X865596Y18710D01*
X865650Y18613D01*
X865700Y18515D01*
X865747Y18415D01*
X865791Y18314D01*
X865831Y18211D01*
X865867Y18106D01*
X865899Y18001D01*
X865928Y17894D01*
X865953Y17787D01*
X865975Y17678D01*
X865992Y17569D01*
X866006Y17460D01*
X866015Y17350D01*
X866021Y17239D01*
X866023Y17129D01*
X865049Y19401D02*
X859532Y25892D01*
X866023Y25892D01*
X873525Y25892D02*
X876122Y25892D01*
X873525Y25892D02*
X873426Y25890D01*
X873326Y25884D01*
X873227Y25875D01*
X873129Y25862D01*
X873031Y25845D01*
X872933Y25824D01*
X872837Y25799D01*
X872742Y25771D01*
X872648Y25739D01*
X872555Y25704D01*
X872463Y25665D01*
X872373Y25622D01*
X872285Y25577D01*
X872198Y25527D01*
X872114Y25475D01*
X872031Y25419D01*
X871951Y25361D01*
X871873Y25299D01*
X871798Y25234D01*
X871725Y25166D01*
X871655Y25096D01*
X871587Y25023D01*
X871522Y24948D01*
X871460Y24870D01*
X871402Y24790D01*
X871346Y24707D01*
X871294Y24623D01*
X871244Y24536D01*
X871199Y24448D01*
X871156Y24358D01*
X871117Y24266D01*
X871082Y24173D01*
X871050Y24079D01*
X871022Y23984D01*
X870997Y23888D01*
X870976Y23790D01*
X870959Y23692D01*
X870946Y23594D01*
X870937Y23495D01*
X870931Y23395D01*
X870929Y23296D01*
X870929Y16804D01*
X870928Y16804D02*
X870930Y16705D01*
X870936Y16605D01*
X870945Y16506D01*
X870958Y16408D01*
X870976Y16310D01*
X870996Y16212D01*
X871021Y16116D01*
X871049Y16020D01*
X871081Y15926D01*
X871116Y15833D01*
X871155Y15742D01*
X871198Y15652D01*
X871243Y15563D01*
X871293Y15477D01*
X871345Y15392D01*
X871401Y15310D01*
X871460Y15230D01*
X871521Y15152D01*
X871586Y15076D01*
X871654Y15003D01*
X871724Y14933D01*
X871797Y14865D01*
X871873Y14800D01*
X871951Y14739D01*
X872031Y14680D01*
X872113Y14624D01*
X872198Y14572D01*
X872284Y14523D01*
X872373Y14477D01*
X872463Y14434D01*
X872554Y14395D01*
X872647Y14360D01*
X872741Y14328D01*
X872837Y14300D01*
X872933Y14275D01*
X873031Y14255D01*
X873129Y14237D01*
X873227Y14224D01*
X873326Y14215D01*
X873425Y14209D01*
X873525Y14207D01*
X873525Y14208D02*
X876122Y14208D01*
X887077Y18103D02*
X887077Y25892D01*
X887077Y18103D02*
X892919Y18103D01*
X893006Y18105D01*
X893094Y18111D01*
X893180Y18121D01*
X893267Y18134D01*
X893352Y18152D01*
X893437Y18173D01*
X893521Y18198D01*
X893603Y18227D01*
X893684Y18260D01*
X893764Y18296D01*
X893842Y18335D01*
X893918Y18379D01*
X893992Y18425D01*
X894063Y18475D01*
X894133Y18528D01*
X894200Y18584D01*
X894264Y18643D01*
X894326Y18705D01*
X894385Y18769D01*
X894441Y18836D01*
X894494Y18906D01*
X894544Y18977D01*
X894590Y19051D01*
X894634Y19127D01*
X894673Y19205D01*
X894709Y19285D01*
X894742Y19366D01*
X894771Y19448D01*
X894796Y19532D01*
X894817Y19617D01*
X894835Y19702D01*
X894848Y19789D01*
X894858Y19875D01*
X894864Y19963D01*
X894866Y20050D01*
X894866Y25892D01*
X890971Y25892D02*
X890971Y18103D01*
X900186Y20699D02*
X900186Y23296D01*
X900186Y20699D02*
X900188Y20598D01*
X900194Y20498D01*
X900204Y20398D01*
X900217Y20298D01*
X900235Y20199D01*
X900256Y20100D01*
X900281Y20003D01*
X900310Y19906D01*
X900343Y19811D01*
X900379Y19717D01*
X900419Y19625D01*
X900462Y19534D01*
X900509Y19445D01*
X900559Y19358D01*
X900613Y19272D01*
X900670Y19189D01*
X900730Y19109D01*
X900793Y19030D01*
X900860Y18954D01*
X900929Y18881D01*
X901001Y18811D01*
X901075Y18743D01*
X901152Y18678D01*
X901232Y18617D01*
X901314Y18558D01*
X901398Y18503D01*
X901484Y18451D01*
X901572Y18402D01*
X901662Y18357D01*
X901754Y18315D01*
X901847Y18277D01*
X901942Y18243D01*
X902037Y18212D01*
X902134Y18185D01*
X902232Y18162D01*
X902331Y18142D01*
X902431Y18127D01*
X902531Y18115D01*
X902631Y18107D01*
X902732Y18103D01*
X902832Y18103D01*
X902933Y18107D01*
X903033Y18115D01*
X903133Y18127D01*
X903233Y18142D01*
X903332Y18162D01*
X903430Y18185D01*
X903527Y18212D01*
X903622Y18243D01*
X903717Y18277D01*
X903810Y18315D01*
X903902Y18357D01*
X903992Y18402D01*
X904080Y18451D01*
X904166Y18503D01*
X904250Y18558D01*
X904332Y18617D01*
X904412Y18678D01*
X904489Y18743D01*
X904563Y18811D01*
X904635Y18881D01*
X904704Y18954D01*
X904771Y19030D01*
X904834Y19109D01*
X904894Y19189D01*
X904951Y19272D01*
X905005Y19358D01*
X905055Y19445D01*
X905102Y19534D01*
X905145Y19625D01*
X905185Y19717D01*
X905221Y19811D01*
X905254Y19906D01*
X905283Y20003D01*
X905308Y20100D01*
X905329Y20199D01*
X905347Y20298D01*
X905360Y20398D01*
X905370Y20498D01*
X905376Y20598D01*
X905378Y20699D01*
X905379Y20699D02*
X905379Y23296D01*
X905378Y23296D02*
X905376Y23397D01*
X905370Y23497D01*
X905360Y23597D01*
X905347Y23697D01*
X905329Y23796D01*
X905308Y23895D01*
X905283Y23992D01*
X905254Y24089D01*
X905221Y24184D01*
X905185Y24278D01*
X905145Y24370D01*
X905102Y24461D01*
X905055Y24550D01*
X905005Y24637D01*
X904951Y24723D01*
X904894Y24806D01*
X904834Y24886D01*
X904771Y24965D01*
X904704Y25041D01*
X904635Y25114D01*
X904563Y25184D01*
X904489Y25252D01*
X904412Y25317D01*
X904332Y25378D01*
X904250Y25437D01*
X904166Y25492D01*
X904080Y25544D01*
X903992Y25593D01*
X903902Y25638D01*
X903810Y25680D01*
X903717Y25718D01*
X903622Y25752D01*
X903527Y25783D01*
X903430Y25810D01*
X903332Y25833D01*
X903233Y25853D01*
X903133Y25868D01*
X903033Y25880D01*
X902933Y25888D01*
X902832Y25892D01*
X902732Y25892D01*
X902631Y25888D01*
X902531Y25880D01*
X902431Y25868D01*
X902331Y25853D01*
X902232Y25833D01*
X902134Y25810D01*
X902037Y25783D01*
X901942Y25752D01*
X901847Y25718D01*
X901754Y25680D01*
X901662Y25638D01*
X901572Y25593D01*
X901484Y25544D01*
X901398Y25492D01*
X901314Y25437D01*
X901232Y25378D01*
X901152Y25317D01*
X901075Y25252D01*
X901001Y25184D01*
X900929Y25114D01*
X900860Y25041D01*
X900793Y24965D01*
X900730Y24886D01*
X900670Y24806D01*
X900613Y24723D01*
X900559Y24637D01*
X900509Y24550D01*
X900462Y24461D01*
X900419Y24370D01*
X900379Y24278D01*
X900343Y24184D01*
X900310Y24089D01*
X900281Y23992D01*
X900256Y23895D01*
X900235Y23796D01*
X900217Y23697D01*
X900204Y23597D01*
X900194Y23497D01*
X900188Y23397D01*
X900186Y23296D01*
X915226Y25892D02*
X915226Y14208D01*
X915226Y25892D02*
X911980Y25892D01*
X911893Y25890D01*
X911805Y25884D01*
X911719Y25874D01*
X911632Y25861D01*
X911547Y25843D01*
X911462Y25822D01*
X911378Y25797D01*
X911296Y25768D01*
X911215Y25735D01*
X911135Y25699D01*
X911057Y25660D01*
X910981Y25616D01*
X910907Y25570D01*
X910836Y25520D01*
X910766Y25467D01*
X910699Y25411D01*
X910635Y25352D01*
X910573Y25290D01*
X910514Y25226D01*
X910458Y25159D01*
X910405Y25089D01*
X910355Y25018D01*
X910309Y24944D01*
X910265Y24868D01*
X910226Y24790D01*
X910190Y24710D01*
X910157Y24629D01*
X910128Y24547D01*
X910103Y24463D01*
X910082Y24378D01*
X910064Y24293D01*
X910051Y24206D01*
X910041Y24120D01*
X910035Y24032D01*
X910033Y23945D01*
X910033Y20050D01*
X910035Y19963D01*
X910041Y19875D01*
X910051Y19789D01*
X910064Y19702D01*
X910082Y19617D01*
X910103Y19532D01*
X910128Y19448D01*
X910157Y19366D01*
X910190Y19285D01*
X910226Y19205D01*
X910265Y19127D01*
X910309Y19051D01*
X910355Y18977D01*
X910405Y18906D01*
X910458Y18836D01*
X910514Y18769D01*
X910573Y18705D01*
X910635Y18643D01*
X910699Y18584D01*
X910766Y18528D01*
X910836Y18475D01*
X910907Y18425D01*
X910981Y18379D01*
X911057Y18335D01*
X911135Y18296D01*
X911215Y18260D01*
X911296Y18227D01*
X911378Y18198D01*
X911462Y18173D01*
X911547Y18152D01*
X911632Y18134D01*
X911719Y18121D01*
X911805Y18111D01*
X911893Y18105D01*
X911980Y18103D01*
X915226Y18103D01*
X920760Y18103D02*
X920760Y23945D01*
X920762Y24032D01*
X920768Y24120D01*
X920778Y24206D01*
X920791Y24293D01*
X920809Y24378D01*
X920830Y24463D01*
X920855Y24547D01*
X920884Y24629D01*
X920917Y24710D01*
X920953Y24790D01*
X920992Y24868D01*
X921036Y24944D01*
X921082Y25018D01*
X921132Y25089D01*
X921185Y25159D01*
X921241Y25226D01*
X921300Y25290D01*
X921362Y25352D01*
X921426Y25411D01*
X921493Y25467D01*
X921563Y25520D01*
X921634Y25570D01*
X921708Y25616D01*
X921784Y25660D01*
X921862Y25699D01*
X921942Y25735D01*
X922023Y25768D01*
X922105Y25797D01*
X922189Y25822D01*
X922274Y25843D01*
X922359Y25861D01*
X922446Y25874D01*
X922532Y25884D01*
X922620Y25890D01*
X922707Y25892D01*
X925953Y25892D01*
X925953Y18103D01*
X931197Y14208D02*
X931197Y23945D01*
X931199Y24032D01*
X931205Y24120D01*
X931215Y24206D01*
X931228Y24293D01*
X931246Y24378D01*
X931267Y24463D01*
X931292Y24547D01*
X931321Y24629D01*
X931354Y24710D01*
X931390Y24790D01*
X931429Y24868D01*
X931473Y24944D01*
X931519Y25018D01*
X931569Y25089D01*
X931622Y25159D01*
X931678Y25226D01*
X931737Y25290D01*
X931799Y25352D01*
X931863Y25411D01*
X931930Y25467D01*
X932000Y25520D01*
X932071Y25570D01*
X932145Y25616D01*
X932221Y25660D01*
X932299Y25699D01*
X932379Y25735D01*
X932460Y25768D01*
X932542Y25797D01*
X932626Y25822D01*
X932711Y25843D01*
X932796Y25861D01*
X932883Y25874D01*
X932969Y25884D01*
X933057Y25890D01*
X933144Y25892D01*
X939090Y25892D02*
X942336Y25892D01*
X939090Y25892D02*
X939003Y25890D01*
X938915Y25884D01*
X938829Y25874D01*
X938742Y25861D01*
X938657Y25843D01*
X938572Y25822D01*
X938488Y25797D01*
X938406Y25768D01*
X938325Y25735D01*
X938245Y25699D01*
X938167Y25660D01*
X938091Y25616D01*
X938017Y25570D01*
X937946Y25520D01*
X937876Y25467D01*
X937809Y25411D01*
X937745Y25352D01*
X937683Y25290D01*
X937624Y25226D01*
X937568Y25159D01*
X937515Y25089D01*
X937465Y25018D01*
X937419Y24944D01*
X937375Y24868D01*
X937336Y24790D01*
X937300Y24710D01*
X937267Y24629D01*
X937238Y24547D01*
X937213Y24463D01*
X937192Y24378D01*
X937174Y24293D01*
X937161Y24206D01*
X937151Y24120D01*
X937145Y24032D01*
X937143Y23945D01*
X937143Y20699D01*
X937145Y20598D01*
X937151Y20498D01*
X937161Y20398D01*
X937174Y20298D01*
X937192Y20199D01*
X937213Y20100D01*
X937238Y20003D01*
X937267Y19906D01*
X937300Y19811D01*
X937336Y19717D01*
X937376Y19625D01*
X937419Y19534D01*
X937466Y19445D01*
X937516Y19358D01*
X937570Y19272D01*
X937627Y19189D01*
X937687Y19109D01*
X937750Y19030D01*
X937817Y18954D01*
X937886Y18881D01*
X937958Y18811D01*
X938032Y18743D01*
X938109Y18678D01*
X938189Y18617D01*
X938271Y18558D01*
X938355Y18503D01*
X938441Y18451D01*
X938529Y18402D01*
X938619Y18357D01*
X938711Y18315D01*
X938804Y18277D01*
X938899Y18243D01*
X938994Y18212D01*
X939091Y18185D01*
X939189Y18162D01*
X939288Y18142D01*
X939388Y18127D01*
X939488Y18115D01*
X939588Y18107D01*
X939689Y18103D01*
X939789Y18103D01*
X939890Y18107D01*
X939990Y18115D01*
X940090Y18127D01*
X940190Y18142D01*
X940289Y18162D01*
X940387Y18185D01*
X940484Y18212D01*
X940579Y18243D01*
X940674Y18277D01*
X940767Y18315D01*
X940859Y18357D01*
X940949Y18402D01*
X941037Y18451D01*
X941123Y18503D01*
X941207Y18558D01*
X941289Y18617D01*
X941369Y18678D01*
X941446Y18743D01*
X941520Y18811D01*
X941592Y18881D01*
X941661Y18954D01*
X941728Y19030D01*
X941791Y19109D01*
X941851Y19189D01*
X941908Y19272D01*
X941962Y19358D01*
X942012Y19445D01*
X942059Y19534D01*
X942102Y19625D01*
X942142Y19717D01*
X942178Y19811D01*
X942211Y19906D01*
X942240Y20003D01*
X942265Y20100D01*
X942286Y20199D01*
X942304Y20298D01*
X942317Y20398D01*
X942327Y20498D01*
X942333Y20598D01*
X942335Y20699D01*
X942336Y20699D02*
X942336Y21997D01*
X937143Y21997D01*
X948023Y21348D02*
X951268Y22646D01*
X948023Y21349D02*
X947948Y21316D01*
X947874Y21280D01*
X947802Y21241D01*
X947732Y21198D01*
X947665Y21152D01*
X947599Y21102D01*
X947537Y21050D01*
X947476Y20994D01*
X947419Y20936D01*
X947364Y20875D01*
X947313Y20811D01*
X947265Y20745D01*
X947220Y20676D01*
X947178Y20606D01*
X947140Y20533D01*
X947105Y20459D01*
X947074Y20383D01*
X947047Y20306D01*
X947024Y20227D01*
X947004Y20148D01*
X946989Y20067D01*
X946977Y19986D01*
X946969Y19904D01*
X946965Y19823D01*
X946966Y19741D01*
X946970Y19659D01*
X946978Y19577D01*
X946990Y19496D01*
X947006Y19416D01*
X947026Y19336D01*
X947050Y19258D01*
X947078Y19181D01*
X947109Y19105D01*
X947144Y19031D01*
X947182Y18959D01*
X947224Y18888D01*
X947270Y18820D01*
X947318Y18754D01*
X947370Y18691D01*
X947425Y18630D01*
X947483Y18572D01*
X947543Y18516D01*
X947606Y18464D01*
X947672Y18415D01*
X947740Y18369D01*
X947810Y18327D01*
X947882Y18287D01*
X947956Y18252D01*
X948031Y18220D01*
X948108Y18192D01*
X948186Y18168D01*
X948266Y18147D01*
X948346Y18130D01*
X948427Y18118D01*
X948508Y18109D01*
X948590Y18104D01*
X948672Y18103D01*
X948671Y18103D02*
X948848Y18107D01*
X949025Y18116D01*
X949202Y18130D01*
X949379Y18147D01*
X949554Y18169D01*
X949730Y18194D01*
X949904Y18225D01*
X950078Y18259D01*
X950251Y18297D01*
X950423Y18340D01*
X950594Y18387D01*
X950764Y18437D01*
X950933Y18492D01*
X951100Y18551D01*
X951266Y18614D01*
X951430Y18681D01*
X951592Y18752D01*
X951268Y22646D02*
X951343Y22679D01*
X951417Y22715D01*
X951489Y22754D01*
X951559Y22797D01*
X951626Y22843D01*
X951692Y22893D01*
X951754Y22945D01*
X951815Y23001D01*
X951872Y23059D01*
X951927Y23120D01*
X951978Y23184D01*
X952026Y23250D01*
X952071Y23319D01*
X952113Y23389D01*
X952151Y23462D01*
X952186Y23536D01*
X952217Y23612D01*
X952244Y23689D01*
X952267Y23768D01*
X952287Y23848D01*
X952302Y23928D01*
X952314Y24009D01*
X952322Y24091D01*
X952326Y24172D01*
X952325Y24254D01*
X952321Y24336D01*
X952313Y24418D01*
X952301Y24499D01*
X952285Y24579D01*
X952265Y24659D01*
X952241Y24737D01*
X952213Y24814D01*
X952182Y24890D01*
X952147Y24964D01*
X952109Y25036D01*
X952067Y25107D01*
X952021Y25175D01*
X951973Y25241D01*
X951921Y25304D01*
X951866Y25365D01*
X951808Y25423D01*
X951748Y25479D01*
X951685Y25531D01*
X951619Y25580D01*
X951551Y25626D01*
X951481Y25668D01*
X951409Y25708D01*
X951335Y25743D01*
X951260Y25775D01*
X951183Y25803D01*
X951105Y25827D01*
X951025Y25848D01*
X950945Y25865D01*
X950864Y25877D01*
X950783Y25886D01*
X950701Y25891D01*
X950619Y25892D01*
X950359Y25885D01*
X950099Y25872D01*
X949839Y25853D01*
X949580Y25828D01*
X949321Y25796D01*
X949064Y25759D01*
X948807Y25715D01*
X948551Y25666D01*
X948297Y25610D01*
X948044Y25549D01*
X947793Y25481D01*
X947543Y25407D01*
X947295Y25328D01*
X947049Y25243D01*
X742708Y82208D02*
X742708Y93892D01*
X742708Y82208D02*
X745954Y82208D01*
X746067Y82210D01*
X746180Y82216D01*
X746293Y82226D01*
X746406Y82240D01*
X746518Y82257D01*
X746629Y82279D01*
X746739Y82304D01*
X746849Y82334D01*
X746957Y82367D01*
X747064Y82404D01*
X747170Y82444D01*
X747274Y82489D01*
X747377Y82537D01*
X747478Y82588D01*
X747577Y82643D01*
X747674Y82701D01*
X747769Y82763D01*
X747862Y82828D01*
X747952Y82896D01*
X748040Y82967D01*
X748126Y83042D01*
X748209Y83119D01*
X748289Y83199D01*
X748366Y83282D01*
X748441Y83368D01*
X748512Y83456D01*
X748580Y83546D01*
X748645Y83639D01*
X748707Y83734D01*
X748765Y83831D01*
X748820Y83930D01*
X748871Y84031D01*
X748919Y84134D01*
X748964Y84238D01*
X749004Y84344D01*
X749041Y84451D01*
X749074Y84559D01*
X749104Y84669D01*
X749129Y84779D01*
X749151Y84890D01*
X749168Y85002D01*
X749182Y85115D01*
X749192Y85228D01*
X749198Y85341D01*
X749200Y85454D01*
X749199Y85454D02*
X749199Y90646D01*
X749200Y90646D02*
X749198Y90759D01*
X749192Y90872D01*
X749182Y90985D01*
X749168Y91098D01*
X749151Y91210D01*
X749129Y91321D01*
X749104Y91431D01*
X749074Y91541D01*
X749041Y91649D01*
X749004Y91756D01*
X748964Y91862D01*
X748919Y91966D01*
X748871Y92069D01*
X748820Y92170D01*
X748765Y92269D01*
X748707Y92366D01*
X748645Y92461D01*
X748580Y92554D01*
X748512Y92644D01*
X748441Y92732D01*
X748366Y92818D01*
X748289Y92901D01*
X748209Y92981D01*
X748126Y93058D01*
X748040Y93133D01*
X747952Y93204D01*
X747862Y93272D01*
X747769Y93337D01*
X747674Y93399D01*
X747577Y93457D01*
X747478Y93512D01*
X747377Y93563D01*
X747274Y93611D01*
X747170Y93656D01*
X747064Y93696D01*
X746957Y93733D01*
X746849Y93766D01*
X746739Y93796D01*
X746629Y93821D01*
X746518Y93843D01*
X746406Y93860D01*
X746293Y93874D01*
X746180Y93884D01*
X746067Y93890D01*
X745954Y93892D01*
X742708Y93892D01*
X758033Y93892D02*
X758132Y93890D01*
X758232Y93884D01*
X758331Y93875D01*
X758429Y93862D01*
X758527Y93845D01*
X758625Y93824D01*
X758721Y93799D01*
X758816Y93771D01*
X758910Y93739D01*
X759003Y93704D01*
X759095Y93665D01*
X759185Y93622D01*
X759273Y93577D01*
X759360Y93527D01*
X759444Y93475D01*
X759527Y93419D01*
X759607Y93361D01*
X759685Y93299D01*
X759760Y93234D01*
X759833Y93166D01*
X759903Y93096D01*
X759971Y93023D01*
X760036Y92948D01*
X760098Y92870D01*
X760156Y92790D01*
X760212Y92707D01*
X760264Y92623D01*
X760314Y92536D01*
X760359Y92448D01*
X760402Y92358D01*
X760441Y92266D01*
X760476Y92173D01*
X760508Y92079D01*
X760536Y91984D01*
X760561Y91888D01*
X760582Y91790D01*
X760599Y91692D01*
X760612Y91594D01*
X760621Y91495D01*
X760627Y91395D01*
X760629Y91296D01*
X758033Y93892D02*
X757889Y93890D01*
X757744Y93884D01*
X757600Y93875D01*
X757457Y93862D01*
X757313Y93845D01*
X757170Y93824D01*
X757028Y93799D01*
X756887Y93771D01*
X756746Y93739D01*
X756606Y93703D01*
X756467Y93664D01*
X756329Y93621D01*
X756193Y93574D01*
X756057Y93524D01*
X755923Y93470D01*
X755791Y93413D01*
X755660Y93352D01*
X755531Y93288D01*
X755403Y93220D01*
X755277Y93150D01*
X755153Y93075D01*
X755032Y92998D01*
X754912Y92917D01*
X754794Y92834D01*
X754679Y92747D01*
X754566Y92657D01*
X754455Y92564D01*
X754347Y92469D01*
X754241Y92370D01*
X754138Y92269D01*
X754463Y84804D02*
X754465Y84705D01*
X754471Y84605D01*
X754480Y84506D01*
X754493Y84408D01*
X754510Y84310D01*
X754531Y84212D01*
X754556Y84116D01*
X754584Y84021D01*
X754616Y83927D01*
X754651Y83834D01*
X754690Y83742D01*
X754733Y83652D01*
X754778Y83564D01*
X754828Y83477D01*
X754880Y83393D01*
X754936Y83310D01*
X754994Y83230D01*
X755056Y83152D01*
X755121Y83077D01*
X755189Y83004D01*
X755259Y82934D01*
X755332Y82866D01*
X755407Y82801D01*
X755485Y82739D01*
X755565Y82681D01*
X755648Y82625D01*
X755732Y82573D01*
X755819Y82523D01*
X755907Y82478D01*
X755997Y82435D01*
X756089Y82396D01*
X756182Y82361D01*
X756276Y82329D01*
X756371Y82301D01*
X756467Y82276D01*
X756565Y82255D01*
X756663Y82238D01*
X756761Y82225D01*
X756860Y82216D01*
X756960Y82210D01*
X757059Y82208D01*
X757195Y82210D01*
X757331Y82216D01*
X757467Y82225D01*
X757603Y82238D01*
X757738Y82256D01*
X757872Y82276D01*
X758006Y82301D01*
X758140Y82329D01*
X758272Y82362D01*
X758403Y82397D01*
X758534Y82437D01*
X758663Y82480D01*
X758791Y82526D01*
X758917Y82577D01*
X759043Y82630D01*
X759166Y82688D01*
X759288Y82748D01*
X759408Y82812D01*
X759527Y82880D01*
X759643Y82950D01*
X759757Y83024D01*
X759870Y83101D01*
X759980Y83182D01*
X755760Y87076D02*
X755674Y87023D01*
X755590Y86966D01*
X755508Y86907D01*
X755428Y86844D01*
X755351Y86778D01*
X755276Y86710D01*
X755204Y86638D01*
X755135Y86564D01*
X755069Y86487D01*
X755006Y86408D01*
X754946Y86326D01*
X754889Y86242D01*
X754835Y86156D01*
X754785Y86068D01*
X754738Y85978D01*
X754694Y85887D01*
X754655Y85793D01*
X754618Y85699D01*
X754586Y85603D01*
X754557Y85505D01*
X754532Y85407D01*
X754511Y85308D01*
X754493Y85208D01*
X754480Y85108D01*
X754470Y85007D01*
X754464Y84905D01*
X754462Y84804D01*
X759331Y89024D02*
X759417Y89077D01*
X759501Y89134D01*
X759583Y89193D01*
X759663Y89256D01*
X759740Y89322D01*
X759815Y89390D01*
X759887Y89462D01*
X759956Y89536D01*
X760022Y89613D01*
X760085Y89692D01*
X760145Y89774D01*
X760202Y89858D01*
X760256Y89944D01*
X760306Y90032D01*
X760353Y90122D01*
X760397Y90213D01*
X760436Y90307D01*
X760473Y90401D01*
X760505Y90497D01*
X760534Y90595D01*
X760559Y90693D01*
X760580Y90792D01*
X760598Y90892D01*
X760611Y90992D01*
X760621Y91093D01*
X760627Y91195D01*
X760629Y91296D01*
X759331Y89024D02*
X755761Y87076D01*
X749199Y116296D02*
X749197Y116395D01*
X749191Y116495D01*
X749182Y116594D01*
X749169Y116692D01*
X749152Y116790D01*
X749131Y116888D01*
X749106Y116984D01*
X749078Y117079D01*
X749046Y117173D01*
X749011Y117266D01*
X748972Y117358D01*
X748929Y117448D01*
X748884Y117536D01*
X748834Y117623D01*
X748782Y117707D01*
X748726Y117790D01*
X748668Y117870D01*
X748606Y117948D01*
X748541Y118023D01*
X748473Y118096D01*
X748403Y118166D01*
X748330Y118234D01*
X748255Y118299D01*
X748177Y118361D01*
X748097Y118419D01*
X748014Y118475D01*
X747930Y118527D01*
X747843Y118577D01*
X747755Y118622D01*
X747665Y118665D01*
X747573Y118704D01*
X747480Y118739D01*
X747386Y118771D01*
X747291Y118799D01*
X747195Y118824D01*
X747097Y118845D01*
X746999Y118862D01*
X746901Y118875D01*
X746802Y118884D01*
X746702Y118890D01*
X746603Y118892D01*
X746459Y118890D01*
X746314Y118884D01*
X746170Y118875D01*
X746027Y118862D01*
X745883Y118845D01*
X745740Y118824D01*
X745598Y118799D01*
X745457Y118771D01*
X745316Y118739D01*
X745176Y118703D01*
X745037Y118664D01*
X744899Y118621D01*
X744763Y118574D01*
X744627Y118524D01*
X744493Y118470D01*
X744361Y118413D01*
X744230Y118352D01*
X744101Y118288D01*
X743973Y118220D01*
X743847Y118150D01*
X743723Y118075D01*
X743602Y117998D01*
X743482Y117917D01*
X743364Y117834D01*
X743249Y117747D01*
X743136Y117657D01*
X743025Y117564D01*
X742917Y117469D01*
X742811Y117370D01*
X742708Y117269D01*
X743033Y109804D02*
X743035Y109705D01*
X743041Y109605D01*
X743050Y109506D01*
X743063Y109408D01*
X743080Y109310D01*
X743101Y109212D01*
X743126Y109116D01*
X743154Y109021D01*
X743186Y108927D01*
X743221Y108834D01*
X743260Y108742D01*
X743303Y108652D01*
X743348Y108564D01*
X743398Y108477D01*
X743450Y108393D01*
X743506Y108310D01*
X743564Y108230D01*
X743626Y108152D01*
X743691Y108077D01*
X743759Y108004D01*
X743829Y107934D01*
X743902Y107866D01*
X743977Y107801D01*
X744055Y107739D01*
X744135Y107681D01*
X744218Y107625D01*
X744302Y107573D01*
X744389Y107523D01*
X744477Y107478D01*
X744567Y107435D01*
X744659Y107396D01*
X744752Y107361D01*
X744846Y107329D01*
X744941Y107301D01*
X745037Y107276D01*
X745135Y107255D01*
X745233Y107238D01*
X745331Y107225D01*
X745430Y107216D01*
X745530Y107210D01*
X745629Y107208D01*
X745765Y107210D01*
X745901Y107216D01*
X746037Y107225D01*
X746173Y107238D01*
X746308Y107256D01*
X746442Y107276D01*
X746576Y107301D01*
X746710Y107329D01*
X746842Y107362D01*
X746973Y107397D01*
X747104Y107437D01*
X747233Y107480D01*
X747361Y107526D01*
X747487Y107577D01*
X747613Y107630D01*
X747736Y107688D01*
X747858Y107748D01*
X747978Y107812D01*
X748097Y107880D01*
X748213Y107950D01*
X748327Y108024D01*
X748440Y108101D01*
X748550Y108182D01*
X744331Y112076D02*
X744245Y112023D01*
X744161Y111966D01*
X744079Y111907D01*
X743999Y111844D01*
X743922Y111778D01*
X743847Y111710D01*
X743775Y111638D01*
X743706Y111564D01*
X743640Y111487D01*
X743577Y111408D01*
X743517Y111326D01*
X743460Y111242D01*
X743406Y111156D01*
X743356Y111068D01*
X743309Y110978D01*
X743265Y110887D01*
X743226Y110793D01*
X743189Y110699D01*
X743157Y110603D01*
X743128Y110505D01*
X743103Y110407D01*
X743082Y110308D01*
X743064Y110208D01*
X743051Y110108D01*
X743041Y110007D01*
X743035Y109905D01*
X743033Y109804D01*
X747901Y114024D02*
X747987Y114077D01*
X748071Y114134D01*
X748153Y114193D01*
X748233Y114256D01*
X748310Y114322D01*
X748385Y114390D01*
X748457Y114462D01*
X748526Y114536D01*
X748592Y114613D01*
X748655Y114692D01*
X748715Y114774D01*
X748772Y114858D01*
X748826Y114944D01*
X748876Y115032D01*
X748923Y115122D01*
X748967Y115213D01*
X749006Y115307D01*
X749043Y115401D01*
X749075Y115497D01*
X749104Y115595D01*
X749129Y115693D01*
X749150Y115792D01*
X749168Y115892D01*
X749181Y115992D01*
X749191Y116093D01*
X749197Y116195D01*
X749199Y116296D01*
X747901Y114024D02*
X744331Y112076D01*
X756320Y118892D02*
X758917Y118892D01*
X756320Y118892D02*
X756221Y118890D01*
X756121Y118884D01*
X756022Y118875D01*
X755924Y118862D01*
X755826Y118845D01*
X755728Y118824D01*
X755632Y118799D01*
X755537Y118771D01*
X755443Y118739D01*
X755350Y118704D01*
X755258Y118665D01*
X755168Y118622D01*
X755080Y118577D01*
X754993Y118527D01*
X754909Y118475D01*
X754826Y118419D01*
X754746Y118361D01*
X754668Y118299D01*
X754593Y118234D01*
X754520Y118166D01*
X754450Y118096D01*
X754382Y118023D01*
X754317Y117948D01*
X754255Y117870D01*
X754197Y117790D01*
X754141Y117707D01*
X754089Y117623D01*
X754039Y117536D01*
X753994Y117448D01*
X753951Y117358D01*
X753912Y117266D01*
X753877Y117173D01*
X753845Y117079D01*
X753817Y116984D01*
X753792Y116888D01*
X753771Y116790D01*
X753754Y116692D01*
X753741Y116594D01*
X753732Y116495D01*
X753726Y116395D01*
X753724Y116296D01*
X753724Y109804D01*
X753723Y109804D02*
X753725Y109705D01*
X753731Y109605D01*
X753740Y109506D01*
X753753Y109408D01*
X753771Y109310D01*
X753791Y109212D01*
X753816Y109116D01*
X753844Y109020D01*
X753876Y108926D01*
X753911Y108833D01*
X753950Y108742D01*
X753993Y108652D01*
X754038Y108563D01*
X754088Y108477D01*
X754140Y108392D01*
X754196Y108310D01*
X754255Y108230D01*
X754316Y108152D01*
X754381Y108076D01*
X754449Y108003D01*
X754519Y107933D01*
X754592Y107865D01*
X754668Y107800D01*
X754746Y107739D01*
X754826Y107680D01*
X754908Y107624D01*
X754993Y107572D01*
X755079Y107523D01*
X755168Y107477D01*
X755258Y107434D01*
X755349Y107395D01*
X755442Y107360D01*
X755536Y107328D01*
X755632Y107300D01*
X755728Y107275D01*
X755826Y107255D01*
X755924Y107237D01*
X756022Y107224D01*
X756121Y107215D01*
X756220Y107209D01*
X756320Y107207D01*
X756320Y107208D02*
X758917Y107208D01*
X763686Y107208D02*
X763686Y118892D01*
X768878Y118892D01*
X749199Y142296D02*
X749197Y142395D01*
X749191Y142495D01*
X749182Y142594D01*
X749169Y142692D01*
X749152Y142790D01*
X749131Y142888D01*
X749106Y142984D01*
X749078Y143079D01*
X749046Y143173D01*
X749011Y143266D01*
X748972Y143358D01*
X748929Y143448D01*
X748884Y143536D01*
X748834Y143623D01*
X748782Y143707D01*
X748726Y143790D01*
X748668Y143870D01*
X748606Y143948D01*
X748541Y144023D01*
X748473Y144096D01*
X748403Y144166D01*
X748330Y144234D01*
X748255Y144299D01*
X748177Y144361D01*
X748097Y144419D01*
X748014Y144475D01*
X747930Y144527D01*
X747843Y144577D01*
X747755Y144622D01*
X747665Y144665D01*
X747573Y144704D01*
X747480Y144739D01*
X747386Y144771D01*
X747291Y144799D01*
X747195Y144824D01*
X747097Y144845D01*
X746999Y144862D01*
X746901Y144875D01*
X746802Y144884D01*
X746702Y144890D01*
X746603Y144892D01*
X746459Y144890D01*
X746314Y144884D01*
X746170Y144875D01*
X746027Y144862D01*
X745883Y144845D01*
X745740Y144824D01*
X745598Y144799D01*
X745457Y144771D01*
X745316Y144739D01*
X745176Y144703D01*
X745037Y144664D01*
X744899Y144621D01*
X744763Y144574D01*
X744627Y144524D01*
X744493Y144470D01*
X744361Y144413D01*
X744230Y144352D01*
X744101Y144288D01*
X743973Y144220D01*
X743847Y144150D01*
X743723Y144075D01*
X743602Y143998D01*
X743482Y143917D01*
X743364Y143834D01*
X743249Y143747D01*
X743136Y143657D01*
X743025Y143564D01*
X742917Y143469D01*
X742811Y143370D01*
X742708Y143269D01*
X743033Y135804D02*
X743035Y135705D01*
X743041Y135605D01*
X743050Y135506D01*
X743063Y135408D01*
X743080Y135310D01*
X743101Y135212D01*
X743126Y135116D01*
X743154Y135021D01*
X743186Y134927D01*
X743221Y134834D01*
X743260Y134742D01*
X743303Y134652D01*
X743348Y134564D01*
X743398Y134477D01*
X743450Y134393D01*
X743506Y134310D01*
X743564Y134230D01*
X743626Y134152D01*
X743691Y134077D01*
X743759Y134004D01*
X743829Y133934D01*
X743902Y133866D01*
X743977Y133801D01*
X744055Y133739D01*
X744135Y133681D01*
X744218Y133625D01*
X744302Y133573D01*
X744389Y133523D01*
X744477Y133478D01*
X744567Y133435D01*
X744659Y133396D01*
X744752Y133361D01*
X744846Y133329D01*
X744941Y133301D01*
X745037Y133276D01*
X745135Y133255D01*
X745233Y133238D01*
X745331Y133225D01*
X745430Y133216D01*
X745530Y133210D01*
X745629Y133208D01*
X745765Y133210D01*
X745901Y133216D01*
X746037Y133225D01*
X746173Y133238D01*
X746308Y133256D01*
X746442Y133276D01*
X746576Y133301D01*
X746710Y133329D01*
X746842Y133362D01*
X746973Y133397D01*
X747104Y133437D01*
X747233Y133480D01*
X747361Y133526D01*
X747487Y133577D01*
X747613Y133630D01*
X747736Y133688D01*
X747858Y133748D01*
X747978Y133812D01*
X748097Y133880D01*
X748213Y133950D01*
X748327Y134024D01*
X748440Y134101D01*
X748550Y134182D01*
X744331Y138076D02*
X744245Y138023D01*
X744161Y137966D01*
X744079Y137907D01*
X743999Y137844D01*
X743922Y137778D01*
X743847Y137710D01*
X743775Y137638D01*
X743706Y137564D01*
X743640Y137487D01*
X743577Y137408D01*
X743517Y137326D01*
X743460Y137242D01*
X743406Y137156D01*
X743356Y137068D01*
X743309Y136978D01*
X743265Y136887D01*
X743226Y136793D01*
X743189Y136699D01*
X743157Y136603D01*
X743128Y136505D01*
X743103Y136407D01*
X743082Y136308D01*
X743064Y136208D01*
X743051Y136108D01*
X743041Y136007D01*
X743035Y135905D01*
X743033Y135804D01*
X747901Y140024D02*
X747987Y140077D01*
X748071Y140134D01*
X748153Y140193D01*
X748233Y140256D01*
X748310Y140322D01*
X748385Y140390D01*
X748457Y140462D01*
X748526Y140536D01*
X748592Y140613D01*
X748655Y140692D01*
X748715Y140774D01*
X748772Y140858D01*
X748826Y140944D01*
X748876Y141032D01*
X748923Y141122D01*
X748967Y141213D01*
X749006Y141307D01*
X749043Y141401D01*
X749075Y141497D01*
X749104Y141595D01*
X749129Y141693D01*
X749150Y141792D01*
X749168Y141892D01*
X749181Y141992D01*
X749191Y142093D01*
X749197Y142195D01*
X749199Y142296D01*
X747901Y140024D02*
X744331Y138076D01*
X754138Y133208D02*
X754138Y144892D01*
X754138Y133208D02*
X757384Y133208D01*
X757497Y133210D01*
X757610Y133216D01*
X757723Y133226D01*
X757836Y133240D01*
X757948Y133257D01*
X758059Y133279D01*
X758169Y133304D01*
X758279Y133334D01*
X758387Y133367D01*
X758494Y133404D01*
X758600Y133444D01*
X758704Y133489D01*
X758807Y133537D01*
X758908Y133588D01*
X759007Y133643D01*
X759104Y133701D01*
X759199Y133763D01*
X759292Y133828D01*
X759382Y133896D01*
X759470Y133967D01*
X759556Y134042D01*
X759639Y134119D01*
X759719Y134199D01*
X759796Y134282D01*
X759871Y134368D01*
X759942Y134456D01*
X760010Y134546D01*
X760075Y134639D01*
X760137Y134734D01*
X760195Y134831D01*
X760250Y134930D01*
X760301Y135031D01*
X760349Y135134D01*
X760394Y135238D01*
X760434Y135344D01*
X760471Y135451D01*
X760504Y135559D01*
X760534Y135669D01*
X760559Y135779D01*
X760581Y135890D01*
X760598Y136002D01*
X760612Y136115D01*
X760622Y136228D01*
X760628Y136341D01*
X760630Y136454D01*
X760629Y136454D02*
X760629Y141646D01*
X760630Y141646D02*
X760628Y141759D01*
X760622Y141872D01*
X760612Y141985D01*
X760598Y142098D01*
X760581Y142210D01*
X760559Y142321D01*
X760534Y142431D01*
X760504Y142541D01*
X760471Y142649D01*
X760434Y142756D01*
X760394Y142862D01*
X760349Y142966D01*
X760301Y143069D01*
X760250Y143170D01*
X760195Y143269D01*
X760137Y143366D01*
X760075Y143461D01*
X760010Y143554D01*
X759942Y143644D01*
X759871Y143732D01*
X759796Y143818D01*
X759719Y143901D01*
X759639Y143981D01*
X759556Y144058D01*
X759470Y144133D01*
X759382Y144204D01*
X759292Y144272D01*
X759199Y144337D01*
X759104Y144399D01*
X759007Y144457D01*
X758908Y144512D01*
X758807Y144563D01*
X758704Y144611D01*
X758600Y144656D01*
X758494Y144696D01*
X758387Y144733D01*
X758279Y144766D01*
X758169Y144796D01*
X758059Y144821D01*
X757948Y144843D01*
X757836Y144860D01*
X757723Y144874D01*
X757610Y144884D01*
X757497Y144890D01*
X757384Y144892D01*
X754138Y144892D01*
X765300Y144892D02*
X769195Y133208D01*
X773089Y144892D01*
X772116Y141971D02*
X766274Y141971D01*
X742708Y158208D02*
X746603Y169892D01*
X750497Y158208D01*
X757350Y169892D02*
X759947Y169892D01*
X757350Y169892D02*
X757251Y169890D01*
X757151Y169884D01*
X757052Y169875D01*
X756954Y169862D01*
X756856Y169845D01*
X756758Y169824D01*
X756662Y169799D01*
X756567Y169771D01*
X756473Y169739D01*
X756380Y169704D01*
X756288Y169665D01*
X756198Y169622D01*
X756110Y169577D01*
X756023Y169527D01*
X755939Y169475D01*
X755856Y169419D01*
X755776Y169361D01*
X755698Y169299D01*
X755623Y169234D01*
X755550Y169166D01*
X755480Y169096D01*
X755412Y169023D01*
X755347Y168948D01*
X755285Y168870D01*
X755227Y168790D01*
X755171Y168707D01*
X755119Y168623D01*
X755069Y168536D01*
X755024Y168448D01*
X754981Y168358D01*
X754942Y168266D01*
X754907Y168173D01*
X754875Y168079D01*
X754847Y167984D01*
X754822Y167888D01*
X754801Y167790D01*
X754784Y167692D01*
X754771Y167594D01*
X754762Y167495D01*
X754756Y167395D01*
X754754Y167296D01*
X754754Y160804D01*
X754753Y160804D02*
X754755Y160705D01*
X754761Y160605D01*
X754770Y160506D01*
X754783Y160408D01*
X754801Y160310D01*
X754821Y160212D01*
X754846Y160116D01*
X754874Y160020D01*
X754906Y159926D01*
X754941Y159833D01*
X754980Y159742D01*
X755023Y159652D01*
X755068Y159563D01*
X755118Y159477D01*
X755170Y159392D01*
X755226Y159310D01*
X755285Y159230D01*
X755346Y159152D01*
X755411Y159076D01*
X755479Y159003D01*
X755549Y158933D01*
X755622Y158865D01*
X755698Y158800D01*
X755776Y158739D01*
X755856Y158680D01*
X755938Y158624D01*
X756023Y158572D01*
X756109Y158523D01*
X756198Y158477D01*
X756288Y158434D01*
X756379Y158395D01*
X756472Y158360D01*
X756566Y158328D01*
X756662Y158300D01*
X756758Y158275D01*
X756856Y158255D01*
X756954Y158237D01*
X757052Y158224D01*
X757151Y158215D01*
X757250Y158209D01*
X757350Y158207D01*
X757350Y158208D02*
X759947Y158208D01*
X766875Y169892D02*
X769472Y169892D01*
X766875Y169892D02*
X766776Y169890D01*
X766676Y169884D01*
X766577Y169875D01*
X766479Y169862D01*
X766381Y169845D01*
X766283Y169824D01*
X766187Y169799D01*
X766092Y169771D01*
X765998Y169739D01*
X765905Y169704D01*
X765813Y169665D01*
X765723Y169622D01*
X765635Y169577D01*
X765548Y169527D01*
X765464Y169475D01*
X765381Y169419D01*
X765301Y169361D01*
X765223Y169299D01*
X765148Y169234D01*
X765075Y169166D01*
X765005Y169096D01*
X764937Y169023D01*
X764872Y168948D01*
X764810Y168870D01*
X764752Y168790D01*
X764696Y168707D01*
X764644Y168623D01*
X764594Y168536D01*
X764549Y168448D01*
X764506Y168358D01*
X764467Y168266D01*
X764432Y168173D01*
X764400Y168079D01*
X764372Y167984D01*
X764347Y167888D01*
X764326Y167790D01*
X764309Y167692D01*
X764296Y167594D01*
X764287Y167495D01*
X764281Y167395D01*
X764279Y167296D01*
X764279Y160804D01*
X764278Y160804D02*
X764280Y160705D01*
X764286Y160605D01*
X764295Y160506D01*
X764308Y160408D01*
X764326Y160310D01*
X764346Y160212D01*
X764371Y160116D01*
X764399Y160020D01*
X764431Y159926D01*
X764466Y159833D01*
X764505Y159742D01*
X764548Y159652D01*
X764593Y159563D01*
X764643Y159477D01*
X764695Y159392D01*
X764751Y159310D01*
X764810Y159230D01*
X764871Y159152D01*
X764936Y159076D01*
X765004Y159003D01*
X765074Y158933D01*
X765147Y158865D01*
X765223Y158800D01*
X765301Y158739D01*
X765381Y158680D01*
X765463Y158624D01*
X765548Y158572D01*
X765634Y158523D01*
X765723Y158477D01*
X765813Y158434D01*
X765904Y158395D01*
X765997Y158360D01*
X766091Y158328D01*
X766187Y158300D01*
X766283Y158275D01*
X766381Y158255D01*
X766479Y158237D01*
X766577Y158224D01*
X766676Y158215D01*
X766775Y158209D01*
X766875Y158207D01*
X766875Y158208D02*
X769472Y158208D01*
X749199Y189401D02*
X747252Y189401D01*
X749199Y189401D02*
X749199Y195892D01*
X745304Y195892D01*
X745205Y195890D01*
X745105Y195884D01*
X745006Y195875D01*
X744908Y195862D01*
X744810Y195845D01*
X744712Y195824D01*
X744616Y195799D01*
X744521Y195771D01*
X744427Y195739D01*
X744334Y195704D01*
X744242Y195665D01*
X744152Y195622D01*
X744064Y195577D01*
X743977Y195527D01*
X743893Y195475D01*
X743810Y195419D01*
X743730Y195361D01*
X743652Y195299D01*
X743577Y195234D01*
X743504Y195166D01*
X743434Y195096D01*
X743366Y195023D01*
X743301Y194948D01*
X743239Y194870D01*
X743181Y194790D01*
X743125Y194707D01*
X743073Y194623D01*
X743023Y194536D01*
X742978Y194448D01*
X742935Y194358D01*
X742896Y194266D01*
X742861Y194173D01*
X742829Y194079D01*
X742801Y193984D01*
X742776Y193888D01*
X742755Y193790D01*
X742738Y193692D01*
X742725Y193594D01*
X742716Y193495D01*
X742710Y193395D01*
X742708Y193296D01*
X742708Y186804D01*
X742710Y186705D01*
X742716Y186605D01*
X742725Y186506D01*
X742738Y186408D01*
X742756Y186310D01*
X742776Y186212D01*
X742801Y186116D01*
X742829Y186020D01*
X742861Y185926D01*
X742896Y185833D01*
X742935Y185742D01*
X742978Y185652D01*
X743023Y185563D01*
X743073Y185477D01*
X743125Y185392D01*
X743181Y185310D01*
X743240Y185230D01*
X743301Y185152D01*
X743366Y185076D01*
X743434Y185003D01*
X743504Y184933D01*
X743577Y184865D01*
X743653Y184800D01*
X743731Y184739D01*
X743811Y184680D01*
X743893Y184624D01*
X743978Y184572D01*
X744064Y184523D01*
X744153Y184477D01*
X744243Y184434D01*
X744334Y184395D01*
X744427Y184360D01*
X744521Y184328D01*
X744617Y184300D01*
X744713Y184275D01*
X744811Y184255D01*
X744909Y184237D01*
X745007Y184224D01*
X745106Y184215D01*
X745205Y184209D01*
X745305Y184207D01*
X745304Y184208D02*
X749199Y184208D01*
X754900Y184208D02*
X754900Y195892D01*
X761391Y195892D02*
X754900Y184208D01*
X761391Y184208D02*
X761391Y195892D01*
X767092Y195892D02*
X767092Y184208D01*
X770337Y184208D01*
X770450Y184210D01*
X770563Y184216D01*
X770676Y184226D01*
X770789Y184240D01*
X770901Y184257D01*
X771012Y184279D01*
X771122Y184304D01*
X771232Y184334D01*
X771340Y184367D01*
X771447Y184404D01*
X771553Y184444D01*
X771657Y184489D01*
X771760Y184537D01*
X771861Y184588D01*
X771960Y184643D01*
X772057Y184701D01*
X772152Y184763D01*
X772245Y184828D01*
X772335Y184896D01*
X772423Y184967D01*
X772509Y185042D01*
X772592Y185119D01*
X772672Y185199D01*
X772749Y185282D01*
X772824Y185368D01*
X772895Y185456D01*
X772963Y185546D01*
X773028Y185639D01*
X773090Y185734D01*
X773148Y185831D01*
X773203Y185930D01*
X773254Y186031D01*
X773302Y186134D01*
X773347Y186238D01*
X773387Y186344D01*
X773424Y186451D01*
X773457Y186559D01*
X773487Y186669D01*
X773512Y186779D01*
X773534Y186890D01*
X773551Y187002D01*
X773565Y187115D01*
X773575Y187228D01*
X773581Y187341D01*
X773583Y187454D01*
X773583Y192646D01*
X773584Y192646D02*
X773582Y192759D01*
X773576Y192872D01*
X773566Y192985D01*
X773552Y193098D01*
X773535Y193210D01*
X773513Y193321D01*
X773488Y193431D01*
X773458Y193541D01*
X773425Y193649D01*
X773388Y193756D01*
X773348Y193862D01*
X773303Y193966D01*
X773255Y194069D01*
X773204Y194170D01*
X773149Y194269D01*
X773091Y194366D01*
X773029Y194461D01*
X772964Y194554D01*
X772896Y194644D01*
X772825Y194732D01*
X772750Y194818D01*
X772673Y194901D01*
X772593Y194981D01*
X772510Y195058D01*
X772424Y195133D01*
X772336Y195204D01*
X772246Y195272D01*
X772153Y195337D01*
X772058Y195399D01*
X771961Y195457D01*
X771862Y195512D01*
X771761Y195563D01*
X771658Y195611D01*
X771554Y195656D01*
X771448Y195696D01*
X771341Y195733D01*
X771233Y195766D01*
X771123Y195796D01*
X771013Y195821D01*
X770902Y195843D01*
X770790Y195860D01*
X770677Y195874D01*
X770564Y195884D01*
X770451Y195890D01*
X770338Y195892D01*
X770337Y195892D02*
X767092Y195892D01*
X920252Y176401D02*
X922199Y176401D01*
X922199Y182892D01*
X918304Y182892D01*
X918205Y182890D01*
X918105Y182884D01*
X918006Y182875D01*
X917908Y182862D01*
X917810Y182845D01*
X917712Y182824D01*
X917616Y182799D01*
X917521Y182771D01*
X917427Y182739D01*
X917334Y182704D01*
X917242Y182665D01*
X917152Y182622D01*
X917064Y182577D01*
X916977Y182527D01*
X916893Y182475D01*
X916810Y182419D01*
X916730Y182361D01*
X916652Y182299D01*
X916577Y182234D01*
X916504Y182166D01*
X916434Y182096D01*
X916366Y182023D01*
X916301Y181948D01*
X916239Y181870D01*
X916181Y181790D01*
X916125Y181707D01*
X916073Y181623D01*
X916023Y181536D01*
X915978Y181448D01*
X915935Y181358D01*
X915896Y181266D01*
X915861Y181173D01*
X915829Y181079D01*
X915801Y180984D01*
X915776Y180888D01*
X915755Y180790D01*
X915738Y180692D01*
X915725Y180594D01*
X915716Y180495D01*
X915710Y180395D01*
X915708Y180296D01*
X915708Y173804D01*
X915710Y173705D01*
X915716Y173605D01*
X915725Y173506D01*
X915738Y173408D01*
X915756Y173310D01*
X915776Y173212D01*
X915801Y173116D01*
X915829Y173020D01*
X915861Y172926D01*
X915896Y172833D01*
X915935Y172742D01*
X915978Y172652D01*
X916023Y172563D01*
X916073Y172477D01*
X916125Y172392D01*
X916181Y172310D01*
X916240Y172230D01*
X916301Y172152D01*
X916366Y172076D01*
X916434Y172003D01*
X916504Y171933D01*
X916577Y171865D01*
X916653Y171800D01*
X916731Y171739D01*
X916811Y171680D01*
X916893Y171624D01*
X916978Y171572D01*
X917064Y171523D01*
X917153Y171477D01*
X917243Y171434D01*
X917334Y171395D01*
X917427Y171360D01*
X917521Y171328D01*
X917617Y171300D01*
X917713Y171275D01*
X917811Y171255D01*
X917909Y171237D01*
X918007Y171224D01*
X918106Y171215D01*
X918205Y171209D01*
X918305Y171207D01*
X918304Y171208D02*
X922199Y171208D01*
X927900Y171208D02*
X927900Y182892D01*
X934391Y182892D02*
X927900Y171208D01*
X934391Y171208D02*
X934391Y182892D01*
X940092Y182892D02*
X940092Y171208D01*
X943337Y171208D01*
X943450Y171210D01*
X943563Y171216D01*
X943676Y171226D01*
X943789Y171240D01*
X943901Y171257D01*
X944012Y171279D01*
X944122Y171304D01*
X944232Y171334D01*
X944340Y171367D01*
X944447Y171404D01*
X944553Y171444D01*
X944657Y171489D01*
X944760Y171537D01*
X944861Y171588D01*
X944960Y171643D01*
X945057Y171701D01*
X945152Y171763D01*
X945245Y171828D01*
X945335Y171896D01*
X945423Y171967D01*
X945509Y172042D01*
X945592Y172119D01*
X945672Y172199D01*
X945749Y172282D01*
X945824Y172368D01*
X945895Y172456D01*
X945963Y172546D01*
X946028Y172639D01*
X946090Y172734D01*
X946148Y172831D01*
X946203Y172930D01*
X946254Y173031D01*
X946302Y173134D01*
X946347Y173238D01*
X946387Y173344D01*
X946424Y173451D01*
X946457Y173559D01*
X946487Y173669D01*
X946512Y173779D01*
X946534Y173890D01*
X946551Y174002D01*
X946565Y174115D01*
X946575Y174228D01*
X946581Y174341D01*
X946583Y174454D01*
X946583Y179646D01*
X946584Y179646D02*
X946582Y179759D01*
X946576Y179872D01*
X946566Y179985D01*
X946552Y180098D01*
X946535Y180210D01*
X946513Y180321D01*
X946488Y180431D01*
X946458Y180541D01*
X946425Y180649D01*
X946388Y180756D01*
X946348Y180862D01*
X946303Y180966D01*
X946255Y181069D01*
X946204Y181170D01*
X946149Y181269D01*
X946091Y181366D01*
X946029Y181461D01*
X945964Y181554D01*
X945896Y181644D01*
X945825Y181732D01*
X945750Y181818D01*
X945673Y181901D01*
X945593Y181981D01*
X945510Y182058D01*
X945424Y182133D01*
X945336Y182204D01*
X945246Y182272D01*
X945153Y182337D01*
X945058Y182399D01*
X944961Y182457D01*
X944862Y182512D01*
X944761Y182563D01*
X944658Y182611D01*
X944554Y182656D01*
X944448Y182696D01*
X944341Y182733D01*
X944233Y182766D01*
X944123Y182796D01*
X944013Y182821D01*
X943902Y182843D01*
X943790Y182860D01*
X943677Y182874D01*
X943564Y182884D01*
X943451Y182890D01*
X943338Y182892D01*
X943337Y182892D02*
X940092Y182892D01*
X925708Y79892D02*
X925708Y68208D01*
X928954Y68208D01*
X929067Y68210D01*
X929180Y68216D01*
X929293Y68226D01*
X929406Y68240D01*
X929518Y68257D01*
X929629Y68279D01*
X929739Y68304D01*
X929849Y68334D01*
X929957Y68367D01*
X930064Y68404D01*
X930170Y68444D01*
X930274Y68489D01*
X930377Y68537D01*
X930478Y68588D01*
X930577Y68643D01*
X930674Y68701D01*
X930769Y68763D01*
X930862Y68828D01*
X930952Y68896D01*
X931040Y68967D01*
X931126Y69042D01*
X931209Y69119D01*
X931289Y69199D01*
X931366Y69282D01*
X931441Y69368D01*
X931512Y69456D01*
X931580Y69546D01*
X931645Y69639D01*
X931707Y69734D01*
X931765Y69831D01*
X931820Y69930D01*
X931871Y70031D01*
X931919Y70134D01*
X931964Y70238D01*
X932004Y70344D01*
X932041Y70451D01*
X932074Y70559D01*
X932104Y70669D01*
X932129Y70779D01*
X932151Y70890D01*
X932168Y71002D01*
X932182Y71115D01*
X932192Y71228D01*
X932198Y71341D01*
X932200Y71454D01*
X932199Y71454D02*
X932199Y76646D01*
X932200Y76646D02*
X932198Y76759D01*
X932192Y76872D01*
X932182Y76985D01*
X932168Y77098D01*
X932151Y77210D01*
X932129Y77321D01*
X932104Y77431D01*
X932074Y77541D01*
X932041Y77649D01*
X932004Y77756D01*
X931964Y77862D01*
X931919Y77966D01*
X931871Y78069D01*
X931820Y78170D01*
X931765Y78269D01*
X931707Y78366D01*
X931645Y78461D01*
X931580Y78554D01*
X931512Y78644D01*
X931441Y78732D01*
X931366Y78818D01*
X931289Y78901D01*
X931209Y78981D01*
X931126Y79058D01*
X931040Y79133D01*
X930952Y79204D01*
X930862Y79272D01*
X930769Y79337D01*
X930674Y79399D01*
X930577Y79457D01*
X930478Y79512D01*
X930377Y79563D01*
X930274Y79611D01*
X930170Y79656D01*
X930064Y79696D01*
X929957Y79733D01*
X929849Y79766D01*
X929739Y79796D01*
X929629Y79821D01*
X929518Y79843D01*
X929406Y79860D01*
X929293Y79874D01*
X929180Y79884D01*
X929067Y79890D01*
X928954Y79892D01*
X925708Y79892D01*
X941033Y79892D02*
X941132Y79890D01*
X941232Y79884D01*
X941331Y79875D01*
X941429Y79862D01*
X941527Y79845D01*
X941625Y79824D01*
X941721Y79799D01*
X941816Y79771D01*
X941910Y79739D01*
X942003Y79704D01*
X942095Y79665D01*
X942185Y79622D01*
X942273Y79577D01*
X942360Y79527D01*
X942444Y79475D01*
X942527Y79419D01*
X942607Y79361D01*
X942685Y79299D01*
X942760Y79234D01*
X942833Y79166D01*
X942903Y79096D01*
X942971Y79023D01*
X943036Y78948D01*
X943098Y78870D01*
X943156Y78790D01*
X943212Y78707D01*
X943264Y78623D01*
X943314Y78536D01*
X943359Y78448D01*
X943402Y78358D01*
X943441Y78266D01*
X943476Y78173D01*
X943508Y78079D01*
X943536Y77984D01*
X943561Y77888D01*
X943582Y77790D01*
X943599Y77692D01*
X943612Y77594D01*
X943621Y77495D01*
X943627Y77395D01*
X943629Y77296D01*
X941033Y79892D02*
X940889Y79890D01*
X940744Y79884D01*
X940600Y79875D01*
X940457Y79862D01*
X940313Y79845D01*
X940170Y79824D01*
X940028Y79799D01*
X939887Y79771D01*
X939746Y79739D01*
X939606Y79703D01*
X939467Y79664D01*
X939329Y79621D01*
X939193Y79574D01*
X939057Y79524D01*
X938923Y79470D01*
X938791Y79413D01*
X938660Y79352D01*
X938531Y79288D01*
X938403Y79220D01*
X938277Y79150D01*
X938153Y79075D01*
X938032Y78998D01*
X937912Y78917D01*
X937794Y78834D01*
X937679Y78747D01*
X937566Y78657D01*
X937455Y78564D01*
X937347Y78469D01*
X937241Y78370D01*
X937138Y78269D01*
X937463Y70804D02*
X937465Y70705D01*
X937471Y70605D01*
X937480Y70506D01*
X937493Y70408D01*
X937510Y70310D01*
X937531Y70212D01*
X937556Y70116D01*
X937584Y70021D01*
X937616Y69927D01*
X937651Y69834D01*
X937690Y69742D01*
X937733Y69652D01*
X937778Y69564D01*
X937828Y69477D01*
X937880Y69393D01*
X937936Y69310D01*
X937994Y69230D01*
X938056Y69152D01*
X938121Y69077D01*
X938189Y69004D01*
X938259Y68934D01*
X938332Y68866D01*
X938407Y68801D01*
X938485Y68739D01*
X938565Y68681D01*
X938648Y68625D01*
X938732Y68573D01*
X938819Y68523D01*
X938907Y68478D01*
X938997Y68435D01*
X939089Y68396D01*
X939182Y68361D01*
X939276Y68329D01*
X939371Y68301D01*
X939467Y68276D01*
X939565Y68255D01*
X939663Y68238D01*
X939761Y68225D01*
X939860Y68216D01*
X939960Y68210D01*
X940059Y68208D01*
X940195Y68210D01*
X940331Y68216D01*
X940467Y68225D01*
X940603Y68238D01*
X940738Y68256D01*
X940872Y68276D01*
X941006Y68301D01*
X941140Y68329D01*
X941272Y68362D01*
X941403Y68397D01*
X941534Y68437D01*
X941663Y68480D01*
X941791Y68526D01*
X941917Y68577D01*
X942043Y68630D01*
X942166Y68688D01*
X942288Y68748D01*
X942408Y68812D01*
X942527Y68880D01*
X942643Y68950D01*
X942757Y69024D01*
X942870Y69101D01*
X942980Y69182D01*
X938760Y73076D02*
X938674Y73023D01*
X938590Y72966D01*
X938508Y72907D01*
X938428Y72844D01*
X938351Y72778D01*
X938276Y72710D01*
X938204Y72638D01*
X938135Y72564D01*
X938069Y72487D01*
X938006Y72408D01*
X937946Y72326D01*
X937889Y72242D01*
X937835Y72156D01*
X937785Y72068D01*
X937738Y71978D01*
X937694Y71887D01*
X937655Y71793D01*
X937618Y71699D01*
X937586Y71603D01*
X937557Y71505D01*
X937532Y71407D01*
X937511Y71308D01*
X937493Y71208D01*
X937480Y71108D01*
X937470Y71007D01*
X937464Y70905D01*
X937462Y70804D01*
X942331Y75024D02*
X942417Y75077D01*
X942501Y75134D01*
X942583Y75193D01*
X942663Y75256D01*
X942740Y75322D01*
X942815Y75390D01*
X942887Y75462D01*
X942956Y75536D01*
X943022Y75613D01*
X943085Y75692D01*
X943145Y75774D01*
X943202Y75858D01*
X943256Y75944D01*
X943306Y76032D01*
X943353Y76122D01*
X943397Y76213D01*
X943436Y76307D01*
X943473Y76401D01*
X943505Y76497D01*
X943534Y76595D01*
X943559Y76693D01*
X943580Y76792D01*
X943598Y76892D01*
X943611Y76992D01*
X943621Y77093D01*
X943627Y77195D01*
X943629Y77296D01*
X942331Y75024D02*
X938761Y73076D01*
X924199Y103296D02*
X924197Y103395D01*
X924191Y103495D01*
X924182Y103594D01*
X924169Y103692D01*
X924152Y103790D01*
X924131Y103888D01*
X924106Y103984D01*
X924078Y104079D01*
X924046Y104173D01*
X924011Y104266D01*
X923972Y104358D01*
X923929Y104448D01*
X923884Y104536D01*
X923834Y104623D01*
X923782Y104707D01*
X923726Y104790D01*
X923668Y104870D01*
X923606Y104948D01*
X923541Y105023D01*
X923473Y105096D01*
X923403Y105166D01*
X923330Y105234D01*
X923255Y105299D01*
X923177Y105361D01*
X923097Y105419D01*
X923014Y105475D01*
X922930Y105527D01*
X922843Y105577D01*
X922755Y105622D01*
X922665Y105665D01*
X922573Y105704D01*
X922480Y105739D01*
X922386Y105771D01*
X922291Y105799D01*
X922195Y105824D01*
X922097Y105845D01*
X921999Y105862D01*
X921901Y105875D01*
X921802Y105884D01*
X921702Y105890D01*
X921603Y105892D01*
X921459Y105890D01*
X921314Y105884D01*
X921170Y105875D01*
X921027Y105862D01*
X920883Y105845D01*
X920740Y105824D01*
X920598Y105799D01*
X920457Y105771D01*
X920316Y105739D01*
X920176Y105703D01*
X920037Y105664D01*
X919899Y105621D01*
X919763Y105574D01*
X919627Y105524D01*
X919493Y105470D01*
X919361Y105413D01*
X919230Y105352D01*
X919101Y105288D01*
X918973Y105220D01*
X918847Y105150D01*
X918723Y105075D01*
X918602Y104998D01*
X918482Y104917D01*
X918364Y104834D01*
X918249Y104747D01*
X918136Y104657D01*
X918025Y104564D01*
X917917Y104469D01*
X917811Y104370D01*
X917708Y104269D01*
X918033Y96804D02*
X918035Y96705D01*
X918041Y96605D01*
X918050Y96506D01*
X918063Y96408D01*
X918080Y96310D01*
X918101Y96212D01*
X918126Y96116D01*
X918154Y96021D01*
X918186Y95927D01*
X918221Y95834D01*
X918260Y95742D01*
X918303Y95652D01*
X918348Y95564D01*
X918398Y95477D01*
X918450Y95393D01*
X918506Y95310D01*
X918564Y95230D01*
X918626Y95152D01*
X918691Y95077D01*
X918759Y95004D01*
X918829Y94934D01*
X918902Y94866D01*
X918977Y94801D01*
X919055Y94739D01*
X919135Y94681D01*
X919218Y94625D01*
X919302Y94573D01*
X919389Y94523D01*
X919477Y94478D01*
X919567Y94435D01*
X919659Y94396D01*
X919752Y94361D01*
X919846Y94329D01*
X919941Y94301D01*
X920037Y94276D01*
X920135Y94255D01*
X920233Y94238D01*
X920331Y94225D01*
X920430Y94216D01*
X920530Y94210D01*
X920629Y94208D01*
X920765Y94210D01*
X920901Y94216D01*
X921037Y94225D01*
X921173Y94238D01*
X921308Y94256D01*
X921442Y94276D01*
X921576Y94301D01*
X921710Y94329D01*
X921842Y94362D01*
X921973Y94397D01*
X922104Y94437D01*
X922233Y94480D01*
X922361Y94526D01*
X922487Y94577D01*
X922613Y94630D01*
X922736Y94688D01*
X922858Y94748D01*
X922978Y94812D01*
X923097Y94880D01*
X923213Y94950D01*
X923327Y95024D01*
X923440Y95101D01*
X923550Y95182D01*
X919331Y99076D02*
X919245Y99023D01*
X919161Y98966D01*
X919079Y98907D01*
X918999Y98844D01*
X918922Y98778D01*
X918847Y98710D01*
X918775Y98638D01*
X918706Y98564D01*
X918640Y98487D01*
X918577Y98408D01*
X918517Y98326D01*
X918460Y98242D01*
X918406Y98156D01*
X918356Y98068D01*
X918309Y97978D01*
X918265Y97887D01*
X918226Y97793D01*
X918189Y97699D01*
X918157Y97603D01*
X918128Y97505D01*
X918103Y97407D01*
X918082Y97308D01*
X918064Y97208D01*
X918051Y97108D01*
X918041Y97007D01*
X918035Y96905D01*
X918033Y96804D01*
X922901Y101024D02*
X922987Y101077D01*
X923071Y101134D01*
X923153Y101193D01*
X923233Y101256D01*
X923310Y101322D01*
X923385Y101390D01*
X923457Y101462D01*
X923526Y101536D01*
X923592Y101613D01*
X923655Y101692D01*
X923715Y101774D01*
X923772Y101858D01*
X923826Y101944D01*
X923876Y102032D01*
X923923Y102122D01*
X923967Y102213D01*
X924006Y102307D01*
X924043Y102401D01*
X924075Y102497D01*
X924104Y102595D01*
X924129Y102693D01*
X924150Y102792D01*
X924168Y102892D01*
X924181Y102992D01*
X924191Y103093D01*
X924197Y103195D01*
X924199Y103296D01*
X922901Y101024D02*
X919331Y99076D01*
X931320Y105892D02*
X933917Y105892D01*
X931320Y105892D02*
X931221Y105890D01*
X931121Y105884D01*
X931022Y105875D01*
X930924Y105862D01*
X930826Y105845D01*
X930728Y105824D01*
X930632Y105799D01*
X930537Y105771D01*
X930443Y105739D01*
X930350Y105704D01*
X930258Y105665D01*
X930168Y105622D01*
X930080Y105577D01*
X929993Y105527D01*
X929909Y105475D01*
X929826Y105419D01*
X929746Y105361D01*
X929668Y105299D01*
X929593Y105234D01*
X929520Y105166D01*
X929450Y105096D01*
X929382Y105023D01*
X929317Y104948D01*
X929255Y104870D01*
X929197Y104790D01*
X929141Y104707D01*
X929089Y104623D01*
X929039Y104536D01*
X928994Y104448D01*
X928951Y104358D01*
X928912Y104266D01*
X928877Y104173D01*
X928845Y104079D01*
X928817Y103984D01*
X928792Y103888D01*
X928771Y103790D01*
X928754Y103692D01*
X928741Y103594D01*
X928732Y103495D01*
X928726Y103395D01*
X928724Y103296D01*
X928724Y96804D01*
X928723Y96804D02*
X928725Y96705D01*
X928731Y96605D01*
X928740Y96506D01*
X928753Y96408D01*
X928771Y96310D01*
X928791Y96212D01*
X928816Y96116D01*
X928844Y96020D01*
X928876Y95926D01*
X928911Y95833D01*
X928950Y95742D01*
X928993Y95652D01*
X929038Y95563D01*
X929088Y95477D01*
X929140Y95392D01*
X929196Y95310D01*
X929255Y95230D01*
X929316Y95152D01*
X929381Y95076D01*
X929449Y95003D01*
X929519Y94933D01*
X929592Y94865D01*
X929668Y94800D01*
X929746Y94739D01*
X929826Y94680D01*
X929908Y94624D01*
X929993Y94572D01*
X930079Y94523D01*
X930168Y94477D01*
X930258Y94434D01*
X930349Y94395D01*
X930442Y94360D01*
X930536Y94328D01*
X930632Y94300D01*
X930728Y94275D01*
X930826Y94255D01*
X930924Y94237D01*
X931022Y94224D01*
X931121Y94215D01*
X931220Y94209D01*
X931320Y94207D01*
X931320Y94208D02*
X933917Y94208D01*
X938686Y94208D02*
X938686Y105892D01*
X943878Y105892D01*
X924199Y129296D02*
X924197Y129395D01*
X924191Y129495D01*
X924182Y129594D01*
X924169Y129692D01*
X924152Y129790D01*
X924131Y129888D01*
X924106Y129984D01*
X924078Y130079D01*
X924046Y130173D01*
X924011Y130266D01*
X923972Y130358D01*
X923929Y130448D01*
X923884Y130536D01*
X923834Y130623D01*
X923782Y130707D01*
X923726Y130790D01*
X923668Y130870D01*
X923606Y130948D01*
X923541Y131023D01*
X923473Y131096D01*
X923403Y131166D01*
X923330Y131234D01*
X923255Y131299D01*
X923177Y131361D01*
X923097Y131419D01*
X923014Y131475D01*
X922930Y131527D01*
X922843Y131577D01*
X922755Y131622D01*
X922665Y131665D01*
X922573Y131704D01*
X922480Y131739D01*
X922386Y131771D01*
X922291Y131799D01*
X922195Y131824D01*
X922097Y131845D01*
X921999Y131862D01*
X921901Y131875D01*
X921802Y131884D01*
X921702Y131890D01*
X921603Y131892D01*
X921459Y131890D01*
X921314Y131884D01*
X921170Y131875D01*
X921027Y131862D01*
X920883Y131845D01*
X920740Y131824D01*
X920598Y131799D01*
X920457Y131771D01*
X920316Y131739D01*
X920176Y131703D01*
X920037Y131664D01*
X919899Y131621D01*
X919763Y131574D01*
X919627Y131524D01*
X919493Y131470D01*
X919361Y131413D01*
X919230Y131352D01*
X919101Y131288D01*
X918973Y131220D01*
X918847Y131150D01*
X918723Y131075D01*
X918602Y130998D01*
X918482Y130917D01*
X918364Y130834D01*
X918249Y130747D01*
X918136Y130657D01*
X918025Y130564D01*
X917917Y130469D01*
X917811Y130370D01*
X917708Y130269D01*
X918033Y122804D02*
X918035Y122705D01*
X918041Y122605D01*
X918050Y122506D01*
X918063Y122408D01*
X918080Y122310D01*
X918101Y122212D01*
X918126Y122116D01*
X918154Y122021D01*
X918186Y121927D01*
X918221Y121834D01*
X918260Y121742D01*
X918303Y121652D01*
X918348Y121564D01*
X918398Y121477D01*
X918450Y121393D01*
X918506Y121310D01*
X918564Y121230D01*
X918626Y121152D01*
X918691Y121077D01*
X918759Y121004D01*
X918829Y120934D01*
X918902Y120866D01*
X918977Y120801D01*
X919055Y120739D01*
X919135Y120681D01*
X919218Y120625D01*
X919302Y120573D01*
X919389Y120523D01*
X919477Y120478D01*
X919567Y120435D01*
X919659Y120396D01*
X919752Y120361D01*
X919846Y120329D01*
X919941Y120301D01*
X920037Y120276D01*
X920135Y120255D01*
X920233Y120238D01*
X920331Y120225D01*
X920430Y120216D01*
X920530Y120210D01*
X920629Y120208D01*
X920765Y120210D01*
X920901Y120216D01*
X921037Y120225D01*
X921173Y120238D01*
X921308Y120256D01*
X921442Y120276D01*
X921576Y120301D01*
X921710Y120329D01*
X921842Y120362D01*
X921973Y120397D01*
X922104Y120437D01*
X922233Y120480D01*
X922361Y120526D01*
X922487Y120577D01*
X922613Y120630D01*
X922736Y120688D01*
X922858Y120748D01*
X922978Y120812D01*
X923097Y120880D01*
X923213Y120950D01*
X923327Y121024D01*
X923440Y121101D01*
X923550Y121182D01*
X919331Y125076D02*
X919245Y125023D01*
X919161Y124966D01*
X919079Y124907D01*
X918999Y124844D01*
X918922Y124778D01*
X918847Y124710D01*
X918775Y124638D01*
X918706Y124564D01*
X918640Y124487D01*
X918577Y124408D01*
X918517Y124326D01*
X918460Y124242D01*
X918406Y124156D01*
X918356Y124068D01*
X918309Y123978D01*
X918265Y123887D01*
X918226Y123793D01*
X918189Y123699D01*
X918157Y123603D01*
X918128Y123505D01*
X918103Y123407D01*
X918082Y123308D01*
X918064Y123208D01*
X918051Y123108D01*
X918041Y123007D01*
X918035Y122905D01*
X918033Y122804D01*
X922901Y127024D02*
X922987Y127077D01*
X923071Y127134D01*
X923153Y127193D01*
X923233Y127256D01*
X923310Y127322D01*
X923385Y127390D01*
X923457Y127462D01*
X923526Y127536D01*
X923592Y127613D01*
X923655Y127692D01*
X923715Y127774D01*
X923772Y127858D01*
X923826Y127944D01*
X923876Y128032D01*
X923923Y128122D01*
X923967Y128213D01*
X924006Y128307D01*
X924043Y128401D01*
X924075Y128497D01*
X924104Y128595D01*
X924129Y128693D01*
X924150Y128792D01*
X924168Y128892D01*
X924181Y128992D01*
X924191Y129093D01*
X924197Y129195D01*
X924199Y129296D01*
X922901Y127024D02*
X919331Y125076D01*
X929138Y120208D02*
X929138Y131892D01*
X929138Y120208D02*
X932384Y120208D01*
X932497Y120210D01*
X932610Y120216D01*
X932723Y120226D01*
X932836Y120240D01*
X932948Y120257D01*
X933059Y120279D01*
X933169Y120304D01*
X933279Y120334D01*
X933387Y120367D01*
X933494Y120404D01*
X933600Y120444D01*
X933704Y120489D01*
X933807Y120537D01*
X933908Y120588D01*
X934007Y120643D01*
X934104Y120701D01*
X934199Y120763D01*
X934292Y120828D01*
X934382Y120896D01*
X934470Y120967D01*
X934556Y121042D01*
X934639Y121119D01*
X934719Y121199D01*
X934796Y121282D01*
X934871Y121368D01*
X934942Y121456D01*
X935010Y121546D01*
X935075Y121639D01*
X935137Y121734D01*
X935195Y121831D01*
X935250Y121930D01*
X935301Y122031D01*
X935349Y122134D01*
X935394Y122238D01*
X935434Y122344D01*
X935471Y122451D01*
X935504Y122559D01*
X935534Y122669D01*
X935559Y122779D01*
X935581Y122890D01*
X935598Y123002D01*
X935612Y123115D01*
X935622Y123228D01*
X935628Y123341D01*
X935630Y123454D01*
X935629Y123454D02*
X935629Y128646D01*
X935630Y128646D02*
X935628Y128759D01*
X935622Y128872D01*
X935612Y128985D01*
X935598Y129098D01*
X935581Y129210D01*
X935559Y129321D01*
X935534Y129431D01*
X935504Y129541D01*
X935471Y129649D01*
X935434Y129756D01*
X935394Y129862D01*
X935349Y129966D01*
X935301Y130069D01*
X935250Y130170D01*
X935195Y130269D01*
X935137Y130366D01*
X935075Y130461D01*
X935010Y130554D01*
X934942Y130644D01*
X934871Y130732D01*
X934796Y130818D01*
X934719Y130901D01*
X934639Y130981D01*
X934556Y131058D01*
X934470Y131133D01*
X934382Y131204D01*
X934292Y131272D01*
X934199Y131337D01*
X934104Y131399D01*
X934007Y131457D01*
X933908Y131512D01*
X933807Y131563D01*
X933704Y131611D01*
X933600Y131656D01*
X933494Y131696D01*
X933387Y131733D01*
X933279Y131766D01*
X933169Y131796D01*
X933059Y131821D01*
X932948Y131843D01*
X932836Y131860D01*
X932723Y131874D01*
X932610Y131884D01*
X932497Y131890D01*
X932384Y131892D01*
X929138Y131892D01*
X940300Y131892D02*
X944195Y120208D01*
X948089Y131892D01*
X947116Y128971D02*
X941274Y128971D01*
X917708Y145208D02*
X921603Y156892D01*
X925497Y145208D01*
X932350Y156892D02*
X934947Y156892D01*
X932350Y156892D02*
X932251Y156890D01*
X932151Y156884D01*
X932052Y156875D01*
X931954Y156862D01*
X931856Y156845D01*
X931758Y156824D01*
X931662Y156799D01*
X931567Y156771D01*
X931473Y156739D01*
X931380Y156704D01*
X931288Y156665D01*
X931198Y156622D01*
X931110Y156577D01*
X931023Y156527D01*
X930939Y156475D01*
X930856Y156419D01*
X930776Y156361D01*
X930698Y156299D01*
X930623Y156234D01*
X930550Y156166D01*
X930480Y156096D01*
X930412Y156023D01*
X930347Y155948D01*
X930285Y155870D01*
X930227Y155790D01*
X930171Y155707D01*
X930119Y155623D01*
X930069Y155536D01*
X930024Y155448D01*
X929981Y155358D01*
X929942Y155266D01*
X929907Y155173D01*
X929875Y155079D01*
X929847Y154984D01*
X929822Y154888D01*
X929801Y154790D01*
X929784Y154692D01*
X929771Y154594D01*
X929762Y154495D01*
X929756Y154395D01*
X929754Y154296D01*
X929754Y147804D01*
X929753Y147804D02*
X929755Y147705D01*
X929761Y147605D01*
X929770Y147506D01*
X929783Y147408D01*
X929801Y147310D01*
X929821Y147212D01*
X929846Y147116D01*
X929874Y147020D01*
X929906Y146926D01*
X929941Y146833D01*
X929980Y146742D01*
X930023Y146652D01*
X930068Y146563D01*
X930118Y146477D01*
X930170Y146392D01*
X930226Y146310D01*
X930285Y146230D01*
X930346Y146152D01*
X930411Y146076D01*
X930479Y146003D01*
X930549Y145933D01*
X930622Y145865D01*
X930698Y145800D01*
X930776Y145739D01*
X930856Y145680D01*
X930938Y145624D01*
X931023Y145572D01*
X931109Y145523D01*
X931198Y145477D01*
X931288Y145434D01*
X931379Y145395D01*
X931472Y145360D01*
X931566Y145328D01*
X931662Y145300D01*
X931758Y145275D01*
X931856Y145255D01*
X931954Y145237D01*
X932052Y145224D01*
X932151Y145215D01*
X932250Y145209D01*
X932350Y145207D01*
X932350Y145208D02*
X934947Y145208D01*
X941875Y156892D02*
X944472Y156892D01*
X941875Y156892D02*
X941776Y156890D01*
X941676Y156884D01*
X941577Y156875D01*
X941479Y156862D01*
X941381Y156845D01*
X941283Y156824D01*
X941187Y156799D01*
X941092Y156771D01*
X940998Y156739D01*
X940905Y156704D01*
X940813Y156665D01*
X940723Y156622D01*
X940635Y156577D01*
X940548Y156527D01*
X940464Y156475D01*
X940381Y156419D01*
X940301Y156361D01*
X940223Y156299D01*
X940148Y156234D01*
X940075Y156166D01*
X940005Y156096D01*
X939937Y156023D01*
X939872Y155948D01*
X939810Y155870D01*
X939752Y155790D01*
X939696Y155707D01*
X939644Y155623D01*
X939594Y155536D01*
X939549Y155448D01*
X939506Y155358D01*
X939467Y155266D01*
X939432Y155173D01*
X939400Y155079D01*
X939372Y154984D01*
X939347Y154888D01*
X939326Y154790D01*
X939309Y154692D01*
X939296Y154594D01*
X939287Y154495D01*
X939281Y154395D01*
X939279Y154296D01*
X939279Y147804D01*
X939278Y147804D02*
X939280Y147705D01*
X939286Y147605D01*
X939295Y147506D01*
X939308Y147408D01*
X939326Y147310D01*
X939346Y147212D01*
X939371Y147116D01*
X939399Y147020D01*
X939431Y146926D01*
X939466Y146833D01*
X939505Y146742D01*
X939548Y146652D01*
X939593Y146563D01*
X939643Y146477D01*
X939695Y146392D01*
X939751Y146310D01*
X939810Y146230D01*
X939871Y146152D01*
X939936Y146076D01*
X940004Y146003D01*
X940074Y145933D01*
X940147Y145865D01*
X940223Y145800D01*
X940301Y145739D01*
X940381Y145680D01*
X940463Y145624D01*
X940548Y145572D01*
X940634Y145523D01*
X940723Y145477D01*
X940813Y145434D01*
X940904Y145395D01*
X940997Y145360D01*
X941091Y145328D01*
X941187Y145300D01*
X941283Y145275D01*
X941381Y145255D01*
X941479Y145237D01*
X941577Y145224D01*
X941676Y145215D01*
X941775Y145209D01*
X941875Y145207D01*
X941875Y145208D02*
X944472Y145208D01*
X930603Y54892D02*
X930702Y54890D01*
X930802Y54884D01*
X930901Y54875D01*
X930999Y54862D01*
X931097Y54845D01*
X931195Y54824D01*
X931291Y54799D01*
X931386Y54771D01*
X931480Y54739D01*
X931573Y54704D01*
X931665Y54665D01*
X931755Y54622D01*
X931843Y54577D01*
X931930Y54527D01*
X932014Y54475D01*
X932097Y54419D01*
X932177Y54361D01*
X932255Y54299D01*
X932330Y54234D01*
X932403Y54166D01*
X932473Y54096D01*
X932541Y54023D01*
X932606Y53948D01*
X932668Y53870D01*
X932726Y53790D01*
X932782Y53707D01*
X932834Y53623D01*
X932884Y53536D01*
X932929Y53448D01*
X932972Y53358D01*
X933011Y53266D01*
X933046Y53173D01*
X933078Y53079D01*
X933106Y52984D01*
X933131Y52888D01*
X933152Y52790D01*
X933169Y52692D01*
X933182Y52594D01*
X933191Y52495D01*
X933197Y52395D01*
X933199Y52296D01*
X930603Y54892D02*
X930459Y54890D01*
X930314Y54884D01*
X930170Y54875D01*
X930027Y54862D01*
X929883Y54845D01*
X929740Y54824D01*
X929598Y54799D01*
X929457Y54771D01*
X929316Y54739D01*
X929176Y54703D01*
X929037Y54664D01*
X928899Y54621D01*
X928763Y54574D01*
X928627Y54524D01*
X928493Y54470D01*
X928361Y54413D01*
X928230Y54352D01*
X928101Y54288D01*
X927973Y54220D01*
X927847Y54150D01*
X927723Y54075D01*
X927602Y53998D01*
X927482Y53917D01*
X927364Y53834D01*
X927249Y53747D01*
X927136Y53657D01*
X927025Y53564D01*
X926917Y53469D01*
X926811Y53370D01*
X926708Y53269D01*
X927033Y45804D02*
X927035Y45705D01*
X927041Y45605D01*
X927050Y45506D01*
X927063Y45408D01*
X927080Y45310D01*
X927101Y45212D01*
X927126Y45116D01*
X927154Y45021D01*
X927186Y44927D01*
X927221Y44834D01*
X927260Y44742D01*
X927303Y44652D01*
X927348Y44564D01*
X927398Y44477D01*
X927450Y44393D01*
X927506Y44310D01*
X927564Y44230D01*
X927626Y44152D01*
X927691Y44077D01*
X927759Y44004D01*
X927829Y43934D01*
X927902Y43866D01*
X927977Y43801D01*
X928055Y43739D01*
X928135Y43681D01*
X928218Y43625D01*
X928302Y43573D01*
X928389Y43523D01*
X928477Y43478D01*
X928567Y43435D01*
X928659Y43396D01*
X928752Y43361D01*
X928846Y43329D01*
X928941Y43301D01*
X929037Y43276D01*
X929135Y43255D01*
X929233Y43238D01*
X929331Y43225D01*
X929430Y43216D01*
X929530Y43210D01*
X929629Y43208D01*
X929765Y43210D01*
X929901Y43216D01*
X930037Y43225D01*
X930173Y43238D01*
X930308Y43256D01*
X930442Y43276D01*
X930576Y43301D01*
X930710Y43329D01*
X930842Y43362D01*
X930973Y43397D01*
X931104Y43437D01*
X931233Y43480D01*
X931361Y43526D01*
X931487Y43577D01*
X931613Y43630D01*
X931736Y43688D01*
X931858Y43748D01*
X931978Y43812D01*
X932097Y43880D01*
X932213Y43950D01*
X932327Y44024D01*
X932440Y44101D01*
X932550Y44182D01*
X928331Y48076D02*
X928245Y48023D01*
X928161Y47966D01*
X928079Y47907D01*
X927999Y47844D01*
X927922Y47778D01*
X927847Y47710D01*
X927775Y47638D01*
X927706Y47564D01*
X927640Y47487D01*
X927577Y47408D01*
X927517Y47326D01*
X927460Y47242D01*
X927406Y47156D01*
X927356Y47068D01*
X927309Y46978D01*
X927265Y46887D01*
X927226Y46793D01*
X927189Y46699D01*
X927157Y46603D01*
X927128Y46505D01*
X927103Y46407D01*
X927082Y46308D01*
X927064Y46208D01*
X927051Y46108D01*
X927041Y46007D01*
X927035Y45905D01*
X927033Y45804D01*
X931901Y50024D02*
X931987Y50077D01*
X932071Y50134D01*
X932153Y50193D01*
X932233Y50256D01*
X932310Y50322D01*
X932385Y50390D01*
X932457Y50462D01*
X932526Y50536D01*
X932592Y50613D01*
X932655Y50692D01*
X932715Y50774D01*
X932772Y50858D01*
X932826Y50944D01*
X932876Y51032D01*
X932923Y51122D01*
X932967Y51213D01*
X933006Y51307D01*
X933043Y51401D01*
X933075Y51497D01*
X933104Y51595D01*
X933129Y51693D01*
X933150Y51792D01*
X933168Y51892D01*
X933181Y51992D01*
X933191Y52093D01*
X933197Y52195D01*
X933199Y52296D01*
X931901Y50024D02*
X928331Y48076D01*
X938424Y46454D02*
X938424Y51646D01*
X938424Y46454D02*
X938426Y46341D01*
X938432Y46228D01*
X938442Y46115D01*
X938456Y46002D01*
X938473Y45890D01*
X938495Y45779D01*
X938520Y45669D01*
X938550Y45559D01*
X938583Y45451D01*
X938620Y45344D01*
X938660Y45238D01*
X938705Y45134D01*
X938753Y45031D01*
X938804Y44930D01*
X938859Y44831D01*
X938917Y44734D01*
X938979Y44639D01*
X939044Y44546D01*
X939112Y44456D01*
X939183Y44368D01*
X939258Y44282D01*
X939335Y44199D01*
X939415Y44119D01*
X939498Y44042D01*
X939584Y43967D01*
X939672Y43896D01*
X939762Y43828D01*
X939855Y43763D01*
X939950Y43701D01*
X940047Y43643D01*
X940146Y43588D01*
X940247Y43537D01*
X940350Y43489D01*
X940454Y43444D01*
X940560Y43404D01*
X940667Y43367D01*
X940775Y43334D01*
X940885Y43304D01*
X940995Y43279D01*
X941106Y43257D01*
X941218Y43240D01*
X941331Y43226D01*
X941444Y43216D01*
X941557Y43210D01*
X941670Y43208D01*
X941783Y43210D01*
X941896Y43216D01*
X942009Y43226D01*
X942122Y43240D01*
X942234Y43257D01*
X942345Y43279D01*
X942455Y43304D01*
X942565Y43334D01*
X942673Y43367D01*
X942780Y43404D01*
X942886Y43444D01*
X942990Y43489D01*
X943093Y43537D01*
X943194Y43588D01*
X943293Y43643D01*
X943390Y43701D01*
X943485Y43763D01*
X943578Y43828D01*
X943668Y43896D01*
X943756Y43967D01*
X943842Y44042D01*
X943925Y44119D01*
X944005Y44199D01*
X944082Y44282D01*
X944157Y44368D01*
X944228Y44456D01*
X944296Y44546D01*
X944361Y44639D01*
X944423Y44734D01*
X944481Y44831D01*
X944536Y44930D01*
X944587Y45031D01*
X944635Y45134D01*
X944680Y45238D01*
X944720Y45344D01*
X944757Y45451D01*
X944790Y45559D01*
X944820Y45669D01*
X944845Y45779D01*
X944867Y45890D01*
X944884Y46002D01*
X944898Y46115D01*
X944908Y46228D01*
X944914Y46341D01*
X944916Y46454D01*
X944915Y46454D02*
X944915Y51646D01*
X944916Y51646D02*
X944914Y51759D01*
X944908Y51872D01*
X944898Y51985D01*
X944884Y52098D01*
X944867Y52210D01*
X944845Y52321D01*
X944820Y52431D01*
X944790Y52541D01*
X944757Y52649D01*
X944720Y52756D01*
X944680Y52862D01*
X944635Y52966D01*
X944587Y53069D01*
X944536Y53170D01*
X944481Y53269D01*
X944423Y53366D01*
X944361Y53461D01*
X944296Y53554D01*
X944228Y53644D01*
X944157Y53732D01*
X944082Y53818D01*
X944005Y53901D01*
X943925Y53981D01*
X943842Y54058D01*
X943756Y54133D01*
X943668Y54204D01*
X943578Y54272D01*
X943485Y54337D01*
X943390Y54399D01*
X943293Y54457D01*
X943194Y54512D01*
X943093Y54563D01*
X942990Y54611D01*
X942886Y54656D01*
X942780Y54696D01*
X942673Y54733D01*
X942565Y54766D01*
X942455Y54796D01*
X942345Y54821D01*
X942234Y54843D01*
X942122Y54860D01*
X942009Y54874D01*
X941896Y54884D01*
X941783Y54890D01*
X941670Y54892D01*
X941557Y54890D01*
X941444Y54884D01*
X941331Y54874D01*
X941218Y54860D01*
X941106Y54843D01*
X940995Y54821D01*
X940885Y54796D01*
X940775Y54766D01*
X940667Y54733D01*
X940560Y54696D01*
X940454Y54656D01*
X940350Y54611D01*
X940247Y54563D01*
X940146Y54512D01*
X940047Y54457D01*
X939950Y54399D01*
X939855Y54337D01*
X939762Y54272D01*
X939672Y54204D01*
X939584Y54133D01*
X939498Y54058D01*
X939415Y53981D01*
X939335Y53901D01*
X939258Y53818D01*
X939183Y53732D01*
X939112Y53644D01*
X939044Y53554D01*
X938979Y53461D01*
X938917Y53366D01*
X938859Y53269D01*
X938804Y53170D01*
X938753Y53069D01*
X938705Y52966D01*
X938660Y52862D01*
X938620Y52756D01*
X938583Y52649D01*
X938550Y52541D01*
X938520Y52431D01*
X938495Y52321D01*
X938473Y52210D01*
X938456Y52098D01*
X938442Y51985D01*
X938432Y51872D01*
X938426Y51759D01*
X938424Y51646D01*
X943617Y52296D02*
X946213Y54892D01*
X919954Y200401D02*
X916708Y200401D01*
X919954Y200400D02*
X920067Y200402D01*
X920180Y200408D01*
X920293Y200418D01*
X920406Y200432D01*
X920518Y200449D01*
X920629Y200471D01*
X920739Y200496D01*
X920849Y200526D01*
X920957Y200559D01*
X921064Y200596D01*
X921170Y200636D01*
X921274Y200681D01*
X921377Y200729D01*
X921478Y200780D01*
X921577Y200835D01*
X921674Y200893D01*
X921769Y200955D01*
X921862Y201020D01*
X921952Y201088D01*
X922040Y201159D01*
X922126Y201234D01*
X922209Y201311D01*
X922289Y201391D01*
X922366Y201474D01*
X922441Y201560D01*
X922512Y201648D01*
X922580Y201738D01*
X922645Y201831D01*
X922707Y201926D01*
X922765Y202023D01*
X922820Y202122D01*
X922871Y202223D01*
X922919Y202326D01*
X922964Y202430D01*
X923004Y202536D01*
X923041Y202643D01*
X923074Y202751D01*
X923104Y202861D01*
X923129Y202971D01*
X923151Y203082D01*
X923168Y203194D01*
X923182Y203307D01*
X923192Y203420D01*
X923198Y203533D01*
X923200Y203646D01*
X923198Y203759D01*
X923192Y203872D01*
X923182Y203985D01*
X923168Y204098D01*
X923151Y204210D01*
X923129Y204321D01*
X923104Y204431D01*
X923074Y204541D01*
X923041Y204649D01*
X923004Y204756D01*
X922964Y204862D01*
X922919Y204966D01*
X922871Y205069D01*
X922820Y205170D01*
X922765Y205269D01*
X922707Y205366D01*
X922645Y205461D01*
X922580Y205554D01*
X922512Y205644D01*
X922441Y205732D01*
X922366Y205818D01*
X922289Y205901D01*
X922209Y205981D01*
X922126Y206058D01*
X922040Y206133D01*
X921952Y206204D01*
X921862Y206272D01*
X921769Y206337D01*
X921674Y206399D01*
X921577Y206457D01*
X921478Y206512D01*
X921377Y206563D01*
X921274Y206611D01*
X921170Y206656D01*
X921064Y206696D01*
X920957Y206733D01*
X920849Y206766D01*
X920739Y206796D01*
X920629Y206821D01*
X920518Y206843D01*
X920406Y206860D01*
X920293Y206874D01*
X920180Y206884D01*
X920067Y206890D01*
X919954Y206892D01*
X916708Y206892D01*
X916708Y195208D01*
X919954Y195208D01*
X920055Y195210D01*
X920155Y195216D01*
X920255Y195226D01*
X920355Y195239D01*
X920454Y195257D01*
X920553Y195278D01*
X920650Y195303D01*
X920747Y195332D01*
X920842Y195365D01*
X920936Y195401D01*
X921028Y195441D01*
X921119Y195484D01*
X921208Y195531D01*
X921295Y195581D01*
X921381Y195635D01*
X921464Y195692D01*
X921544Y195752D01*
X921623Y195815D01*
X921699Y195882D01*
X921772Y195951D01*
X921842Y196023D01*
X921910Y196097D01*
X921975Y196174D01*
X922036Y196254D01*
X922095Y196336D01*
X922150Y196420D01*
X922202Y196506D01*
X922251Y196594D01*
X922296Y196684D01*
X922338Y196776D01*
X922376Y196869D01*
X922410Y196964D01*
X922441Y197059D01*
X922468Y197156D01*
X922491Y197254D01*
X922511Y197353D01*
X922526Y197453D01*
X922538Y197553D01*
X922546Y197653D01*
X922550Y197754D01*
X922550Y197854D01*
X922546Y197955D01*
X922538Y198055D01*
X922526Y198155D01*
X922511Y198255D01*
X922491Y198354D01*
X922468Y198452D01*
X922441Y198549D01*
X922410Y198644D01*
X922376Y198739D01*
X922338Y198832D01*
X922296Y198924D01*
X922251Y199014D01*
X922202Y199102D01*
X922150Y199188D01*
X922095Y199272D01*
X922036Y199354D01*
X921975Y199434D01*
X921910Y199511D01*
X921842Y199585D01*
X921772Y199657D01*
X921699Y199726D01*
X921623Y199793D01*
X921544Y199856D01*
X921464Y199916D01*
X921381Y199973D01*
X921295Y200027D01*
X921208Y200077D01*
X921119Y200124D01*
X921028Y200167D01*
X920936Y200207D01*
X920842Y200243D01*
X920747Y200276D01*
X920650Y200305D01*
X920553Y200330D01*
X920454Y200351D01*
X920355Y200369D01*
X920255Y200382D01*
X920155Y200392D01*
X920055Y200398D01*
X919954Y200400D01*
X926939Y206892D02*
X930833Y195208D01*
X934728Y206892D01*
X933754Y203971D02*
X927912Y203971D01*
X941501Y206892D02*
X941501Y195208D01*
X938256Y195208D02*
X944747Y195208D01*
X744708Y55892D02*
X744708Y44208D01*
X747954Y44208D01*
X748067Y44210D01*
X748180Y44216D01*
X748293Y44226D01*
X748406Y44240D01*
X748518Y44257D01*
X748629Y44279D01*
X748739Y44304D01*
X748849Y44334D01*
X748957Y44367D01*
X749064Y44404D01*
X749170Y44444D01*
X749274Y44489D01*
X749377Y44537D01*
X749478Y44588D01*
X749577Y44643D01*
X749674Y44701D01*
X749769Y44763D01*
X749862Y44828D01*
X749952Y44896D01*
X750040Y44967D01*
X750126Y45042D01*
X750209Y45119D01*
X750289Y45199D01*
X750366Y45282D01*
X750441Y45368D01*
X750512Y45456D01*
X750580Y45546D01*
X750645Y45639D01*
X750707Y45734D01*
X750765Y45831D01*
X750820Y45930D01*
X750871Y46031D01*
X750919Y46134D01*
X750964Y46238D01*
X751004Y46344D01*
X751041Y46451D01*
X751074Y46559D01*
X751104Y46669D01*
X751129Y46779D01*
X751151Y46890D01*
X751168Y47002D01*
X751182Y47115D01*
X751192Y47228D01*
X751198Y47341D01*
X751200Y47454D01*
X751199Y47454D02*
X751199Y52646D01*
X751200Y52646D02*
X751198Y52759D01*
X751192Y52872D01*
X751182Y52985D01*
X751168Y53098D01*
X751151Y53210D01*
X751129Y53321D01*
X751104Y53431D01*
X751074Y53541D01*
X751041Y53649D01*
X751004Y53756D01*
X750964Y53862D01*
X750919Y53966D01*
X750871Y54069D01*
X750820Y54170D01*
X750765Y54269D01*
X750707Y54366D01*
X750645Y54461D01*
X750580Y54554D01*
X750512Y54644D01*
X750441Y54732D01*
X750366Y54818D01*
X750289Y54901D01*
X750209Y54981D01*
X750126Y55058D01*
X750040Y55133D01*
X749952Y55204D01*
X749862Y55272D01*
X749769Y55337D01*
X749674Y55399D01*
X749577Y55457D01*
X749478Y55512D01*
X749377Y55563D01*
X749274Y55611D01*
X749170Y55656D01*
X749064Y55696D01*
X748957Y55733D01*
X748849Y55766D01*
X748739Y55796D01*
X748629Y55821D01*
X748518Y55843D01*
X748406Y55860D01*
X748293Y55874D01*
X748180Y55884D01*
X748067Y55890D01*
X747954Y55892D01*
X744708Y55892D01*
X760033Y55892D02*
X760132Y55890D01*
X760232Y55884D01*
X760331Y55875D01*
X760429Y55862D01*
X760527Y55845D01*
X760625Y55824D01*
X760721Y55799D01*
X760816Y55771D01*
X760910Y55739D01*
X761003Y55704D01*
X761095Y55665D01*
X761185Y55622D01*
X761273Y55577D01*
X761360Y55527D01*
X761444Y55475D01*
X761527Y55419D01*
X761607Y55361D01*
X761685Y55299D01*
X761760Y55234D01*
X761833Y55166D01*
X761903Y55096D01*
X761971Y55023D01*
X762036Y54948D01*
X762098Y54870D01*
X762156Y54790D01*
X762212Y54707D01*
X762264Y54623D01*
X762314Y54536D01*
X762359Y54448D01*
X762402Y54358D01*
X762441Y54266D01*
X762476Y54173D01*
X762508Y54079D01*
X762536Y53984D01*
X762561Y53888D01*
X762582Y53790D01*
X762599Y53692D01*
X762612Y53594D01*
X762621Y53495D01*
X762627Y53395D01*
X762629Y53296D01*
X760033Y55892D02*
X759889Y55890D01*
X759744Y55884D01*
X759600Y55875D01*
X759457Y55862D01*
X759313Y55845D01*
X759170Y55824D01*
X759028Y55799D01*
X758887Y55771D01*
X758746Y55739D01*
X758606Y55703D01*
X758467Y55664D01*
X758329Y55621D01*
X758193Y55574D01*
X758057Y55524D01*
X757923Y55470D01*
X757791Y55413D01*
X757660Y55352D01*
X757531Y55288D01*
X757403Y55220D01*
X757277Y55150D01*
X757153Y55075D01*
X757032Y54998D01*
X756912Y54917D01*
X756794Y54834D01*
X756679Y54747D01*
X756566Y54657D01*
X756455Y54564D01*
X756347Y54469D01*
X756241Y54370D01*
X756138Y54269D01*
X756463Y46804D02*
X756465Y46705D01*
X756471Y46605D01*
X756480Y46506D01*
X756493Y46408D01*
X756510Y46310D01*
X756531Y46212D01*
X756556Y46116D01*
X756584Y46021D01*
X756616Y45927D01*
X756651Y45834D01*
X756690Y45742D01*
X756733Y45652D01*
X756778Y45564D01*
X756828Y45477D01*
X756880Y45393D01*
X756936Y45310D01*
X756994Y45230D01*
X757056Y45152D01*
X757121Y45077D01*
X757189Y45004D01*
X757259Y44934D01*
X757332Y44866D01*
X757407Y44801D01*
X757485Y44739D01*
X757565Y44681D01*
X757648Y44625D01*
X757732Y44573D01*
X757819Y44523D01*
X757907Y44478D01*
X757997Y44435D01*
X758089Y44396D01*
X758182Y44361D01*
X758276Y44329D01*
X758371Y44301D01*
X758467Y44276D01*
X758565Y44255D01*
X758663Y44238D01*
X758761Y44225D01*
X758860Y44216D01*
X758960Y44210D01*
X759059Y44208D01*
X759195Y44210D01*
X759331Y44216D01*
X759467Y44225D01*
X759603Y44238D01*
X759738Y44256D01*
X759872Y44276D01*
X760006Y44301D01*
X760140Y44329D01*
X760272Y44362D01*
X760403Y44397D01*
X760534Y44437D01*
X760663Y44480D01*
X760791Y44526D01*
X760917Y44577D01*
X761043Y44630D01*
X761166Y44688D01*
X761288Y44748D01*
X761408Y44812D01*
X761527Y44880D01*
X761643Y44950D01*
X761757Y45024D01*
X761870Y45101D01*
X761980Y45182D01*
X757760Y49076D02*
X757674Y49023D01*
X757590Y48966D01*
X757508Y48907D01*
X757428Y48844D01*
X757351Y48778D01*
X757276Y48710D01*
X757204Y48638D01*
X757135Y48564D01*
X757069Y48487D01*
X757006Y48408D01*
X756946Y48326D01*
X756889Y48242D01*
X756835Y48156D01*
X756785Y48068D01*
X756738Y47978D01*
X756694Y47887D01*
X756655Y47793D01*
X756618Y47699D01*
X756586Y47603D01*
X756557Y47505D01*
X756532Y47407D01*
X756511Y47308D01*
X756493Y47208D01*
X756480Y47108D01*
X756470Y47007D01*
X756464Y46905D01*
X756462Y46804D01*
X761331Y51024D02*
X761417Y51077D01*
X761501Y51134D01*
X761583Y51193D01*
X761663Y51256D01*
X761740Y51322D01*
X761815Y51390D01*
X761887Y51462D01*
X761956Y51536D01*
X762022Y51613D01*
X762085Y51692D01*
X762145Y51774D01*
X762202Y51858D01*
X762256Y51944D01*
X762306Y52032D01*
X762353Y52122D01*
X762397Y52213D01*
X762436Y52307D01*
X762473Y52401D01*
X762505Y52497D01*
X762534Y52595D01*
X762559Y52693D01*
X762580Y52792D01*
X762598Y52892D01*
X762611Y52992D01*
X762621Y53093D01*
X762627Y53195D01*
X762629Y53296D01*
X761331Y51024D02*
X757761Y49076D01*
X767187Y46804D02*
X770432Y44208D01*
X770432Y55892D01*
X767187Y55892D02*
X773678Y55892D01*
X778617Y55892D02*
X781862Y55892D01*
X781975Y55890D01*
X782088Y55884D01*
X782201Y55874D01*
X782314Y55860D01*
X782426Y55843D01*
X782537Y55821D01*
X782647Y55796D01*
X782757Y55766D01*
X782865Y55733D01*
X782972Y55696D01*
X783078Y55656D01*
X783182Y55611D01*
X783285Y55563D01*
X783386Y55512D01*
X783485Y55457D01*
X783582Y55399D01*
X783677Y55337D01*
X783770Y55272D01*
X783860Y55204D01*
X783948Y55133D01*
X784034Y55058D01*
X784117Y54981D01*
X784197Y54901D01*
X784274Y54818D01*
X784349Y54732D01*
X784420Y54644D01*
X784488Y54554D01*
X784553Y54461D01*
X784615Y54366D01*
X784673Y54269D01*
X784728Y54170D01*
X784779Y54069D01*
X784827Y53966D01*
X784872Y53862D01*
X784912Y53756D01*
X784949Y53649D01*
X784982Y53541D01*
X785012Y53431D01*
X785037Y53321D01*
X785059Y53210D01*
X785076Y53098D01*
X785090Y52985D01*
X785100Y52872D01*
X785106Y52759D01*
X785108Y52646D01*
X785106Y52533D01*
X785100Y52420D01*
X785090Y52307D01*
X785076Y52194D01*
X785059Y52082D01*
X785037Y51971D01*
X785012Y51861D01*
X784982Y51751D01*
X784949Y51643D01*
X784912Y51536D01*
X784872Y51430D01*
X784827Y51326D01*
X784779Y51223D01*
X784728Y51122D01*
X784673Y51023D01*
X784615Y50926D01*
X784553Y50831D01*
X784488Y50738D01*
X784420Y50648D01*
X784349Y50560D01*
X784274Y50474D01*
X784197Y50391D01*
X784117Y50311D01*
X784034Y50234D01*
X783948Y50159D01*
X783860Y50088D01*
X783770Y50020D01*
X783677Y49955D01*
X783582Y49893D01*
X783485Y49835D01*
X783386Y49780D01*
X783285Y49729D01*
X783182Y49681D01*
X783078Y49636D01*
X782972Y49596D01*
X782865Y49559D01*
X782757Y49526D01*
X782647Y49496D01*
X782537Y49471D01*
X782426Y49449D01*
X782314Y49432D01*
X782201Y49418D01*
X782088Y49408D01*
X781975Y49402D01*
X781862Y49400D01*
X782512Y44208D02*
X778617Y44208D01*
X782512Y44208D02*
X782613Y44210D01*
X782713Y44216D01*
X782813Y44226D01*
X782913Y44239D01*
X783012Y44257D01*
X783111Y44278D01*
X783208Y44303D01*
X783305Y44332D01*
X783400Y44365D01*
X783494Y44401D01*
X783586Y44441D01*
X783677Y44484D01*
X783766Y44531D01*
X783853Y44581D01*
X783939Y44635D01*
X784022Y44692D01*
X784102Y44752D01*
X784181Y44815D01*
X784257Y44882D01*
X784330Y44951D01*
X784400Y45023D01*
X784468Y45097D01*
X784533Y45174D01*
X784594Y45254D01*
X784653Y45336D01*
X784708Y45420D01*
X784760Y45506D01*
X784809Y45594D01*
X784854Y45684D01*
X784896Y45776D01*
X784934Y45869D01*
X784968Y45964D01*
X784999Y46059D01*
X785026Y46156D01*
X785049Y46254D01*
X785069Y46353D01*
X785084Y46453D01*
X785096Y46553D01*
X785104Y46653D01*
X785108Y46754D01*
X785108Y46854D01*
X785104Y46955D01*
X785096Y47055D01*
X785084Y47155D01*
X785069Y47255D01*
X785049Y47354D01*
X785026Y47452D01*
X784999Y47549D01*
X784968Y47644D01*
X784934Y47739D01*
X784896Y47832D01*
X784854Y47924D01*
X784809Y48014D01*
X784760Y48102D01*
X784708Y48188D01*
X784653Y48272D01*
X784594Y48354D01*
X784533Y48434D01*
X784468Y48511D01*
X784400Y48585D01*
X784330Y48657D01*
X784257Y48726D01*
X784181Y48793D01*
X784102Y48856D01*
X784022Y48916D01*
X783939Y48973D01*
X783853Y49027D01*
X783766Y49077D01*
X783677Y49124D01*
X783586Y49167D01*
X783494Y49207D01*
X783400Y49243D01*
X783305Y49276D01*
X783208Y49305D01*
X783111Y49330D01*
X783012Y49351D01*
X782913Y49369D01*
X782813Y49382D01*
X782713Y49392D01*
X782613Y49398D01*
X782512Y49400D01*
X782512Y49401D02*
X779915Y49401D01*
X790047Y50050D02*
X790050Y49820D01*
X790058Y49590D01*
X790072Y49361D01*
X790091Y49132D01*
X790116Y48903D01*
X790146Y48675D01*
X790181Y48448D01*
X790222Y48222D01*
X790268Y47997D01*
X790320Y47773D01*
X790377Y47550D01*
X790439Y47329D01*
X790507Y47109D01*
X790580Y46891D01*
X790658Y46675D01*
X790741Y46461D01*
X790829Y46249D01*
X790922Y46038D01*
X791021Y45831D01*
X791020Y45831D02*
X791053Y45741D01*
X791089Y45652D01*
X791129Y45564D01*
X791173Y45479D01*
X791220Y45395D01*
X791270Y45313D01*
X791324Y45233D01*
X791380Y45156D01*
X791440Y45080D01*
X791503Y45007D01*
X791568Y44937D01*
X791637Y44869D01*
X791708Y44805D01*
X791781Y44743D01*
X791857Y44684D01*
X791935Y44628D01*
X792016Y44575D01*
X792098Y44526D01*
X792182Y44480D01*
X792269Y44437D01*
X792356Y44398D01*
X792446Y44362D01*
X792536Y44330D01*
X792628Y44302D01*
X792721Y44277D01*
X792815Y44256D01*
X792909Y44239D01*
X793004Y44225D01*
X793100Y44216D01*
X793196Y44210D01*
X793292Y44208D01*
X793388Y44210D01*
X793484Y44216D01*
X793580Y44225D01*
X793675Y44239D01*
X793769Y44256D01*
X793863Y44277D01*
X793956Y44302D01*
X794048Y44330D01*
X794138Y44362D01*
X794228Y44398D01*
X794316Y44437D01*
X794402Y44480D01*
X794486Y44526D01*
X794568Y44575D01*
X794649Y44628D01*
X794727Y44684D01*
X794803Y44743D01*
X794876Y44805D01*
X794947Y44869D01*
X795016Y44937D01*
X795081Y45007D01*
X795144Y45080D01*
X795204Y45156D01*
X795260Y45233D01*
X795314Y45313D01*
X795364Y45395D01*
X795411Y45479D01*
X795455Y45564D01*
X795495Y45652D01*
X795531Y45741D01*
X795564Y45831D01*
X795663Y46038D01*
X795756Y46249D01*
X795844Y46461D01*
X795927Y46675D01*
X796005Y46891D01*
X796078Y47109D01*
X796146Y47329D01*
X796208Y47550D01*
X796265Y47773D01*
X796317Y47997D01*
X796363Y48222D01*
X796404Y48448D01*
X796439Y48675D01*
X796469Y48903D01*
X796494Y49132D01*
X796513Y49361D01*
X796527Y49590D01*
X796535Y49820D01*
X796538Y50050D01*
X790047Y50050D02*
X790050Y50280D01*
X790058Y50510D01*
X790072Y50739D01*
X790091Y50968D01*
X790116Y51197D01*
X790146Y51425D01*
X790181Y51652D01*
X790222Y51878D01*
X790268Y52103D01*
X790320Y52327D01*
X790377Y52550D01*
X790439Y52771D01*
X790507Y52991D01*
X790580Y53209D01*
X790658Y53425D01*
X790741Y53639D01*
X790829Y53851D01*
X790922Y54062D01*
X791021Y54269D01*
X791020Y54269D02*
X791053Y54359D01*
X791089Y54448D01*
X791130Y54536D01*
X791173Y54621D01*
X791220Y54705D01*
X791270Y54787D01*
X791324Y54867D01*
X791380Y54944D01*
X791440Y55020D01*
X791503Y55093D01*
X791568Y55163D01*
X791637Y55231D01*
X791708Y55295D01*
X791781Y55357D01*
X791857Y55416D01*
X791935Y55472D01*
X792016Y55525D01*
X792098Y55574D01*
X792182Y55620D01*
X792269Y55663D01*
X792356Y55702D01*
X792446Y55738D01*
X792536Y55770D01*
X792628Y55798D01*
X792721Y55823D01*
X792815Y55844D01*
X792909Y55861D01*
X793004Y55875D01*
X793100Y55884D01*
X793196Y55890D01*
X793292Y55892D01*
X795564Y54269D02*
X795663Y54062D01*
X795756Y53851D01*
X795844Y53639D01*
X795927Y53425D01*
X796005Y53209D01*
X796078Y52991D01*
X796146Y52771D01*
X796208Y52550D01*
X796265Y52327D01*
X796317Y52103D01*
X796363Y51878D01*
X796404Y51652D01*
X796439Y51425D01*
X796469Y51197D01*
X796494Y50968D01*
X796513Y50739D01*
X796527Y50510D01*
X796535Y50280D01*
X796538Y50050D01*
X795564Y54269D02*
X795531Y54359D01*
X795495Y54448D01*
X795455Y54536D01*
X795411Y54621D01*
X795364Y54705D01*
X795314Y54787D01*
X795260Y54867D01*
X795204Y54944D01*
X795144Y55020D01*
X795081Y55093D01*
X795016Y55163D01*
X794947Y55231D01*
X794876Y55295D01*
X794803Y55357D01*
X794727Y55416D01*
X794649Y55472D01*
X794568Y55525D01*
X794486Y55574D01*
X794402Y55620D01*
X794315Y55663D01*
X794228Y55702D01*
X794138Y55738D01*
X794048Y55770D01*
X793956Y55798D01*
X793863Y55823D01*
X793769Y55844D01*
X793675Y55861D01*
X793580Y55875D01*
X793484Y55884D01*
X793388Y55890D01*
X793292Y55892D01*
X790696Y53296D02*
X795889Y46804D01*
X801477Y45506D02*
X801477Y44208D01*
X807968Y44208D01*
X804722Y55892D01*
X825212Y51348D02*
X833001Y51348D01*
X829106Y47454D02*
X829106Y55243D01*
X847719Y44208D02*
X847826Y44210D01*
X847932Y44216D01*
X848038Y44226D01*
X848144Y44239D01*
X848250Y44257D01*
X848354Y44278D01*
X848458Y44303D01*
X848561Y44332D01*
X848662Y44364D01*
X848762Y44401D01*
X848861Y44441D01*
X848959Y44484D01*
X849055Y44531D01*
X849149Y44582D01*
X849241Y44636D01*
X849331Y44693D01*
X849419Y44753D01*
X849504Y44817D01*
X849587Y44884D01*
X849668Y44954D01*
X849746Y45026D01*
X849822Y45102D01*
X849894Y45180D01*
X849964Y45261D01*
X850031Y45344D01*
X850095Y45429D01*
X850155Y45517D01*
X850212Y45607D01*
X850266Y45699D01*
X850317Y45793D01*
X850364Y45889D01*
X850407Y45987D01*
X850447Y46086D01*
X850484Y46186D01*
X850516Y46287D01*
X850545Y46390D01*
X850570Y46494D01*
X850591Y46598D01*
X850609Y46704D01*
X850622Y46810D01*
X850632Y46916D01*
X850638Y47022D01*
X850640Y47129D01*
X847719Y44208D02*
X847598Y44210D01*
X847477Y44216D01*
X847357Y44226D01*
X847236Y44239D01*
X847117Y44257D01*
X846997Y44278D01*
X846879Y44303D01*
X846762Y44332D01*
X846645Y44365D01*
X846530Y44401D01*
X846416Y44442D01*
X846303Y44485D01*
X846191Y44533D01*
X846082Y44584D01*
X845974Y44639D01*
X845867Y44697D01*
X845763Y44758D01*
X845661Y44823D01*
X845561Y44891D01*
X845463Y44962D01*
X845367Y45036D01*
X845274Y45113D01*
X845184Y45194D01*
X845096Y45277D01*
X845011Y45363D01*
X844928Y45452D01*
X844849Y45543D01*
X844772Y45637D01*
X844699Y45733D01*
X844629Y45831D01*
X844562Y45932D01*
X844498Y46035D01*
X844438Y46140D01*
X844380Y46247D01*
X844327Y46355D01*
X844277Y46465D01*
X844231Y46577D01*
X844188Y46690D01*
X844149Y46805D01*
X849666Y49401D02*
X849745Y49323D01*
X849821Y49243D01*
X849894Y49160D01*
X849964Y49074D01*
X850031Y48987D01*
X850095Y48896D01*
X850155Y48804D01*
X850213Y48710D01*
X850267Y48613D01*
X850317Y48515D01*
X850364Y48415D01*
X850408Y48314D01*
X850448Y48211D01*
X850484Y48106D01*
X850516Y48001D01*
X850545Y47894D01*
X850570Y47787D01*
X850592Y47678D01*
X850609Y47569D01*
X850623Y47460D01*
X850632Y47350D01*
X850638Y47239D01*
X850640Y47129D01*
X849666Y49401D02*
X844149Y55892D01*
X850640Y55892D01*
X855579Y53296D02*
X858175Y44208D01*
X855579Y53296D02*
X862070Y53296D01*
X860123Y50699D02*
X860123Y55892D01*
X869572Y55892D02*
X872168Y55892D01*
X869572Y55892D02*
X869473Y55890D01*
X869373Y55884D01*
X869274Y55875D01*
X869176Y55862D01*
X869078Y55845D01*
X868980Y55824D01*
X868884Y55799D01*
X868789Y55771D01*
X868695Y55739D01*
X868602Y55704D01*
X868510Y55665D01*
X868420Y55622D01*
X868332Y55577D01*
X868245Y55527D01*
X868161Y55475D01*
X868078Y55419D01*
X867998Y55361D01*
X867920Y55299D01*
X867845Y55234D01*
X867772Y55166D01*
X867702Y55096D01*
X867634Y55023D01*
X867569Y54948D01*
X867507Y54870D01*
X867449Y54790D01*
X867393Y54707D01*
X867341Y54623D01*
X867291Y54536D01*
X867246Y54448D01*
X867203Y54358D01*
X867164Y54266D01*
X867129Y54173D01*
X867097Y54079D01*
X867069Y53984D01*
X867044Y53888D01*
X867023Y53790D01*
X867006Y53692D01*
X866993Y53594D01*
X866984Y53495D01*
X866978Y53395D01*
X866976Y53296D01*
X866976Y46804D01*
X866975Y46804D02*
X866977Y46705D01*
X866983Y46605D01*
X866992Y46506D01*
X867005Y46408D01*
X867023Y46310D01*
X867043Y46212D01*
X867068Y46116D01*
X867096Y46020D01*
X867128Y45926D01*
X867163Y45833D01*
X867202Y45742D01*
X867245Y45652D01*
X867290Y45563D01*
X867340Y45477D01*
X867392Y45392D01*
X867448Y45310D01*
X867507Y45230D01*
X867568Y45152D01*
X867633Y45076D01*
X867701Y45003D01*
X867771Y44933D01*
X867844Y44865D01*
X867920Y44800D01*
X867998Y44739D01*
X868078Y44680D01*
X868160Y44624D01*
X868245Y44572D01*
X868331Y44523D01*
X868420Y44477D01*
X868510Y44434D01*
X868601Y44395D01*
X868694Y44360D01*
X868788Y44328D01*
X868884Y44300D01*
X868980Y44275D01*
X869078Y44255D01*
X869176Y44237D01*
X869274Y44224D01*
X869373Y44215D01*
X869472Y44209D01*
X869572Y44207D01*
X869572Y44208D02*
X872168Y44208D01*
X876534Y55892D02*
X879779Y55892D01*
X879892Y55890D01*
X880005Y55884D01*
X880118Y55874D01*
X880231Y55860D01*
X880343Y55843D01*
X880454Y55821D01*
X880564Y55796D01*
X880674Y55766D01*
X880782Y55733D01*
X880889Y55696D01*
X880995Y55656D01*
X881099Y55611D01*
X881202Y55563D01*
X881303Y55512D01*
X881402Y55457D01*
X881499Y55399D01*
X881594Y55337D01*
X881687Y55272D01*
X881777Y55204D01*
X881865Y55133D01*
X881951Y55058D01*
X882034Y54981D01*
X882114Y54901D01*
X882191Y54818D01*
X882266Y54732D01*
X882337Y54644D01*
X882405Y54554D01*
X882470Y54461D01*
X882532Y54366D01*
X882590Y54269D01*
X882645Y54170D01*
X882696Y54069D01*
X882744Y53966D01*
X882789Y53862D01*
X882829Y53756D01*
X882866Y53649D01*
X882899Y53541D01*
X882929Y53431D01*
X882954Y53321D01*
X882976Y53210D01*
X882993Y53098D01*
X883007Y52985D01*
X883017Y52872D01*
X883023Y52759D01*
X883025Y52646D01*
X883023Y52533D01*
X883017Y52420D01*
X883007Y52307D01*
X882993Y52194D01*
X882976Y52082D01*
X882954Y51971D01*
X882929Y51861D01*
X882899Y51751D01*
X882866Y51643D01*
X882829Y51536D01*
X882789Y51430D01*
X882744Y51326D01*
X882696Y51223D01*
X882645Y51122D01*
X882590Y51023D01*
X882532Y50926D01*
X882470Y50831D01*
X882405Y50738D01*
X882337Y50648D01*
X882266Y50560D01*
X882191Y50474D01*
X882114Y50391D01*
X882034Y50311D01*
X881951Y50234D01*
X881865Y50159D01*
X881777Y50088D01*
X881687Y50020D01*
X881594Y49955D01*
X881499Y49893D01*
X881402Y49835D01*
X881303Y49780D01*
X881202Y49729D01*
X881099Y49681D01*
X880995Y49636D01*
X880889Y49596D01*
X880782Y49559D01*
X880674Y49526D01*
X880564Y49496D01*
X880454Y49471D01*
X880343Y49449D01*
X880231Y49432D01*
X880118Y49418D01*
X880005Y49408D01*
X879892Y49402D01*
X879779Y49400D01*
X880428Y44208D02*
X876534Y44208D01*
X880428Y44208D02*
X880529Y44210D01*
X880629Y44216D01*
X880729Y44226D01*
X880829Y44239D01*
X880928Y44257D01*
X881027Y44278D01*
X881124Y44303D01*
X881221Y44332D01*
X881316Y44365D01*
X881410Y44401D01*
X881502Y44441D01*
X881593Y44484D01*
X881682Y44531D01*
X881769Y44581D01*
X881855Y44635D01*
X881938Y44692D01*
X882018Y44752D01*
X882097Y44815D01*
X882173Y44882D01*
X882246Y44951D01*
X882316Y45023D01*
X882384Y45097D01*
X882449Y45174D01*
X882510Y45254D01*
X882569Y45336D01*
X882624Y45420D01*
X882676Y45506D01*
X882725Y45594D01*
X882770Y45684D01*
X882812Y45776D01*
X882850Y45869D01*
X882884Y45964D01*
X882915Y46059D01*
X882942Y46156D01*
X882965Y46254D01*
X882985Y46353D01*
X883000Y46453D01*
X883012Y46553D01*
X883020Y46653D01*
X883024Y46754D01*
X883024Y46854D01*
X883020Y46955D01*
X883012Y47055D01*
X883000Y47155D01*
X882985Y47255D01*
X882965Y47354D01*
X882942Y47452D01*
X882915Y47549D01*
X882884Y47644D01*
X882850Y47739D01*
X882812Y47832D01*
X882770Y47924D01*
X882725Y48014D01*
X882676Y48102D01*
X882624Y48188D01*
X882569Y48272D01*
X882510Y48354D01*
X882449Y48434D01*
X882384Y48511D01*
X882316Y48585D01*
X882246Y48657D01*
X882173Y48726D01*
X882097Y48793D01*
X882018Y48856D01*
X881938Y48916D01*
X881855Y48973D01*
X881769Y49027D01*
X881682Y49077D01*
X881593Y49124D01*
X881502Y49167D01*
X881410Y49207D01*
X881316Y49243D01*
X881221Y49276D01*
X881124Y49305D01*
X881027Y49330D01*
X880928Y49351D01*
X880829Y49369D01*
X880729Y49382D01*
X880629Y49392D01*
X880529Y49398D01*
X880428Y49400D01*
X880428Y49401D02*
X877832Y49401D01*
X891534Y44208D02*
X891641Y44210D01*
X891747Y44216D01*
X891853Y44226D01*
X891959Y44239D01*
X892065Y44257D01*
X892169Y44278D01*
X892273Y44303D01*
X892376Y44332D01*
X892477Y44364D01*
X892577Y44401D01*
X892676Y44441D01*
X892774Y44484D01*
X892870Y44531D01*
X892964Y44582D01*
X893056Y44636D01*
X893146Y44693D01*
X893234Y44753D01*
X893319Y44817D01*
X893402Y44884D01*
X893483Y44954D01*
X893561Y45026D01*
X893637Y45102D01*
X893709Y45180D01*
X893779Y45261D01*
X893846Y45344D01*
X893910Y45429D01*
X893970Y45517D01*
X894027Y45607D01*
X894081Y45699D01*
X894132Y45793D01*
X894179Y45889D01*
X894222Y45987D01*
X894262Y46086D01*
X894299Y46186D01*
X894331Y46287D01*
X894360Y46390D01*
X894385Y46494D01*
X894406Y46598D01*
X894424Y46704D01*
X894437Y46810D01*
X894447Y46916D01*
X894453Y47022D01*
X894455Y47129D01*
X891534Y44208D02*
X891413Y44210D01*
X891292Y44216D01*
X891172Y44226D01*
X891051Y44239D01*
X890932Y44257D01*
X890812Y44278D01*
X890694Y44303D01*
X890577Y44332D01*
X890460Y44365D01*
X890345Y44401D01*
X890231Y44442D01*
X890118Y44485D01*
X890006Y44533D01*
X889897Y44584D01*
X889789Y44639D01*
X889682Y44697D01*
X889578Y44758D01*
X889476Y44823D01*
X889376Y44891D01*
X889278Y44962D01*
X889182Y45036D01*
X889089Y45113D01*
X888999Y45194D01*
X888911Y45277D01*
X888826Y45363D01*
X888743Y45452D01*
X888664Y45543D01*
X888587Y45637D01*
X888514Y45733D01*
X888444Y45831D01*
X888377Y45932D01*
X888313Y46035D01*
X888253Y46140D01*
X888195Y46247D01*
X888142Y46355D01*
X888092Y46465D01*
X888046Y46577D01*
X888003Y46690D01*
X887964Y46805D01*
X893480Y49401D02*
X893559Y49323D01*
X893635Y49243D01*
X893708Y49160D01*
X893778Y49074D01*
X893845Y48987D01*
X893909Y48896D01*
X893969Y48804D01*
X894027Y48710D01*
X894081Y48613D01*
X894131Y48515D01*
X894178Y48415D01*
X894222Y48314D01*
X894262Y48211D01*
X894298Y48106D01*
X894330Y48001D01*
X894359Y47894D01*
X894384Y47787D01*
X894406Y47678D01*
X894423Y47569D01*
X894437Y47460D01*
X894446Y47350D01*
X894452Y47239D01*
X894454Y47129D01*
X893481Y49401D02*
X887964Y55892D01*
X894455Y55892D01*
X899775Y55892D02*
X899775Y44208D01*
X906266Y55892D01*
X906266Y44208D01*
M02*
