G04 EAGLE Gerber RS-274X export*
G75*
%MOMM*%
%FSLAX34Y34*%
%LPD*%
%INSoldermask Bottom*%
%IPPOS*%
%AMOC8*
5,1,8,0,0,1.08239X$1,22.5*%
G01*
%ADD10C,3.784600*%
%ADD11C,1.727200*%
%ADD12C,1.311200*%
%ADD13R,1.511200X1.511200*%
%ADD14C,1.511200*%
%ADD15R,1.853200X1.853200*%
%ADD16C,1.853200*%
%ADD17C,2.453200*%
%ADD18C,1.311200*%
%ADD19C,1.511200*%
%ADD20C,5.203200*%
%ADD21C,0.959600*%


D10*
X31750Y31750D03*
X31750Y402590D03*
X1644650Y402590D03*
X1644650Y31750D03*
D11*
X1582420Y58420D02*
X1567180Y58420D01*
X1567180Y33020D02*
X1582420Y33020D01*
D12*
X330200Y417340D03*
X381000Y417340D03*
X241300Y417340D03*
X292100Y417340D03*
X152400Y417340D03*
X203200Y417340D03*
D13*
X1491000Y381000D03*
D14*
X1518500Y381000D03*
D15*
X1536700Y317500D03*
D16*
X1536700Y176500D03*
D17*
X1612900Y102900D03*
X1612900Y328900D03*
D11*
X683260Y33020D02*
X683260Y17780D01*
X657860Y17780D02*
X657860Y33020D01*
X632460Y33020D02*
X632460Y17780D01*
X607060Y17780D02*
X607060Y33020D01*
X581660Y33020D02*
X581660Y17780D01*
X556260Y17780D02*
X556260Y33020D01*
X530860Y33020D02*
X530860Y17780D01*
X505460Y17780D02*
X505460Y33020D01*
X1590700Y398780D02*
X1590700Y414020D01*
X1565300Y414020D02*
X1565300Y398780D01*
X1590700Y373380D02*
X1590700Y358140D01*
X1565300Y358140D02*
X1565300Y373380D01*
D18*
X647700Y365040D02*
X647700Y353960D01*
X673100Y353960D02*
X673100Y365040D01*
X698500Y365040D02*
X698500Y353960D01*
X596900Y353960D02*
X596900Y365040D01*
X939800Y365040D02*
X939800Y353960D01*
X965200Y353960D02*
X965200Y365040D01*
X990600Y365040D02*
X990600Y353960D01*
X889000Y353960D02*
X889000Y365040D01*
D19*
X1418900Y362140D02*
X1418900Y349060D01*
X1393500Y349060D02*
X1393500Y362140D01*
X1368100Y362140D02*
X1368100Y349060D01*
X1342700Y349060D02*
X1342700Y362140D01*
X1317300Y362140D02*
X1317300Y349060D01*
X1291900Y349060D02*
X1291900Y362140D01*
X1266500Y362140D02*
X1266500Y349060D01*
X1241100Y349060D02*
X1241100Y362140D01*
X1215700Y362140D02*
X1215700Y349060D01*
X1190300Y349060D02*
X1190300Y362140D01*
X1164900Y362140D02*
X1164900Y349060D01*
X1139500Y349060D02*
X1139500Y362140D01*
X1418900Y209740D02*
X1418900Y196660D01*
X1393500Y196660D02*
X1393500Y209740D01*
X1368100Y209740D02*
X1368100Y196660D01*
X1215700Y196660D02*
X1215700Y209740D01*
X1190300Y209740D02*
X1190300Y196660D01*
X1164900Y196660D02*
X1164900Y209740D01*
X1139500Y209740D02*
X1139500Y196660D01*
X1063300Y196660D02*
X1063300Y209740D01*
X1063300Y349060D02*
X1063300Y362140D01*
X1088700Y362140D02*
X1088700Y349060D01*
X1114100Y349060D02*
X1114100Y362140D01*
X1088700Y209740D02*
X1088700Y196660D01*
X1114100Y196660D02*
X1114100Y209740D01*
X1342700Y209740D02*
X1342700Y196660D01*
X1241100Y196660D02*
X1241100Y209740D01*
X1266500Y209740D02*
X1266500Y196660D01*
X1291900Y196660D02*
X1291900Y209740D01*
X1317300Y209740D02*
X1317300Y196660D01*
D12*
X482600Y171100D03*
X482600Y196500D03*
X482600Y221900D03*
X25400Y183800D03*
X25400Y209200D03*
D20*
X414000Y116500D03*
X334000Y116500D03*
X254000Y116500D03*
X174000Y116500D03*
X414000Y276500D03*
X334000Y276500D03*
X254000Y276500D03*
X174000Y276500D03*
X414000Y196500D03*
X334000Y196500D03*
X254000Y196500D03*
X174000Y196500D03*
X94000Y116500D03*
X94000Y276500D03*
X94000Y196500D03*
D11*
X714880Y88900D02*
X730120Y88900D01*
X730120Y114300D02*
X714880Y114300D01*
X714880Y139700D02*
X730120Y139700D01*
X730120Y165100D02*
X714880Y165100D01*
X714880Y190500D02*
X730120Y190500D01*
X961080Y48800D02*
X976320Y48800D01*
X976320Y74200D02*
X961080Y74200D01*
X961080Y99600D02*
X976320Y99600D01*
X976320Y125000D02*
X961080Y125000D01*
X961080Y150400D02*
X976320Y150400D01*
X976320Y175800D02*
X961080Y175800D01*
X961080Y201200D02*
X976320Y201200D01*
X1478280Y279400D02*
X1493520Y279400D01*
X1493520Y254000D02*
X1478280Y254000D01*
X1478280Y228600D02*
X1493520Y228600D01*
D21*
X596900Y292100D03*
X990600Y292100D03*
X673100Y292100D03*
X698500Y292100D03*
X889000Y292100D03*
X965200Y292100D03*
X594360Y113030D03*
X1189990Y258176D03*
X1215390Y264752D03*
X1240790Y271328D03*
X1266190Y277904D03*
X1291590Y284480D03*
X519430Y403860D03*
X203200Y393700D03*
X292100Y386080D03*
X403860Y378460D03*
X482600Y419100D03*
X1062990Y302260D03*
M02*
